<svg width="188" height="188" viewBox="0 0 188 188" fill="none" xmlns="http://www.w3.org/2000/svg">
<path d="M93.603 187.206C145.299 187.206 187.206 145.299 187.206 93.603C187.206 41.9075 145.299 0 93.603 0C41.9075 0 0 41.9075 0 93.603C0 145.299 41.9075 187.206 93.603 187.206Z" fill="#1D2C3A"/>
<mask id="mask0_1_165" style="mask-type:luminance" maskUnits="userSpaceOnUse" x="0" y="0" width="188" height="188">
<path d="M93.603 187.206C145.299 187.206 187.206 145.299 187.206 93.603C187.206 41.9075 145.299 0 93.603 0C41.9075 0 0 41.9075 0 93.603C0 145.299 41.9075 187.206 93.603 187.206Z" fill="white"/>
</mask>
<g mask="url(#mask0_1_165)">
<path d="M58.789 137.473C51.835 137.698 42.092 141.537 39.791 153.863C37.489 166.188 27.483 215.289 27.483 215.289H51.124L60.524 190.215L72.929 146.517C72.929 146.517 69.929 147.094 64.6 142.143C59.271 137.192 58.789 137.473 58.789 137.473Z" fill="#FF7D9F"/>
<path d="M129.48 138.78C134.68 138.91 143.368 141.739 145.793 150.226C148.218 158.712 157.108 212.662 157.108 212.662H129.48L124.173 183.364L116.467 147.938C116.467 147.938 121.657 145.251 124.383 142.549C127.109 139.845 129.48 138.78 129.48 138.78Z" fill="#FF7D9F"/>
<path d="M121.526 213.668H63.151C63.151 213.668 53.246 191.046 54.665 181.747C56.084 172.448 67.734 145.255 67.734 145.255L92.333 151.232L116.944 145.255C116.944 145.255 128.595 172.448 130.013 181.747C131.431 191.046 121.526 213.668 121.526 213.668Z" fill="#FF5A7F"/>
<path d="M130.194 137.896C127.612 141.242 117.658 151.838 95.618 151.838C69.443 151.838 61.733 140.127 59.514 138.308C59.95 138.041 60.581 137.714 61.357 137.326C67.71 134.21 83.761 127.591 83.761 124.16V114.898C83.761 110.606 83.761 106.581 83.761 106.581H106.675C106.675 106.581 106.675 108.581 106.675 111.261V124.16C106.675 127.53 122.169 133.98 128.74 137.156C129.297 137.435 129.782 137.678 130.194 137.896Z" fill="#FF7C5D"/>
<path d="M106.674 106.581C106.674 106.581 106.674 108.581 106.674 111.261C102.734 112.364 93.411 114.692 83.76 114.898C83.76 110.606 83.76 106.581 83.76 106.581H106.674Z" fill="#EF5848"/>
<path d="M130.921 136.89C130.921 136.89 130.691 137.266 130.194 137.896C127.612 141.242 117.658 151.838 95.618 151.838C69.443 151.838 61.733 140.127 59.514 138.308C57.295 136.49 60.326 136.077 60.326 136.077C60.326 136.077 60.653 136.55 61.357 137.326C64.364 140.636 74.281 149.413 94.927 149.413C115.925 149.413 125.903 140.332 128.739 137.156C129.345 136.489 129.624 136.077 129.624 136.077L130.921 136.89Z" fill="#FFC0D1"/>
<path d="M50.219 164.48C52.5971 164.48 54.525 162.552 54.525 160.174C54.525 157.796 52.5971 155.868 50.219 155.868C47.8409 155.868 45.913 157.796 45.913 160.174C45.913 162.552 47.8409 164.48 50.219 164.48Z" fill="#CE3463"/>
<path d="M50.994 177.053C50.994 179.431 49.066 181.359 46.688 181.359C44.31 181.359 42.382 179.431 42.382 177.053C42.382 174.675 44.31 172.747 46.688 172.747C49.066 172.747 50.994 174.675 50.994 177.053Z" fill="#CE3463"/>
<path d="M67.457 168.786C69.8351 168.786 71.763 166.858 71.763 164.48C71.763 162.102 69.8351 160.174 67.457 160.174C65.0789 160.174 63.151 162.102 63.151 164.48C63.151 166.858 65.0789 168.786 67.457 168.786Z" fill="#CE3463"/>
<path d="M86.064 170.901C88.4421 170.901 90.37 168.973 90.37 166.595C90.37 164.217 88.4421 162.289 86.064 162.289C83.6859 162.289 81.758 164.217 81.758 166.595C81.758 168.973 83.6859 170.901 86.064 170.901Z" fill="#CE3463"/>
<path d="M140.172 164.48C142.55 164.48 144.478 162.552 144.478 160.174C144.478 157.796 142.55 155.868 140.172 155.868C137.794 155.868 135.866 157.796 135.866 160.174C135.866 162.552 137.794 164.48 140.172 164.48Z" fill="#CE3463"/>
<path d="M142.358 183.057C144.736 183.057 146.664 181.129 146.664 178.751C146.664 176.373 144.736 174.445 142.358 174.445C139.98 174.445 138.052 176.373 138.052 178.751C138.052 181.129 139.98 183.057 142.358 183.057Z" fill="#CE3463"/>
<path d="M118.627 164.48C118.627 166.858 120.555 168.786 122.933 168.786C125.311 168.786 127.239 166.858 127.239 164.48C127.239 162.102 125.311 160.174 122.933 160.174C120.555 160.174 118.627 162.101 118.627 164.48Z" fill="#CE3463"/>
<path d="M104.327 170.901C106.705 170.901 108.633 168.973 108.633 166.595C108.633 164.217 106.705 162.289 104.327 162.289C101.949 162.289 100.021 164.217 100.021 166.595C100.021 168.973 101.949 170.901 104.327 170.901Z" fill="#CE3463"/>
<path d="M68.906 180.943C68.906 183.321 66.978 185.249 64.6 185.249C62.222 185.249 60.294 183.321 60.294 180.943C60.294 178.565 62.222 176.637 64.6 176.637C66.978 176.636 68.906 178.564 68.906 180.943Z" fill="#CE3463"/>
<path d="M87.513 183.058C87.513 185.436 85.585 187.364 83.207 187.364C80.829 187.364 78.901 185.436 78.901 183.058C78.901 180.68 80.829 178.752 83.207 178.752C85.586 178.751 87.513 180.679 87.513 183.058Z" fill="#CE3463"/>
<path d="M115.77 180.943C115.77 183.321 117.698 185.249 120.076 185.249C122.454 185.249 124.382 183.321 124.382 180.943C124.382 178.565 122.454 176.637 120.076 176.637C117.698 176.636 115.77 178.564 115.77 180.943Z" fill="#CE3463"/>
<path d="M101.469 187.364C103.847 187.364 105.775 185.436 105.775 183.058C105.775 180.68 103.847 178.752 101.469 178.752C99.0909 178.752 97.163 180.68 97.163 183.058C97.163 185.436 99.0909 187.364 101.469 187.364Z" fill="#CE3463"/>
<path d="M80.725 184.959C80.754 185.094 80.287 185.294 78.796 185.761C77.313 186.245 74.778 186.953 70.879 188.652C66.998 190.392 64.768 191.79 63.412 192.562C62.063 193.35 61.601 193.562 61.521 193.449C61.45 193.35 61.774 192.947 63.047 192.005C64.325 191.081 66.544 189.564 70.498 187.791C74.47 186.06 77.086 185.44 78.63 185.116C80.184 184.808 80.7 184.84 80.725 184.959Z" fill="#9B3A5D"/>
<path d="M123.989 186.359C123.87 186.59 123.145 186.453 120.44 185.057C117.736 183.661 117.205 183.149 117.324 182.918C117.443 182.687 118.168 182.823 120.873 184.22C123.577 185.616 124.108 186.128 123.989 186.359Z" fill="#9B3A5D"/>
<path d="M133.909 154.089C134.031 154.167 133.803 154.671 133.039 156.194C132.305 157.724 130.947 160.275 129.728 164.754C128.581 169.252 128.506 172.142 128.391 173.834C128.305 175.536 128.255 176.087 128.111 176.094C127.996 176.101 127.81 175.565 127.725 173.83C127.67 172.107 127.64 169.129 128.817 164.513C130.068 159.917 131.562 157.34 132.458 155.868C133.386 154.401 133.813 154.026 133.909 154.089Z" fill="#9B3A5D"/>
<path d="M132.872 166.223C132.914 166.353 132.788 166.501 132.367 166.769C131.953 167.045 131.214 167.424 130.234 168.322C129.274 169.242 128.848 169.955 128.546 170.35C128.251 170.753 128.095 170.869 127.968 170.819C127.853 170.774 127.788 170.572 127.95 170.051C128.119 169.543 128.508 168.67 129.589 167.634C130.693 166.622 131.589 166.291 132.107 166.155C132.637 166.027 132.835 166.105 132.872 166.223Z" fill="#9B3A5D"/>
<path d="M59.28 151.642C59.404 151.634 59.567 152.08 59.705 153.521C59.829 154.96 59.966 157.407 59.6 161.35C59.2 165.289 58.594 167.665 58.195 169.052C57.782 170.44 57.535 170.846 57.416 170.814C57.284 170.779 57.303 170.312 57.546 168.901C57.776 167.489 58.269 165.134 58.663 161.258C59.024 157.379 58.994 154.973 59.04 153.543C59.072 152.113 59.144 151.651 59.28 151.642Z" fill="#9B3A5D"/>
<path d="M55.245 159.343C55.335 159.258 55.569 159.312 56.046 159.759C56.509 160.208 57.258 161.053 57.969 162.698C58.65 164.355 58.731 165.481 58.729 166.126C58.715 166.779 58.59 166.985 58.467 166.99C58.331 166.996 58.219 166.8 58.067 166.203C57.904 165.61 57.729 164.595 57.1 163.064C56.444 161.545 55.84 160.711 55.529 160.18C55.207 159.653 55.145 159.436 55.245 159.343Z" fill="#9B3A5D"/>
<path d="M136.498 98.567C134.473 106.92 126.69 104.18 126.69 104.18C126.69 104.18 126.593 114.861 117.706 116.316C111.802 117.274 108.335 115.867 106.674 114.813V111.261C106.674 108.582 106.674 106.581 106.674 106.581H83.76C83.76 106.581 83.76 110.606 83.76 114.898V115.747C81.275 116.341 77.965 116.681 74.667 115.674C67.999 113.649 67.793 107.394 67.793 107.394C67.793 107.394 52.445 108.4 48.808 98.568C45.171 88.736 53.851 80.916 53.851 80.916C53.851 80.916 37.29 74.248 40.115 57.687C42.94 41.114 54.869 42.933 54.869 42.933C54.869 42.933 51.026 37.271 45.97 32.628C40.927 27.985 39.508 25.56 44.564 24.542C49.45 23.572 55.124 37.89 55.463 38.763C55.427 38.436 55.063 35.732 55.063 33.635C55.063 31.417 56.275 27.173 59.306 29.186C62.203 31.114 59.197 38.157 58.93 38.764C59.342 38.279 64.919 31.599 68.811 25.962C72.848 20.106 84.766 12.226 104.333 16.263C123.9 20.3 128.616 42.874 128.616 42.874C128.616 42.874 138.921 46.972 140.739 57.083C142.558 67.182 134.071 73.923 134.071 73.923C134.071 73.923 134.471 75.463 134.071 77.984C133.671 80.506 130.834 83.912 130.834 83.912C130.834 83.912 138.523 90.214 136.498 98.567Z" fill="#D83567"/>
<path d="M85.501 21.126C85.526 21.186 85.4 21.313 85.038 21.542C84.679 21.776 84.069 22.079 83.196 22.632C81.478 23.722 78.404 25.545 74.932 29.984C71.576 34.511 70.635 37.959 70.041 39.905C69.74 40.894 69.61 41.562 69.48 41.971C69.355 42.38 69.267 42.536 69.202 42.528C69.138 42.52 69.103 42.348 69.117 41.916C69.136 41.485 69.168 40.784 69.393 39.75C69.833 37.716 70.709 34.098 74.182 29.414C77.774 24.821 81.029 23.015 82.873 22.05C83.811 21.558 84.477 21.341 84.888 21.208C85.302 21.078 85.476 21.066 85.501 21.126Z" fill="#A01D4C"/>
<path d="M66.007 33.458C66.112 33.543 66.062 33.772 65.754 34.341C65.455 34.914 64.869 35.82 64.192 37.423C63.539 39.036 63.313 40.091 63.12 40.708C62.936 41.328 62.81 41.525 62.676 41.512C62.552 41.499 62.443 41.279 62.462 40.602C62.492 39.932 62.626 38.78 63.322 37.063C64.043 35.357 64.762 34.447 65.214 33.952C65.677 33.458 65.91 33.379 66.007 33.458Z" fill="#A01D4C"/>
<path d="M46.966 59.101C46.861 59.125 46.579 58.712 46.434 57.246C46.376 56.515 46.39 55.515 46.667 54.232C46.964 52.963 47.539 51.383 48.802 49.78C50.089 48.197 51.504 47.289 52.678 46.721C53.869 46.169 54.842 45.936 55.568 45.833C57.03 45.654 57.495 45.838 57.495 45.946C57.501 46.097 57.042 46.155 55.701 46.487C55.034 46.665 54.149 46.948 53.065 47.5C51.998 48.068 50.714 48.925 49.539 50.37C48.386 51.834 47.832 53.275 47.512 54.44C47.211 55.618 47.129 56.544 47.102 57.234C47.07 58.614 47.114 59.074 46.966 59.101Z" fill="#A01D4C"/>
<path d="M60.624 57.854C60.513 57.889 60.282 57.657 60.014 56.757C59.772 55.869 59.43 54.243 59.981 51.712C60.597 49.197 61.618 47.886 62.225 47.194C62.861 46.503 63.171 46.396 63.255 46.476C63.36 46.573 63.223 46.844 62.757 47.594C62.316 48.348 61.468 49.6 60.899 51.923C60.39 54.261 60.602 55.758 60.668 56.629C60.757 57.509 60.761 57.813 60.624 57.854Z" fill="#A01D4C"/>
<path d="M119.652 44.037C119.692 44.087 119.521 44.289 118.996 44.729C118.446 45.121 117.501 45.748 115.871 46.194C114.253 46.626 111.936 46.842 109.03 46.204C107.586 45.884 105.984 45.357 104.324 44.545C102.651 43.753 100.898 42.709 99 41.528C95.23 39.133 92.133 37.348 89.396 36.545C86.677 35.697 84.496 35.62 82.921 35.78C81.336 35.95 80.343 36.328 79.72 36.535C79.116 36.788 78.855 36.858 78.822 36.801C78.789 36.746 78.985 36.569 79.564 36.203C80.16 35.885 81.172 35.386 82.836 35.119C84.489 34.862 86.801 34.876 89.646 35.713C92.518 36.504 95.743 38.341 99.497 40.727C103.258 43.112 106.44 44.75 109.22 45.356C111.986 46.009 114.17 45.87 115.714 45.544C117.268 45.205 118.206 44.702 118.796 44.418C119.363 44.089 119.612 43.985 119.652 44.037Z" fill="#A01D4C"/>
<path d="M109.833 26.757C109.896 26.653 110.333 26.754 111.508 27.433C112.668 28.125 114.617 29.371 117.266 31.982C119.882 34.626 121.131 36.572 121.825 37.732C122.507 38.906 122.608 39.343 122.504 39.406C122.386 39.478 122.082 39.163 121.272 38.104C120.449 37.059 119.149 35.226 116.6 32.649C114.018 30.104 112.184 28.807 111.137 27.986C110.077 27.179 109.761 26.876 109.833 26.757Z" fill="#A01D4C"/>
<path d="M133.3 62.842C133.162 62.781 133.319 62.321 133.647 60.893C133.798 60.177 133.959 59.206 133.976 57.916C133.972 56.633 133.816 55.008 133.095 53.166C132.348 51.334 131.342 50.049 130.461 49.116C129.56 48.193 128.774 47.6 128.172 47.185C126.951 46.376 126.52 46.15 126.578 46.011C126.616 45.91 127.138 45.912 128.518 46.615C129.199 46.978 130.079 47.55 131.077 48.503C132.054 49.466 133.162 50.833 133.97 52.816C134.75 54.81 134.889 56.565 134.844 57.935C134.777 59.314 134.533 60.335 134.289 61.067C133.774 62.528 133.397 62.889 133.3 62.842Z" fill="#A01D4C"/>
<path d="M130.419 65.348C130.308 65.264 130.348 65.053 130.567 64.519C130.769 63.984 131.201 63.108 131.347 61.567C131.45 60.023 131.165 59.088 131.051 58.528C130.92 57.966 130.914 57.75 131.037 57.686C131.143 57.629 131.36 57.732 131.672 58.288C131.964 58.837 132.404 59.889 132.286 61.643C132.121 63.393 131.518 64.361 131.142 64.856C130.745 65.355 130.515 65.422 130.419 65.348Z" fill="#A01D4C"/>
<path d="M127.166 102.471C127.148 102.305 127.609 102.282 128.782 101.745C129.357 101.458 130.097 100.982 130.853 100.124C131.583 99.266 132.356 97.98 132.533 96.241C132.669 94.481 132.211 93.064 131.751 92.007C131.264 90.949 130.762 90.208 130.369 89.672C129.562 88.612 129.269 88.277 129.368 88.167C129.44 88.082 129.891 88.235 130.88 89.244C131.363 89.756 131.962 90.506 132.537 91.636C133.081 92.764 133.626 94.329 133.472 96.323C133.267 98.333 132.361 99.768 131.499 100.705C130.608 101.642 129.722 102.12 129.041 102.359C127.645 102.795 127.162 102.559 127.166 102.471Z" fill="#A01D4C"/>
<path d="M125.172 100.476C125.136 100.341 125.283 100.204 125.727 99.933C126.158 99.652 126.941 99.244 127.824 98.168C128.674 97.065 128.895 96.211 129.072 95.728C129.237 95.234 129.337 95.06 129.477 95.065C129.597 95.068 129.736 95.248 129.73 95.838C129.71 96.41 129.556 97.467 128.562 98.755C127.531 100.013 126.535 100.401 125.982 100.548C125.408 100.687 125.201 100.592 125.172 100.476Z" fill="#A01D4C"/>
<path d="M116.087 113.232C116.061 113.088 116.425 112.962 117.48 112.534C118.004 112.311 118.695 111.986 119.529 111.434C120.349 110.871 121.324 110.065 122.196 108.806C123.051 107.535 123.446 106.334 123.672 105.365C123.883 104.387 123.934 103.625 123.951 103.056C123.965 101.917 123.95 101.533 124.094 101.504C124.204 101.479 124.455 101.814 124.617 103.026C124.687 103.631 124.705 104.46 124.524 105.535C124.327 106.601 123.92 107.932 122.975 109.337C122.01 110.729 120.919 111.593 119.998 112.165C119.062 112.725 118.284 113.01 117.695 113.165C116.508 113.455 116.104 113.343 116.087 113.232Z" fill="#A01D4C"/>
<path d="M114.465 109.776C114.434 109.64 114.616 109.502 115.174 109.221C115.719 108.929 116.693 108.512 117.911 107.358C119.097 106.17 119.538 105.207 119.844 104.67C120.139 104.119 120.281 103.941 120.417 103.976C120.533 104.005 120.622 104.241 120.467 104.906C120.301 105.552 119.899 106.701 118.568 108.033C117.202 109.329 116.043 109.701 115.393 109.851C114.725 109.988 114.491 109.893 114.465 109.776Z" fill="#A01D4C"/>
<path d="M75.893 107.783C76.124 107.598 76.498 107.946 78.048 109.345C79.661 110.671 80.06 110.988 79.912 111.245C79.808 111.442 79.169 111.485 77.433 110.06C75.766 108.553 75.714 107.915 75.893 107.783Z" fill="#A01D4C"/>
<path d="M77.093 112.845C76.883 112.999 76.503 112.838 75.602 111.608C74.7 110.378 74.661 109.968 74.871 109.814C75.081 109.66 75.461 109.821 76.362 111.051C77.264 112.281 77.303 112.691 77.093 112.845Z" fill="#A01D4C"/>
<path d="M63.151 71.423C63.151 71.423 64.738 87.869 68.035 96.216C71.444 104.844 79.679 111.661 97.114 111.661C114.549 111.661 124.526 92.611 126.193 83.911C127.86 75.211 124.829 60.36 124.829 60.36C124.829 60.36 123.617 56.571 117.858 55.056C112.099 53.541 106.492 53.389 99.673 52.48C92.853 51.571 86.064 44.448 86.064 44.448C86.064 44.448 93.156 52.177 98.006 54.753C102.855 57.329 100.022 59.602 94.922 58.542C89.822 57.482 84.625 47.782 84.625 47.782C84.625 47.782 84.428 51.419 86.064 55.056C87.701 58.693 88.216 58.991 86.064 59.372C83.912 59.753 82.765 54.298 81.672 52.025C80.579 49.752 79.063 42.932 79.063 42.932C79.063 42.932 81.185 46.872 78.305 52.479C75.426 58.086 73.568 60.24 73.568 60.24C73.568 60.24 72.85 64.788 69.213 68.257C65.576 71.726 63.151 71.423 63.151 71.423Z" fill="#FF7C5D"/>
<path d="M58.699 71.809C58.699 71.809 53.791 70.645 54.047 76.744C54.304 82.843 58.436 82.073 59.513 81.688C60.59 81.303 60.59 79.625 60.59 76.744C60.591 73.862 58.699 71.809 58.699 71.809Z" fill="#FF7C5D"/>
<path d="M129.536 71.809C129.536 71.809 134.444 70.645 134.188 76.744C133.931 82.843 129.799 82.073 128.722 81.688C127.645 81.303 127.645 79.625 127.645 76.744C127.645 73.862 129.536 71.809 129.536 71.809Z" fill="#FF7C5D"/>
<path d="M65.466 67.895C65.511 68.304 64.953 84.768 69.315 102.73C73.677 120.692 75.88 125.182 75.88 125.182C75.88 125.182 68.276 118.639 63.15 102.601C58.024 86.564 58.014 70.526 57.313 66.934C56.612 63.342 58.922 48.587 67.261 47.432C67.261 47.432 64.696 60.901 65.466 67.895Z" fill="#BC265C"/>
<path d="M123.768 67.895C123.723 68.304 124.281 84.768 119.919 102.73C115.557 120.692 113.354 125.182 113.354 125.182C113.354 125.182 120.958 118.639 126.084 102.601C131.21 86.564 131.22 70.526 131.921 66.934C132.622 63.342 130.312 48.587 121.973 47.432C121.971 47.432 124.538 60.901 123.768 67.895Z" fill="#BC265C"/>
<path d="M85.501 21.126C85.526 21.186 85.4 21.313 85.038 21.542C84.679 21.776 84.069 22.079 83.196 22.632C81.478 23.722 78.404 25.545 74.932 29.984C71.576 34.511 70.635 37.959 70.041 39.905C69.74 40.894 69.61 41.562 69.48 41.971C69.355 42.38 69.267 42.536 69.202 42.528C69.138 42.52 69.103 42.348 69.117 41.916C69.136 41.485 69.168 40.784 69.393 39.75C69.833 37.716 70.709 34.098 74.182 29.414C77.774 24.821 81.029 23.015 82.873 22.05C83.811 21.558 84.477 21.341 84.888 21.208C85.302 21.078 85.476 21.066 85.501 21.126Z" fill="#A01D4C"/>
<path d="M68.244 108.496C68.135 108.525 67.683 107.456 66.776 103.937C65.906 100.418 64.474 94.436 63.576 84.539C62.768 74.634 63.155 68.495 63.411 64.879C63.703 61.257 63.965 60.126 64.078 60.136C64.224 60.149 64.198 61.301 64.077 64.915C63.993 68.524 63.713 74.62 64.516 84.458C65.408 94.288 66.726 100.246 67.426 103.788C68.163 107.328 68.386 108.459 68.244 108.496Z" fill="#A01D4C"/>
<path d="M62.525 75.665C62.657 75.672 62.748 76.091 62.787 77.397C62.805 78.702 62.836 80.893 62.887 84.451C63.01 88.008 63.086 90.198 63.131 91.502C63.156 92.808 63.086 93.232 62.954 93.245C62.827 93.257 62.663 92.857 62.467 91.558C62.277 90.259 62.039 88.059 61.945 84.475C61.865 80.89 61.995 78.681 62.122 77.375C62.253 76.067 62.398 75.659 62.525 75.665Z" fill="#A01D4C"/>
<path d="M123.888 102.052C123.747 102.011 123.957 101.025 124.648 97.945C125.302 94.863 126.54 89.677 127.286 81.095C127.941 72.506 127.559 67.187 127.413 64.04C127.23 60.889 127.183 59.882 127.329 59.864C127.441 59.85 127.723 60.828 128.078 63.985C128.395 67.136 128.887 72.503 128.226 81.171C127.474 89.832 126.119 95.047 125.295 98.106C124.433 101.165 123.996 102.084 123.888 102.052Z" fill="#A01D4C"/>
<path d="M124.827 88.002C124.572 87.949 124.536 87.087 125.272 83.561C126.007 80.035 126.385 79.259 126.64 79.312C126.895 79.365 126.931 80.227 126.195 83.753C125.459 87.279 125.082 88.055 124.827 88.002Z" fill="#A01D4C"/>
<path d="M56.869 103.985C56.813 104.081 56.358 104.02 55.254 103.237C54.711 102.837 54.023 102.23 53.278 101.281C52.553 100.325 51.763 99.006 51.297 97.192C50.854 95.373 50.929 93.837 51.118 92.652C51.327 91.463 51.648 90.604 51.939 89.996C52.544 88.785 52.917 88.517 53.011 88.576C53.138 88.65 52.972 89.043 52.557 90.245C52.36 90.849 52.126 91.671 51.977 92.779C51.847 93.885 51.806 95.298 52.211 96.964C52.639 98.624 53.341 99.852 53.976 100.765C54.63 101.673 55.223 102.287 55.682 102.727C56.615 103.592 56.946 103.86 56.869 103.985Z" fill="#A01D4C"/>
<path d="M62.343 103.752C62.305 103.874 62.171 103.961 61.83 103.927C61.492 103.89 60.934 103.739 60.144 103.263C59.361 102.778 58.972 102.349 58.784 102.066C58.598 101.778 58.615 101.619 58.706 101.529C58.917 101.32 59.255 101.559 60.635 102.459C62.065 103.277 62.432 103.47 62.343 103.752Z" fill="#A01D4C"/>
<path d="M78.305 76.743C79.6443 76.743 80.73 74.8433 80.73 72.5C80.73 70.1567 79.6443 68.257 78.305 68.257C76.9657 68.257 75.88 70.1567 75.88 72.5C75.88 74.8433 76.9657 76.743 78.305 76.743Z" fill="#66102F"/>
<path d="M110.006 76.743C111.345 76.743 112.431 74.8433 112.431 72.5C112.431 70.1567 111.345 68.257 110.006 68.257C108.667 68.257 107.581 70.1567 107.581 72.5C107.581 74.8433 108.667 76.743 110.006 76.743Z" fill="#66102F"/>
<path d="M95.218 84.793C95.22 85.062 94.834 85.468 93.441 85.323C92.773 85.215 91.75 84.95 90.818 83.87C90.345 83.303 90.008 82.509 89.978 81.601C89.951 80.722 90.204 79.55 91.256 78.741C91.789 78.347 92.209 78.233 92.438 78.101C92.693 77.961 92.647 77.965 92.661 77.97C92.682 77.965 92.71 77.73 92.704 77.425C92.708 77.126 92.712 76.843 92.716 76.577C92.74 75.512 92.797 74.705 92.878 74.103C93.041 72.898 93.305 72.51 93.609 72.501C93.913 72.492 94.199 72.864 94.434 74.057C94.551 74.653 94.656 75.455 94.743 76.517C94.763 76.782 94.783 77.064 94.805 77.363C94.812 77.651 94.889 78.066 94.69 78.7C94.586 79.011 94.391 79.314 94.15 79.547C93.916 79.773 93.674 79.921 93.463 80.036C93.041 80.258 92.704 80.387 92.584 80.496C92.297 80.692 92.139 81.137 92.134 81.562C92.127 81.995 92.253 82.368 92.43 82.639C92.832 83.25 93.426 83.592 93.877 83.829C94.814 84.276 95.226 84.466 95.218 84.793Z" fill="#C9454C"/>
<path d="M105.486 92.736C105.425 94.603 104.783 96.47 103.546 98.01C101.861 100.144 99.06 101.659 95.229 101.659C91.701 101.659 88.767 100.35 86.888 98.507C85.251 96.907 84.415 94.894 84.669 92.991C84.827 91.791 85.263 90.991 86.063 90.469C87.433 89.548 89.882 89.402 93.931 89.402C96.356 89.402 101.92 88.759 104.333 90.457C105.074 90.966 105.523 91.693 105.486 92.736Z" fill="#54132B"/>
<path d="M103.547 98.01C101.862 100.144 99.061 101.659 95.23 101.659C91.702 101.659 88.768 100.35 86.889 98.507C88.21 97.379 91.047 95.476 95.048 95.476C98.515 95.476 101.643 96.906 103.547 98.01Z" fill="#FF85B1"/>
<path d="M104.334 90.457C104.067 91.366 103.655 92.094 103.012 92.033C101.339 91.888 89.07 92.942 87.252 92.033C86.561 91.693 86.222 91.087 86.064 90.469C87.434 89.548 89.883 89.402 93.932 89.402C96.357 89.402 101.922 88.76 104.334 90.457Z" fill="white"/>
<path d="M72.744 62.379C73.177 63.413 73.668 63.226 74.822 62.995C75.977 62.764 76.439 62.302 77.824 62.379C79.21 62.456 79.672 62.998 80.441 63.189C81.211 63.38 81.904 61.609 81.596 60.993C81.288 60.377 79.44 59.299 77.516 59.376C75.592 59.454 71.743 59.992 72.744 62.379Z" fill="#66102F"/>
<path d="M114.389 62.379C113.956 63.413 113.465 63.226 112.311 62.995C111.156 62.764 110.694 62.302 109.309 62.379C107.923 62.456 107.461 62.998 106.692 63.189C105.922 63.38 105.229 61.609 105.537 60.993C105.845 60.377 107.693 59.299 109.617 59.376C111.54 59.454 115.39 59.992 114.389 62.379Z" fill="#66102F"/>
</g>
</svg>
