<svg width="185" height="185" viewBox="0 0 185 185" fill="none" xmlns="http://www.w3.org/2000/svg">
<path d="M92.496 184.196C143.254 184.196 184.401 143.049 184.401 92.291C184.401 41.5333 143.254 0.385986 92.496 0.385986C41.7383 0.385986 0.591003 41.5333 0.591003 92.291C0.591003 143.049 41.7383 184.196 92.496 184.196Z" fill="#1D2C3A"/>
<mask id="mask0_1_973" style="mask-type:luminance" maskUnits="userSpaceOnUse" x="0" y="0" width="185" height="185">
<path d="M92.496 184.196C143.254 184.196 184.401 143.049 184.401 92.291C184.401 41.5333 143.254 0.385986 92.496 0.385986C41.7383 0.385986 0.591003 41.5333 0.591003 92.291C0.591003 143.049 41.7383 184.196 92.496 184.196Z" fill="white"/>
</mask>
<g mask="url(#mask0_1_973)">
<path d="M104.178 83.551C104.178 83.551 104.178 84.599 104.178 86.146C102.476 86.848 100.559 87.372 98.429 87.705C98.37 88.3 98.334 88.86 98.322 89.383C97.798 88.966 97.251 88.478 96.679 87.943C95.334 88.086 93.917 88.157 92.406 88.157C91.989 88.157 91.573 88.145 91.168 88.121C87.287 87.966 84.085 87.026 81.431 85.538C81.431 84.336 81.431 83.55 81.431 83.55L89.823 85.109L92.799 85.656L94.204 85.394L98.823 84.537L104.178 83.551Z" fill="#FFB7B0"/>
<path d="M122.313 112.56C129.158 112.56 134.217 113.602 139.573 117.173C144.93 120.744 149.84 136.368 151.328 146.337C152.816 156.306 153.411 170.74 154.899 175.501C156.387 180.263 159.66 198.332 159.66 198.332H135.406C135.406 198.332 132.43 184.428 130.496 178.328C128.562 172.227 125.437 164.639 125.437 164.639C125.437 164.639 125.586 143.51 124.991 131.011C124.397 118.512 122.313 112.56 122.313 112.56Z" fill="#FFB7B0"/>
<path d="M63.694 114.818C54.761 113.559 48.311 115.797 45.415 120.535C42.519 125.274 35.016 163.975 30.672 173.716C26.328 183.457 23.037 197.076 23.037 197.076H48.443L60.553 174.901C60.553 174.901 62.791 121.72 63.054 120.141C63.317 118.561 63.694 114.818 63.694 114.818Z" fill="#FFB7B0"/>
<path d="M116.629 111.322C116.629 111.322 114.653 112.5 112.939 114.822C111.237 117.131 109.916 121.583 104.178 127.904C98.452 134.225 92.798 134.225 92.798 134.225C92.798 134.225 87.156 134.225 81.43 127.904C75.692 121.583 74.371 117.131 72.657 114.822C70.955 112.501 68.979 111.322 68.979 111.322C68.979 111.322 77.002 107.894 79.24 104.608C81.478 101.311 81.43 100.656 81.43 98.025V90.014C81.43 86.645 81.43 83.55 81.43 83.55L92.798 85.657L104.178 83.55C104.178 83.55 104.178 86.847 104.178 90.347V98.025C104.178 100.656 104.119 101.31 106.356 104.608C108.594 107.894 116.629 111.322 116.629 111.322Z" fill="#FFB7B0"/>
<path d="M104.178 83.551C104.178 83.551 104.178 86.848 104.178 90.348C100.881 91.741 95 93.764 89.929 93.05C85.799 92.467 83.061 91.11 81.43 90.015C81.43 86.646 81.43 83.551 81.43 83.551L92.798 85.658L104.178 83.551Z" fill="#F4929A"/>
<path d="M70.142 110.794C74.199 111.629 78.587 123.826 83.326 127.38C88.065 130.934 90.999 135.014 97.938 131.066C104.877 127.118 109.599 117.874 112.286 114.217C114.973 110.56 116.104 109.219 117.815 108.888C119.526 108.557 123.212 110.795 124.002 111.848C124.792 112.901 126.108 124.43 129.399 132.685C132.69 140.94 131.505 154.761 130.452 160.948C129.399 167.135 125.187 173.98 124.66 178.456C124.133 182.932 130.057 198.333 130.057 198.333H55.946C55.946 198.333 61.08 189.777 60.816 185.038C60.553 180.299 53.708 161.08 52.523 151.734C51.338 142.388 58.447 123.301 60.553 117.245C62.659 111.189 66.304 110.004 70.142 110.794Z" fill="#5767BE"/>
<path d="M67.711 140.136C67.592 140.156 67.374 139.659 67.061 138.021C66.763 136.384 66.327 133.597 66.247 129.037C66.203 124.477 66.562 121.679 66.816 120.034C67.085 118.388 67.289 117.886 67.409 117.902C67.542 117.92 67.567 118.456 67.467 120.105C67.381 121.754 67.129 124.522 67.173 129.024C67.252 133.525 67.579 136.285 67.71 137.932C67.854 139.578 67.844 140.114 67.711 140.136Z" fill="#322F68"/>
<path d="M110.601 133.216C110.484 133.153 110.628 132.669 111.259 131.25C111.88 129.826 113.017 127.476 114.561 123.536C116.079 119.586 116.824 117.084 117.326 115.614C117.818 114.14 118.037 113.686 118.166 113.718C118.285 113.748 118.29 114.258 117.956 115.788C117.612 117.313 116.958 119.876 115.423 123.87C113.862 127.855 112.617 130.188 111.842 131.546C111.057 132.901 110.709 133.274 110.601 133.216Z" fill="#322F68"/>
<path d="M115.178 131.228C114.937 131.144 114.891 130.646 115.535 128.795C116.18 126.944 116.525 126.582 116.766 126.666C117.007 126.75 117.053 127.248 116.409 129.1C115.764 130.951 115.419 131.313 115.178 131.228Z" fill="#322F68"/>
<path d="M74.639 176.847C74.543 176.923 74.122 176.595 73.073 175.335C72.035 174.069 70.338 171.882 68.014 168.051C65.714 164.205 64.575 161.683 63.941 160.173C63.317 158.657 63.224 158.132 63.336 158.082C63.457 158.028 63.762 158.459 64.532 159.892C65.312 161.319 66.531 163.768 68.807 167.573C71.107 171.363 72.701 173.586 73.598 174.943C74.505 176.295 74.744 176.765 74.639 176.847Z" fill="#322F68"/>
<path d="M75.007 169.925C74.802 170.078 74.301 169.752 72.858 167.816C71.415 165.88 71.246 165.306 71.451 165.153C71.656 165 72.157 165.326 73.6 167.263C75.043 169.199 75.212 169.772 75.007 169.925Z" fill="#322F68"/>
<path d="M109.764 161.361C109.783 161.422 109.585 161.541 109.042 161.753C108.497 161.96 107.616 162.295 106.228 162.631C103.481 163.292 98.673 164.396 90.863 163.719C83.069 162.885 78.562 160.878 75.992 159.702C74.695 159.106 73.894 158.608 73.399 158.3C72.906 157.988 72.735 157.833 72.765 157.777C72.795 157.721 73.025 157.769 73.564 157.98C74.106 158.187 74.942 158.591 76.255 159.103C78.858 160.111 83.305 161.979 90.951 162.797C98.612 163.461 103.335 162.482 106.083 161.992C107.469 161.742 108.368 161.506 108.939 161.407C109.51 161.303 109.745 161.3 109.764 161.361Z" fill="#322F68"/>
<path d="M92.508 170.867C92.529 170.736 92.728 170.664 93.294 170.64C93.859 170.606 94.801 170.648 96.304 170.433C97.803 170.194 98.691 169.877 99.241 169.742C99.789 169.598 100 169.608 100.059 169.727C100.114 169.837 100.008 170.033 99.497 170.344C98.986 170.644 98.06 171.09 96.443 171.348C94.822 171.579 93.805 171.426 93.229 171.291C92.647 171.144 92.488 170.988 92.508 170.867Z" fill="#322F68"/>
<path d="M109.383 177.843C109.276 177.763 109.599 177.162 110.772 175.393C111.935 173.617 113.977 170.689 116.992 165.746C119.982 160.788 121.635 157.623 122.672 155.772C123.699 153.914 124.083 153.35 124.203 153.408C124.313 153.461 124.138 154.125 123.256 156.067C122.364 158.002 120.792 161.237 117.783 166.227C114.748 171.202 112.606 174.091 111.303 175.776C109.989 177.454 109.481 177.916 109.383 177.843Z" fill="#322F68"/>
<path d="M111.229 169.147C111.009 169.017 111.144 168.384 112.491 166.117C113.838 163.85 114.329 163.429 114.548 163.56C114.768 163.69 114.633 164.323 113.286 166.59C111.94 168.857 111.449 169.278 111.229 169.147Z" fill="#322F68"/>
<path d="M91.167 88.122C87.286 87.967 84.084 87.027 81.43 85.539V92.872C76.538 93.015 72.728 92.396 69.241 90.265C63.444 86.706 61.373 87.027 59.897 86.444C59.897 86.444 59.897 86.444 59.885 86.432C59.873 86.432 59.873 86.432 59.861 86.432C59.837 86.42 59.801 86.408 59.742 86.384C58.064 85.646 52.6 82.42 50.683 72.23C49.516 66.004 51.242 61.064 53.921 57.196C55.766 54.518 58.064 52.363 60.158 50.637C61.86 49.244 64.063 47.744 66.336 46.459C67.396 45.864 68.467 45.304 69.503 44.852C71.229 44.066 72.86 43.495 74.217 43.305C75.586 43.079 76.669 43.245 77.252 43.924C79.514 46.555 78.454 59.72 82.668 69.065C84.954 74.148 87.751 80.433 89.822 85.111C90.31 86.217 90.763 87.229 91.167 88.122Z" fill="#40235E"/>
<path d="M143.877 58.148C140.699 64.195 136.556 64.267 134.199 66.635C133.425 67.409 132.854 68.433 132.556 69.992C131.378 76.301 134.008 76.432 130.842 81.312C127.688 86.181 124.664 85.526 121.105 88.157C117.546 90.788 116.891 93.287 112.022 93.026C108.153 92.824 106.439 90.693 104.178 90.633V86.145C102.476 86.847 100.559 87.371 98.429 87.704C97.858 87.799 97.274 87.882 96.679 87.942C95.881 87.192 95.048 86.335 94.203 85.395C89.156 79.788 83.514 71.158 81.883 64.456C80.49 58.766 82.526 45.743 84.895 34.185C84.931 33.971 84.978 33.757 85.026 33.53C85.526 31.09 86.05 28.709 86.55 26.495C86.788 25.424 87.026 24.376 87.264 23.388C88.74 17.103 89.907 12.722 89.907 12.722C89.907 12.722 91.085 12.782 92.919 12.829C92.931 12.829 92.931 12.829 92.931 12.829C95.835 12.912 100.395 12.96 104.656 12.722C111.632 12.329 114.917 13.115 117.821 16.15C120.714 19.173 119.69 22.995 123.225 27.078C126.76 31.149 126.106 32.542 130.974 34.22C135.854 35.886 136.247 35.363 136.902 40.636C137.557 45.898 135.854 45.112 139.533 48.528C143.222 51.958 148.091 50.113 143.877 58.148Z" fill="#6B3698"/>
<path d="M132.556 69.992C131.378 76.301 134.008 76.432 130.842 81.312C127.688 86.181 124.664 85.526 121.105 88.157C117.546 90.788 116.891 93.287 112.022 93.026C108.153 92.824 106.439 90.693 104.178 90.633V86.145C102.476 86.847 100.559 87.371 98.429 87.704C98.488 87.026 98.572 86.299 98.679 85.502C98.727 85.192 98.774 84.871 98.822 84.538C100.524 74.158 108.131 55.065 108.131 55.065L114.011 49.351C114.023 49.363 114.023 49.363 114.023 49.363C116.856 51.589 118.88 52.97 120.415 53.91C125.284 56.886 125.319 55.457 130.7 61.945C132.045 63.564 133.212 65.135 134.2 66.635C133.425 67.409 132.854 68.433 132.556 69.992Z" fill="#40235E"/>
<path d="M123.224 58.672C123.224 61.648 120.808 64.064 117.832 64.064C117.761 64.064 117.677 64.064 117.606 64.052C116.928 73.265 113.833 82.265 104.179 86.145C102.477 86.847 100.56 87.371 98.43 87.704C97.859 87.799 97.275 87.882 96.68 87.942C95.335 88.085 93.918 88.156 92.407 88.156C91.99 88.156 91.574 88.144 91.169 88.12C87.288 87.965 84.086 87.025 81.432 85.537C73.635 81.18 70.623 72.11 69.588 64.039C69.421 64.051 69.255 64.063 69.088 64.063C66.112 64.063 63.696 61.647 63.696 58.671C63.696 55.683 66.112 53.267 69.088 53.267H69.1C69.112 52.208 69.148 51.196 69.171 50.22C69.254 48.268 69.373 46.482 69.504 44.851C70.099 37.911 71.087 33.924 71.087 33.924C71.242 33.531 71.408 33.15 71.575 32.793C72.932 29.936 74.896 27.901 77.253 26.472C80.146 24.686 83.621 23.818 87.264 23.389C89.442 23.127 91.692 23.032 93.894 23.008C95.072 25.913 98.548 29.781 102.548 32.602C102.893 32.84 103.215 33.09 103.524 33.328C107.595 36.542 108.785 39.97 111.368 45.113C112.201 46.791 113.13 48.208 114.011 49.351C114.023 49.363 114.023 49.363 114.023 49.363C115.809 51.684 117.416 52.946 117.761 53.208V53.267H117.832C118.76 53.267 119.641 53.505 120.403 53.922C122.081 54.839 123.224 56.613 123.224 58.672Z" fill="#FFB7B0"/>
<path d="M76.875 31.286C77.402 46.424 65.554 52.479 60.289 59.456C55.024 66.433 52.522 69.46 53.707 76.174C54.892 82.888 59.894 86.44 59.894 86.44C59.894 86.44 48.047 81.966 42.65 76.569C37.253 71.172 33.041 59.588 38.833 51.558C44.625 43.528 52.523 42.08 55.287 42.08C58.051 42.08 59.104 40.632 59.104 40.632C59.104 40.632 57.524 39.052 53.707 38.263C49.89 37.473 48.968 40.501 46.994 40.632C45.019 40.764 44.625 39.052 46.862 38.263C49.1 37.473 49.758 36.596 51.338 34.467C52.918 32.339 59.763 34.467 59.763 34.467C59.763 34.467 59.895 30.364 62.001 27.468C64.107 24.572 67.003 22.996 67.003 22.996C67.003 22.996 71.873 16.279 75.164 19.307C78.455 22.335 76.875 31.286 76.875 31.286Z" fill="#6B3698"/>
<path d="M84.247 9.30301C75.954 10.356 69.79 14.606 68.265 21.498C66.74 28.39 68.121 31.797 71.577 32.792C75.033 33.787 78.587 34.709 78.587 33.919C78.587 33.129 78.192 30.76 78.192 30.76C78.192 30.76 78.192 32.734 79.903 33.393C81.614 34.051 85.432 34.217 85.432 34.217C85.432 34.217 83.721 31.681 83.984 29.575C84.247 27.469 86.748 25.626 89.249 26.284C91.75 26.942 90.302 29.312 94.646 31.681C98.99 34.05 104.255 34.84 103.466 32.734C102.676 30.628 98.464 29.18 97.016 24.178C95.568 19.176 98.596 18.781 94.515 14.305C90.434 9.82999 84.247 9.30301 84.247 9.30301Z" fill="#6B3698"/>
<path d="M73.137 31.429C73.027 31.413 72.897 31.151 73.105 30.397C73.218 30.026 73.442 29.54 73.891 29.005C74.345 28.487 75.048 27.899 76.114 27.608C77.186 27.342 78.086 27.512 78.736 27.742C79.389 27.99 79.822 28.305 80.101 28.573C80.651 29.13 80.665 29.421 80.577 29.489C80.468 29.579 80.266 29.441 79.702 29.091C79.416 28.922 79.022 28.716 78.47 28.552C77.92 28.402 77.189 28.294 76.347 28.503C75.511 28.731 74.925 29.182 74.518 29.582C74.117 29.995 73.873 30.367 73.706 30.654C73.385 31.236 73.275 31.455 73.137 31.429Z" fill="#40235E"/>
<path d="M48.804 75.675C48.745 75.699 48.599 75.483 48.314 74.88C48.058 74.269 47.641 73.269 47.319 71.662C47.025 70.067 46.708 67.82 47.348 64.929C47.682 63.502 48.276 61.901 49.429 60.416C50.545 58.897 52.23 57.64 54.143 56.521C56.064 55.401 57.834 54.524 59.284 53.528C60.735 52.538 61.922 51.496 62.881 50.476C64.809 48.435 65.901 46.582 66.641 45.186C68.06 42.346 68.249 41.313 68.421 41.366C68.483 41.382 68.471 41.643 68.338 42.296C68.18 42.939 67.91 43.987 67.228 45.473C66.541 46.948 65.471 48.904 63.503 51.057C62.524 52.133 61.301 53.233 59.793 54.277C58.286 55.326 56.487 56.224 54.611 57.319C52.741 58.414 51.175 59.586 50.147 60.969C49.08 62.322 48.512 63.795 48.176 65.129C47.53 67.83 47.758 69.995 47.963 71.55C48.193 73.118 48.506 74.125 48.653 74.761C48.83 75.389 48.863 75.651 48.804 75.675Z" fill="#40235E"/>
<path d="M49.081 57.037C49.172 57.135 49.066 57.37 48.619 57.95C48.182 58.536 47.372 59.456 46.362 61.154C45.379 62.867 44.976 64.026 44.679 64.694C44.393 65.368 44.241 65.575 44.111 65.544C43.993 65.516 43.919 65.257 44.052 64.506C44.196 63.764 44.523 62.498 45.562 60.687C46.629 58.892 47.571 57.985 48.147 57.495C48.737 57.01 48.999 56.947 49.081 57.037Z" fill="#40235E"/>
<path d="M41.455 59.422C41.399 59.429 41.3 59.25 41.242 58.748C41.192 58.253 41.193 57.401 41.652 56.237C42.115 55.095 43.057 53.617 44.91 52.391C46.748 51.162 49.405 50.406 52.614 49.902C55.821 49.401 58.345 48.846 60.152 47.887C61.951 46.95 63.01 45.765 63.629 44.826C64.247 43.87 64.458 43.133 64.588 42.681C64.712 42.225 64.768 42.036 64.838 42.04C64.895 42.042 64.963 42.234 64.943 42.738C64.917 43.234 64.79 44.071 64.189 45.163C63.586 46.236 62.484 47.577 60.549 48.64C58.628 49.714 55.961 50.315 52.767 50.814C49.576 51.316 47.084 52.016 45.366 53.11C43.657 54.186 42.742 55.496 42.25 56.5C41.76 57.524 41.662 58.285 41.602 58.749C41.549 59.219 41.525 59.414 41.455 59.422Z" fill="#40235E"/>
<path d="M41.33 62.764C41.207 62.757 41.086 62.64 41.054 62.262C41.03 61.891 41.08 61.229 41.564 60.314C42.068 59.41 42.596 59.007 42.92 58.826C43.255 58.647 43.419 58.684 43.492 58.784C43.57 58.89 43.543 59.042 43.353 59.318C43.169 59.598 42.802 59.997 42.378 60.757C41.971 61.526 41.837 62.051 41.702 62.358C41.573 62.666 41.461 62.771 41.33 62.764Z" fill="#40235E"/>
<path d="M133.58 52.785C133.576 52.849 133.37 52.892 132.836 52.901C132.305 52.897 131.44 52.852 130.165 52.551C128.898 52.25 127.197 51.697 125.212 50.464C124.224 49.846 123.173 49.051 122.135 48.009C121.092 46.972 120.116 45.646 119.227 44.104C117.486 40.989 116.52 38.321 115.525 36.296C114.555 34.26 113.659 32.825 112.899 31.824C112.705 31.576 112.528 31.35 112.367 31.143C112.191 30.949 112.032 30.773 111.888 30.614C111.61 30.285 111.367 30.052 111.181 29.872C110.816 29.503 110.694 29.325 110.732 29.274C110.77 29.222 110.963 29.301 111.411 29.595C111.639 29.738 111.925 29.939 112.25 30.245C112.416 30.395 112.599 30.562 112.802 30.746C112.986 30.948 113.188 31.17 113.408 31.412C114.267 32.4 115.261 33.866 116.292 35.922C117.344 37.962 118.346 40.636 120.03 43.643C121.716 46.656 123.811 48.541 125.672 49.747C127.537 50.959 129.138 51.552 130.336 51.921C131.541 52.29 132.365 52.431 132.873 52.544C133.385 52.642 133.584 52.721 133.58 52.785Z" fill="#40235E"/>
<path d="M121.742 37.532C121.872 37.468 122.084 37.739 122.696 38.551C123.32 39.335 124.345 40.764 126.703 42.207C129.102 43.582 130.848 43.793 131.835 43.963C132.841 44.109 133.18 44.165 133.187 44.309C133.194 44.419 132.868 44.597 131.79 44.616C130.736 44.608 128.815 44.484 126.232 43.003C123.691 41.45 122.66 39.824 122.146 38.904C121.642 37.95 121.642 37.578 121.742 37.532Z" fill="#40235E"/>
<path d="M125.636 35.781C125.701 35.668 125.849 35.627 126.174 35.698C126.501 35.764 127.003 35.956 127.846 36.154C128.692 36.339 129.227 36.383 129.551 36.465C129.875 36.542 129.991 36.642 130.001 36.772C130.011 36.897 129.914 37.027 129.563 37.119C129.215 37.205 128.599 37.266 127.642 37.056C126.687 36.831 126.159 36.51 125.882 36.282C125.605 36.049 125.574 35.889 125.636 35.781Z" fill="#40235E"/>
<path d="M110.9 19.785C110.815 19.902 110.474 19.741 109.466 19.243C108.458 18.777 106.74 17.877 103.698 17.542C100.648 17.289 98.79 17.844 97.711 18.109C96.626 18.406 96.261 18.498 96.2 18.367C96.151 18.268 96.414 17.965 97.497 17.49C98.569 17.051 100.54 16.35 103.787 16.62C107.026 16.975 108.827 18.041 109.795 18.676C110.767 19.349 110.967 19.698 110.9 19.785Z" fill="#40235E"/>
<path d="M109.89 38.129C109.751 38.167 109.575 37.801 109.076 36.682C108.555 35.586 107.749 33.646 105.541 31.149C103.274 28.705 101.423 27.711 100.384 27.085C99.32 26.478 98.973 26.266 99.024 26.132C99.062 26.028 99.49 26.02 100.672 26.498C101.824 26.994 103.84 27.955 106.226 30.528C108.551 33.157 109.308 35.258 109.688 36.453C110.048 37.676 109.998 38.101 109.89 38.129Z" fill="#40235E"/>
<path d="M130.571 59.252C130.671 59.017 131.423 59.111 134.313 60.338C137.203 61.565 137.793 62.04 137.693 62.276C137.593 62.511 136.841 62.417 133.951 61.19C131.061 59.963 130.471 59.488 130.571 59.252Z" fill="#40235E"/>
<path d="M71.043 21.28C70.944 21.23 70.975 20.829 71.553 19.793C72.145 18.791 73.287 17.038 76.015 15.235C78.787 13.502 80.856 13.19 82.014 13.068C83.196 12.972 83.574 13.111 83.579 13.221C83.588 13.365 83.222 13.46 82.119 13.714C81.035 13.993 79.127 14.382 76.516 16.014C73.948 17.712 72.802 19.287 72.098 20.157C71.409 21.055 71.171 21.348 71.043 21.28Z" fill="#40235E"/>
<path d="M63.062 39.126C62.983 39.013 63.119 38.809 63.58 38.303C64.023 37.79 64.853 36.971 65.634 35.298C66.37 33.605 66.433 32.44 66.524 31.769C66.598 31.088 66.66 30.852 66.798 30.836C66.914 30.821 67.084 31.029 67.179 31.765C67.255 32.486 67.294 33.804 66.479 35.679C65.615 37.532 64.602 38.376 64.011 38.797C63.396 39.212 63.127 39.223 63.062 39.126Z" fill="#40235E"/>
<path d="M57.215 35.755C57.305 35.659 57.438 35.638 57.664 35.7C57.892 35.756 58.216 35.917 58.791 36.006C59.368 36.078 59.724 36.012 59.959 36.021C60.193 36.023 60.315 36.08 60.375 36.197C60.432 36.306 60.42 36.457 60.182 36.636C59.95 36.804 59.461 37.023 58.663 36.923C57.868 36.8 57.458 36.456 57.281 36.23C57.101 35.993 57.131 35.844 57.215 35.755Z" fill="#40235E"/>
<path d="M81.57 56.148C81.57 58.23 80.637 59.917 79.485 59.917C78.333 59.917 77.401 58.229 77.401 56.148C77.401 54.066 78.334 52.379 79.485 52.379C80.636 52.379 81.57 54.066 81.57 56.148Z" fill="#2A1244"/>
<path d="M105.746 59.917C106.897 59.917 107.83 58.2296 107.83 56.148C107.83 54.0664 106.897 52.379 105.746 52.379C104.595 52.379 103.662 54.0664 103.662 56.148C103.662 58.2296 104.595 59.917 105.746 59.917Z" fill="#2A1244"/>
<path d="M91.992 66.386C92.034 66.467 91.804 66.811 90.88 66.687C90.444 66.599 89.817 66.354 89.345 65.632C88.845 64.925 88.856 63.582 89.812 62.674C90.048 62.449 90.319 62.277 90.604 62.167C90.892 62.05 91.2 62.024 91.376 62.001C91.572 61.977 91.674 61.929 91.686 61.912C91.705 61.909 91.739 61.836 91.748 61.682C91.779 61.005 91.816 60.463 91.861 60.075C91.951 59.29 92.069 59.041 92.197 59.042C92.325 59.043 92.438 59.293 92.516 60.08C92.554 60.478 92.585 60.991 92.601 61.708C92.598 61.894 92.593 62.223 92.335 62.512C92.076 62.791 91.75 62.854 91.519 62.896C91.263 62.937 91.104 62.953 90.94 63.024C90.772 63.092 90.604 63.198 90.452 63.343C89.829 63.958 89.81 64.754 90.081 65.199C90.345 65.681 90.761 65.927 91.059 66.057C91.684 66.295 91.958 66.237 91.992 66.386Z" fill="#D86A82"/>
<path d="M77.695 46.219C78.153 46.337 78.609 46.496 79.083 46.496C79.556 46.496 80.066 46.296 80.278 45.872C80.496 45.435 80.329 44.882 79.996 44.524C79.663 44.166 79.198 43.964 78.74 43.795C77.757 43.432 76.736 43.17 75.7 43.015C74.955 42.904 74.189 42.849 73.454 43.015C72.719 43.181 72.014 43.592 71.631 44.241C70.902 45.473 71.54 46.639 72.894 46.405C74.555 46.116 76.002 45.783 77.695 46.219Z" fill="#40235E"/>
<path d="M101.562 45.589C102.213 46.145 103.192 45.815 104.023 45.611C105.519 45.243 107.138 45.398 108.537 46.043C108.871 46.197 109.225 46.384 109.588 46.319C109.969 46.25 110.254 45.907 110.367 45.536C110.591 44.803 110.241 43.985 109.669 43.475C109.097 42.966 108.34 42.715 107.591 42.553C105.935 42.194 104.172 42.227 102.574 42.826C101.477 43.236 100.227 44.449 101.562 45.589Z" fill="#40235E"/>
<path d="M98.441 75.706C97.096 77.373 94.882 78.777 91.596 78.777C88.918 78.777 87.12 77.789 85.954 76.468C84.121 74.385 83.847 71.504 84.109 70.469C84.537 68.767 85.18 68.838 85.18 68.838C85.228 68.85 85.275 68.862 85.323 68.886C87.93 69.624 93.62 69.814 95.893 69.124C97.048 68.779 97.976 68.791 98.678 69.112C99.392 69.41 99.868 70.029 100.118 70.886C100.381 71.766 99.929 73.885 98.441 75.706Z" fill="#A5283A"/>
<path d="M98.441 75.706C97.096 77.373 94.882 78.777 91.596 78.777C88.918 78.777 87.12 77.789 85.954 76.468C86.942 75.099 88.966 72.98 92.108 72.933C94.739 72.897 96.988 74.397 98.441 75.706Z" fill="#FF859C"/>
<path d="M98.679 69.112C98.548 70.017 98.143 71.1 96.953 71.374C94.834 71.874 86.585 71.588 85.597 71.029C84.99 70.672 85.133 69.636 85.323 68.886C87.93 69.624 93.62 69.814 95.893 69.124C97.048 68.778 97.976 68.79 98.679 69.112Z" fill="white"/>
</g>
</svg>
