<svg width="261" height="261" viewBox="0 0 261 261" fill="none" xmlns="http://www.w3.org/2000/svg">
<path d="M195.48 195.36C231.371 159.469 231.371 101.279 195.48 65.3878C159.589 29.497 101.399 29.497 65.5081 65.3878C29.6174 101.279 29.6174 159.469 65.5081 195.36C101.399 231.251 159.589 231.251 195.48 195.36Z" fill="#1D2C3A"/>
<mask id="mask0_1_789" style="mask-type:luminance" maskUnits="userSpaceOnUse" x="38" y="38" width="185" height="185">
<path d="M195.48 195.36C231.371 159.469 231.371 101.279 195.48 65.3878C159.589 29.497 101.399 29.497 65.5081 65.3878C29.6174 101.279 29.6174 159.469 65.5081 195.36C101.399 231.251 159.589 231.251 195.48 195.36Z" fill="white"/>
</mask>
<g mask="url(#mask0_1_789)">
<path d="M152.075 153.887C153.729 154.329 170.531 158.611 175.964 164.516C181.397 170.421 178.562 202.782 179.035 213.884C179.507 224.986 179.361 235.143 179.361 235.143H154.748C154.748 235.143 152.985 203.727 152.074 197.349C151.163 190.971 152.074 155.067 152.074 155.067" fill="#F26D5F"/>
<path d="M102.658 153.887C102.658 153.887 87.54 156.721 82.816 162.391C78.092 168.06 74.785 177.036 73.367 185.776C71.95 194.516 66.753 233.963 66.753 233.963H87.984L99.114 206.562L102.658 153.887Z" fill="#F26D5F"/>
<path d="M151.673 154.342C151.673 154.342 143.459 177.721 125.247 177.721C107.034 177.721 105.332 152.688 105.332 152.688C105.332 152.688 113.415 148.665 114.819 143.475C115.378 141.392 115.676 138.166 115.843 135.047C115.986 132.274 116.01 129.583 116.01 127.857C116.01 126.702 115.998 125.988 115.998 125.988L130.985 127.107L138.056 127.643C138.056 128.036 137.568 131.547 137.401 135.368C137.27 138.439 137.341 141.713 138.056 143.713C139.662 148.2 151.673 154.342 151.673 154.342Z" fill="#F26D5F"/>
<path d="M138.055 127.642C138.055 128.035 137.567 131.546 137.4 135.367C134.341 137.379 130.091 139.331 125.842 138.581C121.033 137.736 117.724 136.165 115.843 135.046C115.986 132.273 116.01 129.582 116.01 127.856L130.985 127.106L138.055 127.642Z" fill="#D34855"/>
<path d="M168.908 191.684C168.432 199.338 165.17 206.623 161.587 213.384C157.326 221.419 156.385 236.06 156.385 236.06H99.26C99.26 236.06 98.32 221.419 94.07 213.384C90.451 206.587 87.202 199.278 86.737 191.612C86.808 190.326 86.951 189.005 87.177 187.648C89.772 172.292 97.093 166.852 98.509 161.9C99.021 160.102 99.223 158.614 99.366 157.4C99.616 155.269 99.676 153.996 100.878 153.388C101.402 153.126 102.116 152.733 102.854 152.305C104.913 151.127 107.532 152.043 108.413 154.245C111.044 160.851 117.198 172.862 127.828 174.838C138.458 172.862 144.612 160.851 147.231 154.245C148.112 152.043 150.731 151.126 152.79 152.305C153.528 152.733 154.242 153.126 154.766 153.388C155.98 153.995 156.028 155.269 156.278 157.411C156.409 158.625 156.623 160.113 157.135 161.899C158.551 166.851 165.872 172.291 168.467 187.647C168.694 189.029 168.849 190.374 168.908 191.684Z" fill="#FFA859"/>
<path d="M154.044 215.585C154.002 215.729 153.042 215.507 150.033 214.859C147.025 214.258 141.933 213.098 133.531 212.868C125.126 212.755 119.992 213.707 116.962 214.185C113.928 214.71 112.96 214.893 112.924 214.748C112.897 214.646 113.807 214.238 116.835 213.544C119.857 212.898 125.043 211.829 133.55 211.944C142.054 212.176 147.193 213.454 150.186 214.223C153.182 215.04 154.074 215.484 154.044 215.585Z" fill="#ED7D4A"/>
<path d="M126.727 203.565C126.734 203.441 127.193 203.344 128.627 203.37C130.059 203.404 132.473 203.54 136.345 204.128C140.214 204.735 142.557 205.332 143.932 205.732C145.307 206.139 145.715 206.37 145.685 206.491C145.653 206.618 145.188 206.612 143.784 206.369C142.379 206.135 140.037 205.644 136.204 205.042C132.368 204.459 129.987 204.221 128.576 204.021C127.164 203.83 126.719 203.696 126.727 203.565Z" fill="#ED7D4A"/>
<path d="M102.298 183.016C102.372 182.881 102.631 183.031 103.342 182.998C103.578 182.98 103.595 182.944 103.622 182.92C103.632 182.905 103.651 182.892 103.638 182.878L103.572 182.843C103.551 182.828 103.585 182.862 103.52 182.809C103.447 182.748 103.371 182.685 103.293 182.62C103.135 182.493 102.967 182.36 102.79 182.218C102.434 181.938 102.031 181.64 101.578 181.32C99.747 180.063 98.503 179.476 97.791 179.069C97.071 178.675 96.858 178.49 96.904 178.364C96.946 178.249 97.238 178.217 98.048 178.467C98.847 178.73 100.196 179.249 102.107 180.561C102.58 180.894 102.997 181.211 103.36 181.513C103.539 181.667 103.709 181.812 103.869 181.95C104.08 182.145 104.278 182.329 104.465 182.503C104.654 182.728 104.832 182.939 104.999 183.136C105.084 183.192 104.971 183.214 104.92 183.246L104.746 183.333C104.636 183.385 104.531 183.436 104.428 183.485C103.997 183.669 103.495 183.693 103.323 183.655C102.844 183.595 102.569 183.42 102.427 183.294C102.285 183.161 102.266 183.067 102.298 183.016Z" fill="#ED7D4A"/>
<path d="M149.656 178.265C149.481 178.079 149.845 177.452 152.024 175.405C154.203 173.357 154.85 173.033 155.025 173.219C155.2 173.405 154.836 174.032 152.657 176.079C150.478 178.126 149.831 178.451 149.656 178.265Z" fill="#ED7D4A"/>
<path d="M148.124 174.062C147.881 173.982 148.074 172.738 149.751 167.662C151.428 162.586 152.014 161.472 152.257 161.552C152.5 161.632 152.307 162.876 150.63 167.952C148.952 173.028 148.366 174.142 148.124 174.062Z" fill="#ED7D4A"/>
<path d="M117.581 175.785C117.372 175.932 116.278 174.731 112.301 169.05C108.324 163.369 107.57 161.931 107.779 161.785C107.988 161.639 109.082 162.839 113.059 168.52C117.037 174.2 117.791 175.638 117.581 175.785Z" fill="#ED7D4A"/>
<path d="M143.076 233.298C143.054 233.41 142.068 233.365 139.048 232.744C136.041 232.096 130.951 230.945 123.072 227.939C115.22 224.864 110.679 222.292 108.018 220.749C105.366 219.177 104.606 218.547 104.664 218.449C104.736 218.327 105.615 218.759 108.334 220.176C111.063 221.565 115.613 224.024 123.405 227.075C131.223 230.057 136.245 231.298 139.198 232.106C142.164 232.887 143.104 233.159 143.076 233.298Z" fill="#ED7D4A"/>
<path d="M191.55 146.843C191.55 146.843 188.55 148.188 185.182 147.176C181.825 146.176 181.766 140.736 178.207 140.45C174.648 140.176 168.553 145.7 163.054 144.569C157.554 143.45 161.221 138.76 157.209 138.022C153.198 137.296 153.84 139.391 144.841 141.998C142.413 142.7 140.032 143.01 137.865 143.081C137.329 141.069 137.282 138.129 137.401 135.367C137.568 131.546 138.056 128.034 138.056 127.642L130.985 127.106L118.665 126.189L102.512 98.275C102.512 98.275 92.906 88.931 95.62 75.539C98.346 62.147 112.559 62.576 112.559 62.576C112.559 62.576 113.059 54.267 127.093 51.16C141.116 48.041 152.245 52.66 160.709 60.492C169.161 68.313 168.601 75.443 166.482 84.537C164.363 93.643 163.494 100.785 169.398 104.5C175.302 108.202 180.04 108.19 181.004 113.106C181.98 118.022 178.004 118.939 177.135 124.665C176.254 130.391 179.099 130.474 183.98 133.283C188.86 136.104 189.051 135.378 188.372 140.389C187.693 145.39 191.55 146.843 191.55 146.843Z" fill="#352335"/>
<path d="M144.362 126.884C131.479 138.829 115.087 137.269 107.972 123.135C104.274 115.789 102.772 103.385 102.032 94.854C113.034 89.465 116.589 76.079 116.589 76.079C116.589 76.079 119.344 79.008 131.724 80.483C144.104 81.946 147.113 78.913 149.58 80.236C150.218 80.572 151.105 81.108 152.066 81.701C153.307 92.482 154.874 117.138 144.362 126.884Z" fill="#F26D5F"/>
<path d="M102.658 105.956C105.793 105.956 108.335 103.414 108.335 100.279C108.335 97.1437 105.793 94.602 102.658 94.602C99.5227 94.602 96.981 97.1437 96.981 100.279C96.981 103.414 99.5227 105.956 102.658 105.956Z" fill="#F26D5F"/>
<path d="M102.658 102.953C104.135 102.953 105.332 101.756 105.332 100.279C105.332 98.8022 104.135 97.605 102.658 97.605C101.181 97.605 99.984 98.8022 99.984 100.279C99.984 101.756 101.181 102.953 102.658 102.953Z" fill="#D64C41"/>
<path d="M153.288 105.956C156.423 105.956 158.965 103.414 158.965 100.279C158.965 97.1437 156.423 94.602 153.288 94.602C150.153 94.602 147.611 97.1437 147.611 100.279C147.611 103.414 150.153 105.956 153.288 105.956Z" fill="#F26D5F"/>
<path d="M153.288 102.953C154.765 102.953 155.962 101.756 155.962 100.279C155.962 98.8022 154.765 97.605 153.288 97.605C151.811 97.605 150.614 98.8022 150.614 100.279C150.614 101.756 151.811 102.953 153.288 102.953Z" fill="#D64C41"/>
<path d="M115.88 100.279C115.88 102.1 115.021 103.577 113.961 103.577C112.901 103.577 112.042 102.1 112.042 100.279C112.042 98.458 112.901 96.981 113.961 96.981C115.02 96.981 115.88 98.458 115.88 100.279Z" fill="#231423"/>
<path d="M141.933 100.279C141.933 102.1 141.074 103.577 140.014 103.577C138.954 103.577 138.095 102.1 138.095 100.279C138.095 98.458 138.954 96.981 140.014 96.981C141.073 96.981 141.933 98.458 141.933 100.279Z" fill="#231423"/>
<path d="M128.182 110.206C128.166 110.444 127.879 110.724 126.884 110.661C126.395 110.609 125.696 110.468 124.911 109.877C124.527 109.578 124.142 109.169 123.854 108.597C123.573 108.031 123.374 107.278 123.564 106.427C123.756 105.613 124.223 104.972 124.821 104.575C125.113 104.378 125.463 104.246 125.761 104.187L125.925 104.159L125.936 104.164L125.963 104.171C126.022 104.169 126.106 104.156 126.044 103.795C125.972 103.469 125.878 103.085 125.901 102.786C125.948 102.131 126.305 102.004 126.451 102.094C126.633 102.181 126.72 102.348 126.919 102.588C127.02 102.731 127.16 102.897 127.381 103.285C127.494 103.533 127.606 103.723 127.639 104.222C127.661 104.66 127.515 105.183 127.081 105.527C126.941 105.637 126.776 105.728 126.591 105.791C126.499 105.824 126.402 105.85 126.303 105.873L126.155 105.912C126.034 105.952 125.953 105.993 125.848 106.071C125.649 106.216 125.447 106.499 125.369 106.838C125.22 107.498 125.622 108.194 126.02 108.581C126.428 108.986 126.88 109.217 127.22 109.396C127.92 109.736 128.204 109.939 128.182 110.206Z" fill="#D64C41"/>
<path d="M136.752 120.341C136.315 121.05 135.71 121.62 135.013 122.102C134.541 122.432 134.03 122.718 133.516 122.98C130.591 124.455 127.136 125.238 124.002 124.294C123.165 124.036 122.376 123.642 121.66 123.134C119.664 121.703 118.319 119.412 118.541 117.013C118.566 116.76 118.605 116.541 118.683 116.343C119.332 114.419 121.996 115.585 123.669 115.707C126.328 115.894 128.999 115.828 131.648 115.514C133.397 115.294 135.457 115.081 136.63 116.396C137.574 117.445 137.49 119.138 136.752 120.341Z" fill="#99263D"/>
<path d="M135.012 122.102C134.54 122.432 134.029 122.718 133.515 122.98C130.59 124.455 127.135 125.238 124.001 124.294C123.164 124.036 122.375 123.642 121.659 123.134C122.338 120.765 125.734 119.342 128.255 119.195C130.8 119.046 133.446 120.142 135.012 122.102Z" fill="#FF8E85"/>
<path d="M136.629 116.396C136.593 116.531 136.533 116.656 136.472 116.769C135.917 117.752 134.665 118.046 133.542 118.185C130.669 118.532 127.76 118.488 124.853 118.455C123.022 118.432 119.721 118.148 118.683 116.343C119.332 114.419 121.996 115.585 123.669 115.707C126.328 115.894 128.999 115.828 131.648 115.514C133.396 115.294 135.457 115.081 136.629 116.396Z" fill="white"/>
<path d="M119.118 90.782C119.701 93.798 115.335 90.563 113.855 90.782C112.374 91.001 110.51 91.991 109.303 92.1C108.096 92.208 106.517 91.215 108.229 89.618C109.942 88.022 112.374 87.821 115.116 88.04C117.858 88.259 118.842 89.356 119.118 90.782Z" fill="#352335"/>
<path d="M133.477 90.782C132.894 93.798 137.26 90.563 138.74 90.782C140.221 91.001 142.085 91.991 143.292 92.1C144.498 92.208 146.078 91.215 144.366 89.618C142.654 88.022 140.221 87.821 137.479 88.04C134.736 88.259 133.752 89.356 133.477 90.782Z" fill="#352335"/>
<path d="M126.316 58.864C126.333 59.009 126.033 59.111 125.15 59.404C124.292 59.717 122.746 60.194 120.856 61.861C119.017 63.57 118.406 65.116 118.072 65.896C117.814 66.702 118.072 66.918 117.946 67.024C117.904 67.063 117.79 67.058 117.635 66.872C117.479 66.691 117.35 66.285 117.433 65.752C117.52 65.211 117.757 64.601 118.161 63.804C118.578 63.022 119.224 62.103 120.232 61.177C121.242 60.251 122.226 59.712 123.034 59.355C123.846 58.997 124.506 58.849 124.995 58.768C125.981 58.623 126.306 58.755 126.316 58.864Z" fill="#2B0D2D"/>
<path d="M136.607 74.453C136.629 74.564 136.225 74.795 134.846 75.039C133.477 75.253 131.072 75.555 127.29 74.837C123.523 74.046 121.419 72.843 120.237 72.119C119.057 71.364 118.773 70.995 118.836 70.901C118.913 70.782 119.325 70.956 120.553 71.546C121.785 72.106 123.845 73.168 127.471 73.929C131.111 74.62 133.422 74.432 134.774 74.388C136.134 74.316 136.581 74.314 136.607 74.453Z" fill="#2B0D2D"/>
<path d="M131.354 72.168C131.361 72.292 131.222 72.424 130.747 72.513C130.275 72.595 129.455 72.651 128.165 72.404C126.878 72.14 126.142 71.775 125.737 71.519C125.332 71.256 125.254 71.081 125.308 70.969C125.365 70.851 125.544 70.817 125.991 70.916C126.44 71.009 127.153 71.252 128.345 71.496C129.541 71.725 130.292 71.773 130.743 71.859C131.194 71.938 131.347 72.038 131.354 72.168Z" fill="#2B0D2D"/>
<path d="M151.036 62.588C151.102 62.482 151.594 62.637 152.986 63.417C153.68 63.811 154.6 64.363 155.763 65.189C156.912 66.027 158.334 67.137 159.758 68.856C161.167 70.601 161.912 72.296 162.298 73.7C162.672 75.114 162.702 76.24 162.624 77.058C162.426 78.7 162.047 79.134 161.961 79.102C161.806 79.061 161.95 78.56 161.97 77.031C161.961 76.268 161.868 75.237 161.478 73.938C161.076 72.648 160.359 71.078 159.04 69.443C157.694 67.818 156.345 66.728 155.253 65.875C154.147 65.033 153.276 64.431 152.633 63.97C151.343 63.054 150.968 62.699 151.036 62.588Z" fill="#2B0D2D"/>
<path d="M152.817 69.16C152.949 68.979 153.728 69.16 156.013 71.285C158.238 73.473 158.454 74.242 158.279 74.382C158.059 74.566 157.533 74.076 155.373 71.954C153.157 69.892 152.643 69.388 152.817 69.16Z" fill="#2B0D2D"/>
<path d="M141.337 76.914C141.321 76.789 141.799 76.604 143.357 76.331C144.137 76.199 145.19 76.044 146.6 75.938C148.008 75.849 149.79 75.787 151.972 76.145C154.157 76.529 155.829 77.266 157.057 78.023C158.282 78.794 159.076 79.574 159.587 80.206C160.587 81.502 160.638 82.064 160.552 82.106C160.416 82.186 160.154 81.743 159.101 80.644C158.563 80.107 157.785 79.435 156.619 78.754C155.45 78.087 153.875 77.419 151.816 77.057C149.745 76.717 148.024 76.748 146.646 76.789C145.266 76.846 144.218 76.931 143.433 76.98C141.864 77.086 141.353 77.043 141.337 76.914Z" fill="#2B0D2D"/>
<path d="M147.175 66.844C147.136 66.969 146.809 66.98 145.854 66.794C144.898 66.616 143.319 66.221 140.72 65.762C138.118 65.32 136.498 65.159 135.538 65.006C134.577 64.859 134.272 64.739 134.278 64.608C134.283 64.484 134.597 64.372 135.582 64.353C136.565 64.341 138.227 64.4 140.878 64.85C143.526 65.318 145.111 65.822 146.033 66.165C146.954 66.515 147.212 66.726 147.175 66.844Z" fill="#2B0D2D"/>
<path d="M139.827 55.714C139.865 55.489 140.95 55.37 145.318 56.431C149.668 57.565 150.566 58.185 150.494 58.401C150.407 58.67 149.388 58.449 145.092 57.329C140.778 56.28 139.777 55.992 139.827 55.714Z" fill="#2B0D2D"/>
<path d="M107.587 83.669C107.467 83.658 107.36 83.306 107.452 82.216C107.572 81.142 107.84 79.268 109.176 76.575C109.846 75.247 110.56 74.205 111.337 73.531C112.108 72.847 112.875 72.559 113.443 72.452C114.615 72.28 114.955 72.615 114.924 72.7C114.903 72.857 114.542 72.788 113.608 73.086C113.148 73.252 112.544 73.543 111.916 74.158C111.281 74.766 110.649 75.714 110.002 76.995C108.73 79.558 108.376 81.315 108.098 82.327C107.846 83.352 107.721 83.682 107.587 83.669Z" fill="#2B0D2D"/>
<path d="M106.623 88.688C106.54 88.576 106.744 88.317 107.425 87.613C108.085 86.899 109.291 85.751 110.612 83.448C111.884 81.117 112.232 79.49 112.495 78.553C112.739 77.605 112.853 77.295 112.992 77.307C113.108 77.316 113.225 77.646 113.14 78.665C113.035 79.668 112.768 81.43 111.42 83.9C110.02 86.341 108.658 87.489 107.858 88.104C107.034 88.71 106.692 88.781 106.623 88.688Z" fill="#2B0D2D"/>
<path d="M105.956 71.167C105.889 71.063 105.92 70.892 106.228 70.63C106.535 70.377 107.131 70.004 108.217 69.806C109.306 69.63 109.993 69.783 110.367 69.918C110.745 70.063 110.832 70.214 110.803 70.334C110.773 70.462 110.632 70.538 110.268 70.565C109.906 70.6 109.314 70.566 108.373 70.718C107.436 70.889 106.89 71.119 106.536 71.207C106.185 71.302 106.027 71.278 105.956 71.167Z" fill="#2B0D2D"/>
<path d="M103.284 70.598C103.185 70.53 103.19 70.284 103.55 69.715C103.916 69.164 104.641 68.233 106.243 67.305C107.865 66.413 109.036 66.272 109.697 66.244C110.37 66.229 110.583 66.353 110.59 66.472C110.599 66.607 110.399 66.716 109.797 66.891C109.203 67.078 108.172 67.301 106.697 68.112C105.241 68.956 104.518 69.724 104.051 70.136C103.591 70.56 103.395 70.675 103.284 70.598Z" fill="#2B0D2D"/>
<path d="M101.049 77.736C101.177 77.8 101.09 78.141 100.793 79.144C100.526 80.142 99.968 81.854 100.123 84.693C100.353 87.526 101.136 89.148 101.535 90.101C101.964 91.055 102.097 91.381 101.979 91.462C101.888 91.527 101.564 91.335 100.959 90.412C100.389 89.494 99.444 87.786 99.199 84.756C99.033 81.72 99.74 79.9 100.18 78.914C100.654 77.918 100.95 77.684 101.049 77.736Z" fill="#2B0D2D"/>
<path d="M104.446 85.985C104.708 86.077 104.738 86.368 104.595 87.428C104.51 88.494 104.419 88.772 104.144 88.807C103.917 88.843 103.578 88.583 103.675 87.33C103.845 86.084 104.232 85.902 104.446 85.985Z" fill="#2B0D2D"/>
<path d="M177.507 120.325C177.438 120.31 177.44 120.083 177.458 119.528C177.47 118.976 177.485 118.073 177.154 116.777C176.808 115.517 176.065 113.75 174.2 112.327C173.268 111.624 172.038 111.085 170.589 110.591C169.153 110.073 167.446 109.627 165.752 108.557C164.055 107.477 162.966 105.959 162.249 104.537C161.536 103.097 161.164 101.706 160.97 100.457C160.604 97.953 160.788 96.056 160.918 94.669C161.244 91.894 161.511 91.048 161.624 91.06C161.765 91.074 161.726 91.966 161.57 94.719C161.523 96.09 161.417 97.948 161.811 100.318C162.016 101.494 162.385 102.798 163.057 104.128C163.733 105.442 164.732 106.813 166.252 107.778C167.774 108.747 169.43 109.201 170.89 109.736C172.359 110.251 173.688 110.844 174.714 111.647C176.77 113.284 177.497 115.249 177.79 116.627C178.062 118.046 177.938 119.007 177.814 119.571C177.684 120.139 177.562 120.339 177.507 120.325Z" fill="#2B0D2D"/>
<path d="M160.607 111.06C160.729 110.96 161.138 111.467 162.728 112.688C163.525 113.302 164.66 114.034 166.151 115.096C166.892 115.636 167.714 116.276 168.535 117.125C169.342 117.973 170.178 119.057 170.632 120.488C171.077 121.918 171.05 123.259 170.983 124.408C170.906 125.564 170.777 126.568 170.716 127.456C170.587 129.217 170.786 130.539 171.086 131.458C171.389 132.38 171.768 132.908 172.004 133.232C172.246 133.554 172.344 133.695 172.3 133.749C172.265 133.794 172.091 133.751 171.745 133.482C171.408 133.213 170.893 132.681 170.473 131.687C170.055 130.699 169.776 129.263 169.864 127.407C169.904 126.487 170.016 125.472 170.077 124.357C170.132 123.246 170.139 122.013 169.749 120.769C169.357 119.528 168.62 118.548 167.877 117.751C167.124 116.954 166.348 116.325 165.641 115.782C164.211 114.706 163.081 113.895 162.313 113.196C160.768 111.791 160.526 111.114 160.607 111.06Z" fill="#2B0D2D"/>
<path d="M156.006 137.7C155.963 137.747 155.818 137.69 155.504 137.448C155.216 137.188 154.755 136.72 154.34 135.837C153.935 134.959 153.597 133.656 153.717 131.951C153.806 130.234 154.52 128.2 155.63 125.934C156.745 123.663 157.591 121.86 157.937 120.311C158.308 118.769 158.3 117.565 158.186 116.694C157.906 114.952 157.499 114.462 157.656 114.377C157.706 114.324 158.342 114.691 158.83 116.579C159.042 117.517 159.119 118.84 158.769 120.497C158.445 122.168 157.566 124.088 156.464 126.333C155.364 128.584 154.693 130.453 154.566 132.021C154.412 133.587 154.655 134.77 154.945 135.589C155.591 137.219 156.142 137.575 156.006 137.7Z" fill="#2B0D2D"/>
<path d="M150 128.011C150.271 128.061 150.317 128.532 150.17 130.45C150.078 132.371 149.973 132.833 149.698 132.849C149.464 132.866 149.15 132.411 149.246 130.393C149.402 128.378 149.77 127.966 150 128.011Z" fill="#2B0D2D"/>
<path d="M164.54 125.686C164.676 125.759 164.494 126.094 164.346 127.149C164.285 127.678 164.268 128.402 164.457 129.342C164.636 130.284 165.075 131.408 165.743 132.803C166.412 134.196 166.937 135.395 167.171 136.428C167.415 137.455 167.422 138.279 167.34 138.875C167.146 140.077 166.794 140.358 166.704 140.315C166.561 140.264 166.676 139.906 166.687 138.833C166.681 138.296 166.613 137.573 166.346 136.643C166.089 135.71 165.582 134.605 164.906 133.197C164.231 131.791 163.767 130.546 163.617 129.489C163.456 128.436 163.546 127.608 163.704 127.023C164.055 125.848 164.462 125.629 164.54 125.686Z" fill="#2B0D2D"/>
<path d="M182.315 142.534C182.166 142.52 182.162 142.194 181.966 141.277C181.751 140.382 181.273 138.808 179.448 136.906C177.591 135.016 176.231 134.047 175.614 133.123C175.305 132.669 175.238 132.264 175.259 132.035C175.284 131.8 175.363 131.724 175.422 131.727C175.586 131.73 175.53 132.067 176.131 132.721C176.733 133.381 178.179 134.302 180.12 136.269C182.077 138.299 182.562 140.166 182.614 141.188C182.655 142.243 182.417 142.549 182.315 142.534Z" fill="#2B0D2D"/>
<path d="M157.262 94.249C156.986 94.262 156.835 93.779 156.537 91.73C156.183 89.69 156.177 89.185 156.443 89.111C156.668 89.045 157.081 89.454 157.451 91.585C157.762 93.724 157.496 94.241 157.262 94.249Z" fill="#2B0D2D"/>
<path d="M142.818 136.178C142.764 136.19 142.645 136.014 142.55 135.505C142.463 135.002 142.4 134.131 142.773 132.905C143.148 131.696 143.99 130.134 145.643 128.623C146.459 127.867 147.45 127.123 148.566 126.338C149.675 125.547 150.927 124.72 152.121 123.63C153.315 122.54 154.156 121.354 154.57 120.139C154.987 118.921 155.089 117.739 155.115 116.683C155.134 114.562 154.984 112.909 155.026 111.674C155.097 109.186 155.541 108.443 155.621 108.473C155.787 108.507 155.583 109.262 155.68 111.666C155.72 112.873 155.938 114.483 155.967 116.693C155.963 117.794 155.88 119.07 155.425 120.439C154.972 121.815 154.015 123.159 152.747 124.311C151.474 125.47 150.195 126.303 149.085 127.081C147.969 127.851 147.003 128.555 146.215 129.255C144.631 130.643 143.814 132.036 143.391 133.119C142.974 134.213 142.935 134.998 142.909 135.479C142.891 135.964 142.889 136.165 142.818 136.178Z" fill="#2B0D2D"/>
</g>
</svg>
