<svg width="188" height="188" viewBox="0 0 188 188" fill="none" xmlns="http://www.w3.org/2000/svg">
<path d="M93.79 187.206C145.486 187.206 187.393 145.299 187.393 93.603C187.393 41.9075 145.486 0 93.79 0C42.0945 0 0.187012 41.9075 0.187012 93.603C0.187012 145.299 42.0945 187.206 93.79 187.206Z" fill="#1D2C3A"/>
<mask id="mask0_1_2" style="mask-type:luminance" maskUnits="userSpaceOnUse" x="0" y="0" width="188" height="188">
<path d="M93.79 187.206C145.486 187.206 187.393 145.299 187.393 93.603C187.393 41.9075 145.486 0 93.79 0C42.0945 0 0.187012 41.9075 0.187012 93.603C0.187012 145.299 42.0945 187.206 93.79 187.206Z" fill="white"/>
</mask>
<g mask="url(#mask0_1_2)">
<path d="M141.927 138.815C145.7 142.446 148.428 144.719 149.792 149.114C151.156 153.509 163.886 215.284 163.886 215.284H134.183C134.183 215.284 123.272 169.724 124.636 158.51C125.999 147.296 141.927 138.815 141.927 138.815Z" fill="#3F1F44"/>
<path d="M49.235 137.698C41.438 143.204 40.074 143.416 37.801 146.871C35.528 150.326 34.467 156.09 33.103 168.211C31.739 180.332 26.435 215.284 26.435 215.284H57.047C57.047 215.284 61.139 158.055 60.836 152.751C60.532 147.447 49.235 137.698 49.235 137.698Z" fill="#3F1F44"/>
<path d="M78.96 124.11C71.157 126.798 59.388 131.384 53.595 134.718C47.803 138.052 46.893 140.022 47.045 141.992C47.197 143.962 51.356 149.335 53.595 157.484C55.834 165.633 52.5 215.285 52.5 215.285H75.535C75.535 215.285 72.395 142.368 73.938 137.699C75.481 133.03 78.96 124.11 78.96 124.11Z" fill="#68396D"/>
<path d="M111.103 124.11C118.906 126.798 130.675 131.384 136.468 134.718C142.261 138.052 143.17 140.022 143.018 141.992C142.866 143.962 138.707 149.335 136.468 157.484C134.229 165.633 137.563 215.285 137.563 215.285H114.528C114.528 215.285 117.668 142.368 116.125 137.699C114.582 133.03 111.103 124.11 111.103 124.11Z" fill="#68396D"/>
<path d="M77.257 130.687C77.257 130.687 73.36 133.253 73.36 144.366C73.36 155.479 73.36 215.285 73.36 215.285H115.038C115.038 215.285 115.038 158.066 115.038 146.872C115.038 135.678 111.676 130.687 111.676 130.687H77.257Z" fill="#00896B"/>
<path d="M73.041 133.808C73.041 133.808 76.444 141.385 83.87 146.992C91.296 152.599 95.272 152.594 95.272 152.594C95.272 152.594 102.064 150.693 109.481 143.201C116.898 135.709 118.646 127.801 118.646 127.801L98.266 119.133L73.359 128.505L73.041 133.808Z" fill="#97E8D3"/>
<path d="M111.675 130.687V133.512C111.675 133.512 108.996 138.64 104.753 142.12C100.522 145.599 94.46 148.218 94.46 148.218C94.46 148.218 88.41 145.599 84.179 142.12C79.936 138.641 77.256 133.512 77.256 133.512V130.687C77.256 130.687 79.305 128.505 80.323 125.134C80.808 123.546 80.832 119.509 80.723 115.678C80.662 113.399 80.553 111.18 80.468 109.628C80.383 108.258 80.322 107.385 80.322 107.385L94.458 107.931L108.606 107.385C108.606 107.385 108.57 107.955 108.509 108.888C108.412 110.609 108.254 113.555 108.182 116.514C108.109 120.078 108.158 123.655 108.606 125.134C109.626 128.504 111.675 130.687 111.675 130.687Z" fill="#FF7C5D"/>
<path opacity="0.54" d="M108.511 108.889C108.414 110.61 108.256 113.556 108.184 116.515C104.959 117.776 99.831 119.303 94.266 119.134C88.386 118.952 83.525 117.194 80.724 115.679C80.663 113.4 80.554 111.181 80.469 109.629L108.511 108.889Z" fill="#E23B4B"/>
<path d="M80.324 125.134C77.401 132.303 77.259 134.667 77.259 149.418C77.259 164.168 77.259 215.285 77.259 215.285H68.362C68.362 215.285 68.362 173.867 68.362 158.915C68.362 143.963 73.36 135.678 73.36 135.678C73.36 135.678 66.342 135.88 65.331 135.678C64.321 135.476 69.102 130.447 71.157 126.798C73.212 123.15 75.232 117.316 76.445 115.888C77.657 114.461 80.668 113.617 80.668 113.617C80.668 113.617 81.35 122.616 80.324 125.134Z" fill="#A771AF"/>
<path d="M108.731 125.521C111.654 132.69 111.732 134.667 111.732 149.417C111.732 164.167 111.732 215.284 111.732 215.284H120.629C120.629 215.284 120.629 173.866 120.629 158.914C120.629 143.962 115.631 135.677 115.631 135.677C115.631 135.677 122.649 135.879 123.66 135.677C124.67 135.475 119.889 130.446 117.834 126.797C115.779 123.149 113.8 117.883 112.587 116.456C111.375 115.029 108.227 114.942 108.227 114.942C108.227 114.942 107.705 123.004 108.731 125.521Z" fill="#A771AF"/>
<path d="M64.247 83.56C68.0633 83.56 71.157 80.4663 71.157 76.65C71.157 72.8337 68.0633 69.74 64.247 69.74C60.4307 69.74 57.337 72.8337 57.337 76.65C57.337 80.4663 60.4307 83.56 64.247 83.56Z" fill="#FF7C5D"/>
<path d="M67.087 76.65C67.087 78.219 65.815 79.49 64.247 79.49C62.678 79.49 61.407 78.218 61.407 76.65C61.407 75.081 62.679 73.81 64.247 73.81C65.815 73.809 67.087 75.081 67.087 76.65Z" fill="#AF4141"/>
<path d="M123.615 83.56C127.431 83.56 130.525 80.4663 130.525 76.65C130.525 72.8337 127.431 69.74 123.615 69.74C119.799 69.74 116.705 72.8337 116.705 76.65C116.705 80.4663 119.799 83.56 123.615 83.56Z" fill="#FF7C5D"/>
<path d="M126.456 76.65C126.456 78.219 125.184 79.49 123.616 79.49C122.047 79.49 120.775 78.218 120.775 76.65C120.775 75.081 122.047 73.81 123.616 73.81C125.184 73.809 126.456 75.081 126.456 76.65Z" fill="#AF4141"/>
<path d="M67.087 59.039C67.087 59.625 68.365 83.751 69.359 92.13C70.353 100.509 75.324 112.297 94.639 112.297C113.954 112.297 119.777 98.805 121.055 89.147C122.333 79.489 120.061 53.5 119.635 48.813C119.209 44.126 114.522 27.794 91.231 27.794C67.94 27.794 67.087 50.66 67.087 59.039Z" fill="#FF7C5D"/>
<path d="M127.153 56.77C124.122 54.212 121.14 51.654 123.698 52.078C126.244 52.502 127.238 53.642 128.523 51.932C129.796 50.235 131.784 48.95 127.808 43.7C123.832 38.45 119.431 35.177 119.431 35.177C119.431 35.177 122.195 33.759 121.528 29.928C120.849 26.085 117.588 23.248 110.774 23.672C103.948 24.096 101.536 23.248 98.129 22.545C94.722 21.83 91.17 24.242 91.17 24.242C91.17 24.242 91.461 20.835 92.31 18.132C93.159 15.441 90.031 12.846 86.345 16.774C82.647 20.69 79.519 21.26 74.84 23.818C70.148 26.376 70.9 29.359 71.239 30.777C71.566 32.195 71.857 33.759 71.857 33.759C71.857 33.759 68.875 32.05 66.026 33.044C63.189 34.038 61.492 33.335 59.637 33.189C57.794 33.044 56.946 35.032 58.364 37.456C59.782 39.869 62.619 40.572 62.619 40.572C59.928 40.572 57.745 42.56 57.418 47.822C57.079 53.072 58.364 54.49 56.8 58.612C55.236 62.734 53.672 61.594 53.672 63.583C53.672 65.571 54.387 66.565 56.654 68.408C58.933 70.263 59.673 71.548 59.673 71.548C59.673 71.548 62.401 70.008 65.177 71.548C67.141 72.651 68.038 74.118 68.305 76.143C68.414 76.967 68.414 77.889 68.341 78.919C68.086 82.447 65.068 83.514 65.068 83.514C65.068 83.514 64.753 86.448 64.328 90.57C63.904 94.692 64.182 96.535 66.595 99.093C69.008 101.651 71.711 100.657 72.136 105.906C72.56 111.155 75.834 109.883 79.943 112.295C84.065 114.708 83.786 115.568 86.623 115.847C89.46 116.126 92.588 114.853 98.698 114.574C104.808 114.283 106.081 114.998 108.494 114.283C110.906 113.58 111.331 112.149 114.883 110.452C118.435 108.743 119.441 108.039 120.86 107.615C122.266 107.179 120.278 104.487 124.4 99.371C128.522 94.255 127.819 92.703 126.534 90.424C125.334 88.302 121.636 83.211 120.957 79.222C120.908 78.955 120.872 78.701 120.86 78.446C120.569 74.372 121.165 71.21 122.329 70.13C123.643 68.91 127.528 70.905 127.528 70.905C127.528 70.905 127.674 70.966 127.528 68.977C127.383 66.989 125.964 65.425 125.964 65.425C125.964 65.425 129.565 64.298 130.607 61.873C131.651 59.461 130.184 59.328 127.153 56.77ZM111.732 93.868C111.356 95.42 109.065 100.39 107.428 100.681C105.804 100.984 104.021 101.057 101.572 101.796C99.123 102.536 97.195 103.651 95.353 103.724C93.498 103.797 92.237 102.087 89.497 101.651C86.757 101.202 84.745 101.348 84.078 100.608C83.411 99.868 82.308 98.68 81.568 97.42C80.816 96.159 80.15 94.086 81.568 93.201C82.974 92.316 83.193 90.752 84.902 90.316C86.599 89.867 91.267 89.104 94.977 89.055C97.28 89.019 103.136 88.679 105.719 89.431C108.313 90.182 112.096 92.316 111.732 93.868ZM118.727 84.884C118.727 84.884 117.587 85.454 116.024 86.303C114.46 87.164 114.314 87.867 113.466 87.927C112.617 87.976 106.798 84.751 103.816 84.751C100.834 84.751 97.985 85.309 94.348 85.175C90.699 85.03 87.474 85.03 83.219 85.878C78.952 86.739 75.266 89.43 75.266 89.43C75.266 89.43 74.975 88.29 73.702 87.927C72.429 87.551 71.241 86.593 71.241 86.593C71.241 86.593 71.289 85.175 71.993 81.331C72.308 79.634 72.199 77.536 71.969 75.742V75.706C71.69 73.463 71.242 71.681 71.242 71.681C71.242 71.681 75.97 72.251 76.116 69.741C76.262 67.231 72.855 65.849 73.982 60.454C75.122 55.059 78.249 54.635 78.249 54.635C78.249 54.635 79.098 57.472 80.516 57.472C81.934 57.472 80.383 54.781 82.65 53.641C84.905 52.501 88.021 54.053 91.294 43.797C91.221 44.185 91.148 45.591 93.44 46.961C96.131 48.585 97.853 48.392 101.684 50.804C105.515 53.217 104.097 54.356 105.806 54.065C107.503 53.786 106.8 49.046 106.8 49.046C106.8 49.046 107.649 48.246 110.207 50.234C112.765 52.222 111.48 53.495 112.195 56.344C112.898 59.181 114.608 58.757 114.608 58.757C114.608 58.757 114.753 61.17 114.608 63.012C114.462 64.855 113.614 64.006 114.608 66.564C115.602 69.122 116.79 67.51 116.79 67.51C116.79 67.51 116.875 68.977 116.79 73.802C116.754 75.681 117.032 77.779 117.408 79.646C117.964 82.556 118.727 84.884 118.727 84.884Z" fill="#A2554F"/>
<path d="M81.483 76.229C81.483 78.03 80.537 79.49 79.371 79.49C78.204 79.49 77.259 78.03 77.259 76.229C77.259 74.428 78.205 72.968 79.371 72.968C80.538 72.967 81.483 74.427 81.483 76.229Z" fill="#3A1313"/>
<path d="M110.831 76.229C110.831 78.03 109.885 79.49 108.719 79.49C107.552 79.49 106.607 78.03 106.607 76.229C106.607 74.428 107.553 72.968 108.719 72.968C109.886 72.967 110.831 74.427 110.831 76.229Z" fill="#3A1313"/>
<path d="M96.375 83.767C96.491 83.787 96.627 83.939 96.56 84.34C96.498 84.731 96.106 85.362 95.268 85.756C94.429 86.154 93.198 86.336 91.692 85.912C90.942 85.689 90.106 85.28 89.376 84.532C88.651 83.771 88.089 82.693 88.039 81.38C88.012 80.636 88.177 79.92 88.504 79.3C88.839 78.689 89.293 78.223 89.782 77.895C90.269 77.561 90.794 77.359 91.305 77.271L91.495 77.241C91.527 77.237 91.514 77.242 91.526 77.241C91.541 77.243 91.55 77.246 91.558 77.249L91.622 77.276C91.664 77.281 91.656 77.217 91.675 77.156C91.639 76.797 91.613 76.414 91.605 76.103C91.587 75.464 91.622 74.974 91.676 74.606C91.788 73.87 91.971 73.622 92.154 73.62C92.343 73.619 92.509 73.866 92.688 74.554C92.895 75.457 93.234 76.94 93.77 79.285C93.4 79.212 93.012 79.135 92.606 79.055C92.391 79.005 92.184 78.971 92.013 78.988L91.747 78.99L91.648 79.014C91.384 79.076 91.097 79.201 90.832 79.399C90.287 79.793 89.888 80.43 89.922 81.317C89.998 82.938 91.198 83.893 92.234 84.261C93.308 84.648 94.229 84.635 94.802 84.505C95.976 84.221 96.064 83.703 96.375 83.767Z" fill="#AF3A41"/>
<path d="M103.492 95.444C103.298 95.723 103.092 95.977 102.874 96.232C100.983 98.402 98.158 99.833 94.897 100.087C91.733 100.354 89.514 98.972 87.671 97.153C87.404 96.886 87.15 96.62 86.895 96.341C84.895 94.135 84.494 91.395 85.416 90.752C85.428 90.752 85.428 90.74 85.44 90.74V90.728C86.18 90.219 87.295 89.807 92.678 89.152C98.122 88.485 103.056 89.043 104.232 89.431C104.28 89.443 104.329 89.467 104.365 89.492C105.395 90.061 105.274 92.934 103.492 95.444Z" fill="#591522"/>
<path d="M102.874 96.232C100.983 98.402 98.158 99.833 94.897 100.087C91.733 100.354 89.514 98.972 87.671 97.153C88.386 96.304 90.29 94.765 94.606 94.486C98.291 94.243 101.189 95.347 102.874 96.232Z" fill="#ED8888"/>
<path d="M104.365 89.491C104.183 90.449 103.783 91.516 102.971 91.867C101.419 92.534 87.562 92.679 86.447 92.316C85.889 92.134 85.598 91.419 85.441 90.74V90.728C86.181 90.219 87.296 89.807 92.679 89.152C98.123 88.485 103.057 89.043 104.233 89.431C104.28 89.442 104.328 89.467 104.365 89.491Z" fill="white"/>
<path d="M84.546 66.566C84.758 68.573 82.362 68.392 80.307 68.135C78.252 67.878 75.361 69.741 74.462 69.42C73.563 69.099 73.113 67.695 73.498 66.566C73.883 65.437 77.991 64.281 80.658 64.281C83.326 64.281 84.354 64.74 84.546 66.566Z" fill="#5E2421"/>
<path d="M102.663 66.566C102.451 68.573 104.847 68.392 106.902 68.135C108.958 67.878 111.848 69.741 112.747 69.42C113.646 69.099 114.096 67.695 113.711 66.566C113.326 65.437 109.218 64.281 106.551 64.281C103.883 64.281 102.856 64.74 102.663 66.566Z" fill="#5E2421"/>
<path d="M79.644 26.856C79.705 26.982 79.504 27.17 78.901 27.667C78.34 28.18 77.24 29.022 76.442 30.962C75.735 32.936 75.987 34.298 76.06 35.055C76.175 35.828 76.198 36.102 76.068 36.155C75.959 36.201 75.713 36.019 75.412 35.213C75.161 34.429 74.751 32.889 75.562 30.623C76.478 28.398 77.814 27.529 78.526 27.115C79.29 26.719 79.594 26.748 79.644 26.856Z" fill="#682623"/>
<path d="M83.422 34.88C83.453 35.009 83.396 35.137 83.188 35.293C82.982 35.453 82.617 35.629 82.084 36.004C81.558 36.39 81.275 36.68 81.058 36.824C80.845 36.971 80.705 36.984 80.592 36.914C80.484 36.847 80.422 36.709 80.522 36.428C80.624 36.154 80.888 35.713 81.534 35.239C82.189 34.778 82.691 34.669 82.984 34.659C83.282 34.653 83.393 34.756 83.422 34.88Z" fill="#682623"/>
<path d="M111.547 29.254C111.577 29.309 111.492 29.43 111.195 29.633C110.897 29.828 110.372 30.102 109.51 30.287C108.652 30.475 107.455 30.548 105.933 30.303C104.404 30.074 102.618 29.429 100.446 28.81C98.277 28.195 96.465 28.138 95.017 28.24C93.569 28.348 92.49 28.603 91.696 28.818C90.11 29.268 89.61 29.482 89.543 29.343C89.494 29.25 89.885 28.822 91.488 28.184C92.291 27.877 93.41 27.538 94.94 27.374C96.457 27.214 98.429 27.255 100.694 27.899C102.941 28.542 104.657 29.188 106.085 29.446C107.508 29.721 108.603 29.719 109.402 29.628C111 29.417 111.47 29.097 111.547 29.254Z" fill="#682623"/>
<path d="M120.011 44.441C119.89 44.508 119.669 44.31 119.134 43.626C118.589 42.954 117.753 41.756 116.03 40.163C114.28 38.599 113.008 37.881 112.287 37.403C111.556 36.936 111.337 36.734 111.392 36.608C111.44 36.496 111.752 36.48 112.591 36.81C113.417 37.151 114.819 37.817 116.664 39.466C118.481 41.145 119.277 42.478 119.696 43.267C120.104 44.07 120.118 44.382 120.011 44.441Z" fill="#682623"/>
<path d="M95.976 39.032C95.951 39.17 95.746 39.226 95.183 39.275C94.629 39.339 93.669 39.362 92.286 39.982C90.923 40.643 90.289 41.364 89.883 41.748C89.484 42.148 89.309 42.269 89.187 42.2C89.082 42.143 89.048 41.906 89.349 41.35C89.654 40.817 90.318 39.889 91.887 39.129C93.478 38.415 94.616 38.502 95.22 38.611C95.84 38.736 96 38.915 95.976 39.032Z" fill="#682623"/>
<path d="M64.606 50.912C64.5 50.906 64.338 50.468 64.607 49.142C64.755 48.486 65.051 47.614 65.68 46.584C66.323 45.576 67.325 44.384 68.966 43.463C70.623 42.572 72.166 42.364 73.362 42.361C74.569 42.381 75.464 42.599 76.097 42.826C77.361 43.31 77.644 43.681 77.592 43.774C77.525 43.91 77.13 43.756 75.914 43.467C75.304 43.335 74.472 43.204 73.374 43.23C72.285 43.278 70.899 43.494 69.42 44.289C67.956 45.112 67.031 46.166 66.407 47.06C65.796 47.973 65.462 48.745 65.246 49.331C64.839 50.512 64.757 50.928 64.606 50.912Z" fill="#682623"/>
<path d="M72.058 53.19C71.941 53.144 71.874 52.962 71.997 52.498C72.126 52.041 72.433 51.273 73.278 50.27C74.139 49.281 74.851 48.859 75.283 48.662C75.723 48.469 75.913 48.507 75.977 48.616C76.045 48.732 75.974 48.898 75.658 49.213C75.347 49.534 74.772 49.991 73.995 50.883C73.233 51.788 72.87 52.427 72.601 52.783C72.336 53.144 72.182 53.239 72.058 53.19Z" fill="#682623"/>
<path d="M63.111 67.596C63.084 67.455 63.333 67.323 64.075 67.008C64.798 66.676 66.094 66.183 67.681 64.684C69.224 63.14 69.754 61.858 70.105 61.145C70.441 60.412 70.58 60.167 70.72 60.198C70.834 60.221 70.929 60.514 70.735 61.362C70.525 62.184 70.036 63.662 68.338 65.36C66.593 67.01 65.103 67.458 64.275 67.644C63.421 67.813 63.13 67.71 63.111 67.596Z" fill="#682623"/>
<path d="M59.926 63.947C59.943 63.815 60.065 63.719 60.394 63.653C60.722 63.58 61.262 63.553 62.109 63.357C62.953 63.145 63.445 62.922 63.77 62.837C64.093 62.746 64.245 62.775 64.32 62.885C64.392 62.989 64.373 63.156 64.105 63.413C63.837 63.662 63.309 64.027 62.33 64.273C61.347 64.501 60.711 64.417 60.358 64.319C60.002 64.213 59.91 64.073 59.926 63.947Z" fill="#682623"/>
<path d="M126.619 59.38C126.632 59.489 126.22 59.719 124.831 59.739C124.139 59.736 123.201 59.645 122.014 59.292C120.841 58.922 119.396 58.276 117.957 57.001C116.536 55.705 115.74 54.337 115.248 53.21C114.771 52.067 114.581 51.144 114.505 50.457C114.377 49.074 114.562 48.64 114.672 48.641C114.821 48.638 114.878 49.071 115.162 50.342C115.315 50.974 115.558 51.815 116.04 52.854C116.537 53.878 117.291 55.118 118.587 56.301C119.901 57.464 121.213 58.082 122.285 58.468C123.369 58.837 124.231 58.99 124.876 59.075C126.169 59.221 126.606 59.232 126.619 59.38Z" fill="#682623"/>
<path d="M118.304 59.369C118.405 59.274 118.605 59.346 119.084 59.654C119.567 59.946 120.333 60.522 121.781 60.991C123.241 61.423 124.198 61.381 124.762 61.413C125.33 61.43 125.537 61.484 125.566 61.619C125.593 61.737 125.44 61.915 124.837 62.075C124.244 62.218 123.149 62.379 121.502 61.891C119.868 61.362 119.056 60.61 118.647 60.157C118.24 59.685 118.215 59.451 118.304 59.369Z" fill="#682623"/>
<path d="M105.711 48.792C105.569 48.793 105.48 48.544 105.317 47.812C105.136 47.093 104.918 45.831 103.885 44.089C102.806 42.375 101.783 41.605 101.225 41.116C100.648 40.637 100.468 40.444 100.533 40.318C100.586 40.213 100.874 40.193 101.594 40.561C102.289 40.938 103.501 41.71 104.689 43.598C105.826 45.516 105.961 46.947 105.979 47.738C105.978 48.546 105.829 48.793 105.711 48.792Z" fill="#682623"/>
<path d="M97.685 47.094C97.865 46.859 98.401 47.176 100.646 48.468C102.938 49.676 103.492 49.96 103.389 50.238C103.318 50.45 102.596 50.561 100.191 49.294C97.835 47.936 97.544 47.266 97.685 47.094Z" fill="#682623"/>
<path d="M84.503 51.393C84.313 51.215 84.374 50.842 85.299 49.86C86.224 48.878 86.592 48.795 86.781 48.973C86.971 49.151 86.91 49.524 85.985 50.506C85.06 51.488 84.692 51.572 84.503 51.393Z" fill="#682623"/>
<path d="M73.682 26.388C73.646 26.253 73.972 26.069 75.01 25.635C76.037 25.185 77.819 24.526 80.393 22.882C82.94 21.197 84.266 19.836 85.094 19.08C85.911 18.307 86.212 18.084 86.321 18.172C86.415 18.247 86.299 18.618 85.586 19.53C84.864 20.422 83.556 21.92 80.907 23.672C78.23 25.381 76.331 25.969 75.222 26.267C74.099 26.548 73.713 26.504 73.682 26.388Z" fill="#682623"/>
<path d="M62.654 36.366C62.592 36.152 62.877 35.721 64.427 35.735C65.973 35.856 66.22 36.31 66.139 36.518C66.048 36.796 65.704 36.777 64.386 36.677C63.064 36.661 62.72 36.651 62.654 36.366Z" fill="#682623"/>
<path d="M72.491 98.965C72.402 99.045 72.119 98.946 71.543 98.317C70.991 97.687 70.074 96.505 69.436 94.246C68.849 91.974 69.045 90.491 69.204 89.668C69.385 88.835 69.579 88.606 69.696 88.631C69.834 88.658 69.872 88.935 69.867 89.739C69.881 90.536 69.804 91.898 70.346 94C70.937 96.089 71.691 97.226 72.08 97.922C72.489 98.614 72.596 98.872 72.491 98.965Z" fill="#682623"/>
<path d="M75.081 96.982C74.992 97.074 74.872 97.13 74.694 97.054C74.522 96.979 74.275 96.763 74.113 96.295C73.961 95.824 74.029 95.502 74.121 95.339C74.217 95.172 74.347 95.144 74.473 95.164C74.755 95.212 74.84 95.402 75.007 95.996C75.231 96.571 75.278 96.775 75.081 96.982Z" fill="#682623"/>
<path d="M119.272 101.555C119.14 101.519 119.13 101.171 119.274 100.141C119.404 99.111 119.727 97.392 119.802 94.572C119.841 91.75 119.586 90.021 119.498 88.986C119.395 87.951 119.419 87.603 119.552 87.573C119.672 87.545 119.879 87.839 120.154 88.869C120.414 89.896 120.784 91.674 120.744 94.592C120.667 97.508 120.225 99.27 119.924 100.286C119.609 101.302 119.39 101.587 119.272 101.555Z" fill="#682623"/>
<path d="M117.128 101.401C117.002 101.359 116.932 101.217 116.94 100.866C116.943 100.514 117.039 99.955 117.085 99.039C117.117 98.123 117.068 97.557 117.094 97.206C117.115 96.856 117.197 96.72 117.326 96.688C117.45 96.658 117.598 96.738 117.75 97.085C117.896 97.43 118.063 98.053 118.027 99.078C117.977 100.102 117.758 100.708 117.584 101.04C117.403 101.374 117.249 101.442 117.128 101.401Z" fill="#682623"/>
<path d="M86.891 111.168C86.856 111.287 86.494 111.325 85.444 111.051C84.92 110.909 84.224 110.682 83.342 110.267C82.471 109.841 81.387 109.224 80.311 108.126C79.243 107.001 78.703 105.834 78.434 104.87C78.175 103.896 78.178 103.116 78.259 102.557C78.455 101.433 78.774 101.169 78.869 101.208C79.015 101.256 78.935 101.601 78.924 102.602C78.932 103.102 78.996 103.776 79.266 104.621C79.546 105.456 80.047 106.478 80.99 107.472C81.957 108.459 82.938 109.052 83.737 109.494C84.546 109.926 85.19 110.208 85.669 110.424C86.63 110.847 86.929 111.038 86.891 111.168Z" fill="#682623"/>
<path d="M91.108 112.999C90.982 113.052 90.818 112.923 90.493 112.477C90.16 112.04 89.681 111.252 88.61 110.238C87.517 109.248 86.696 108.83 86.235 108.531C85.766 108.241 85.625 108.087 85.668 107.958C85.706 107.841 85.92 107.768 86.497 107.918C87.062 108.077 88.037 108.446 89.251 109.547C90.441 110.673 90.883 111.618 91.084 112.169C91.278 112.734 91.222 112.952 91.108 112.999Z" fill="#682623"/>
<path d="M106.24 111.616C106.151 111.511 106.397 111.179 107.248 110.262C108.078 109.331 109.574 107.834 111.442 104.993C112.35 103.561 113.043 102.351 113.391 101.365C113.747 100.371 113.754 99.585 113.662 99.014C113.444 97.879 113.097 97.587 113.229 97.479C113.272 97.437 113.397 97.458 113.606 97.646C113.811 97.832 114.11 98.201 114.311 98.864C114.515 99.515 114.575 100.495 114.216 101.636C113.859 102.785 113.169 104.024 112.233 105.505C110.302 108.443 108.674 109.918 107.707 110.745C106.716 111.559 106.319 111.71 106.24 111.616Z" fill="#682623"/>
<path d="M104.181 109.259C104.056 109.237 103.949 109.115 103.951 108.767C103.958 108.425 104.064 107.829 104.571 107.031C105.094 106.243 105.594 105.904 105.904 105.758C106.222 105.615 106.377 105.663 106.448 105.768C106.523 105.878 106.501 106.026 106.322 106.277C106.148 106.532 105.801 106.882 105.362 107.543C104.937 108.213 104.758 108.672 104.596 108.935C104.438 109.202 104.312 109.283 104.181 109.259Z" fill="#682623"/>
<path d="M98.878 110.62C98.759 110.667 98.615 110.64 98.456 110.417C98.303 110.195 98.117 109.764 98.107 109.032C98.111 108.299 98.293 107.867 98.445 107.644C98.603 107.419 98.746 107.392 98.866 107.438C99.145 107.544 99.095 107.857 99.05 109.029C99.104 110.199 99.157 110.512 98.878 110.62Z" fill="#682623"/>
</g>
</svg>
