<svg width="188" height="188" viewBox="0 0 188 188" fill="none" xmlns="http://www.w3.org/2000/svg">
<path d="M93.603 187.716C145.299 187.716 187.206 145.809 187.206 94.113C187.206 42.4175 145.299 0.51001 93.603 0.51001C41.9075 0.51001 0 42.4175 0 94.113C0 145.809 41.9075 187.716 93.603 187.716Z" fill="#1D2C3A"/>
<mask id="mask0_1_496" style="mask-type:luminance" maskUnits="userSpaceOnUse" x="0" y="0" width="188" height="188">
<path d="M93.603 187.716C145.299 187.716 187.206 145.809 187.206 94.113C187.206 42.4175 145.299 0.51001 93.603 0.51001C41.9075 0.51001 0 42.4175 0 94.113C0 145.809 41.9075 187.716 93.603 187.716Z" fill="white"/>
</mask>
<g mask="url(#mask0_1_496)">
<path d="M49.272 203.469L47.732 206.573L44.556 212.986L28.856 244.641H4.815L15.447 204.803L18.332 193.977L27.643 159.073C27.643 159.073 36.129 169.33 41.391 181.453C46.641 193.576 49.272 203.469 49.272 203.469Z" fill="#E2816D"/>
<path d="M185.419 244.64H161.378L144.575 210.743L140.974 203.469C140.974 203.469 141.18 202.681 141.592 201.287C142.659 197.723 145.072 190.17 148.854 181.453C154.103 169.33 162.59 159.073 162.59 159.073L171.052 190.776L173.028 198.196L185.419 244.64Z" fill="#E2816D"/>
<path d="M147.176 144.145C154.541 146.492 162.422 152.803 164.846 159.067C167.27 165.331 175.959 188.117 176.363 191.147C176.767 194.178 165.048 202.058 155.955 204.685C146.862 207.312 136.881 207.168 136.76 206.503C136.638 205.839 132.719 190.944 132.719 190.944C132.719 190.944 137.164 163.262 141.205 154.776C145.247 146.29 147.176 144.145 147.176 144.145Z" fill="#8AA6FF"/>
<path d="M39.424 144.145C32.445 148.147 27.408 152.068 25.163 159.595C22.918 167.122 13.807 193.664 13.147 195.512C12.487 197.361 25.295 203.303 32.294 206.208C39.293 209.113 48.477 212.734 51.045 212.678C53.613 212.622 55.271 208.188 55.271 208.188C55.271 208.188 57.78 173.063 55.271 163.292C52.761 153.521 45.791 140.495 39.424 144.145Z" fill="#8AA6FF"/>
<path d="M134.516 220.446C134.116 226.774 138.142 244.641 138.142 244.641H50.999C50.999 244.641 55.133 227.595 54.745 221.267C54.345 214.926 51.314 198.026 46.295 184.424C41.276 170.821 39.421 144.15 39.421 144.15L62.577 133.578C62.577 133.578 63.983 137.542 66.36 139.131C68.736 140.719 93.299 140.586 93.299 140.586C93.299 140.586 117.861 140.719 120.237 139.131C122.613 137.543 124.02 133.578 124.02 133.578L147.176 144.15C147.176 144.15 145.333 170.822 140.314 184.424C135.293 198.025 134.904 214.105 134.516 220.446Z" fill="#5978FB"/>
<path d="M132.633 135.88C130.366 142.5 122.158 159.072 96.966 159.072C72.671 159.072 63.032 143.566 59.904 136.498L63.153 135.055L79.289 127.89C82.174 126.617 84.029 123.756 84.029 120.604V103.073H109.901V120.604C109.901 123.756 111.756 126.617 114.641 127.89L129.553 134.509L132.633 135.88Z" fill="#E2816D"/>
<path d="M109.902 103.122V108.626C106.35 110.432 97.293 114.179 84.03 113.742V103.789L109.902 103.122Z" fill="#C64F63"/>
<path d="M132.005 132.68C132.823 132.976 133.272 133.853 133.022 134.686C132.918 135.033 132.79 135.434 132.633 135.88C130.366 142.5 122.158 159.072 96.966 159.072C72.671 159.072 63.032 143.566 59.904 136.498C59.603 135.817 59.363 135.214 59.176 134.71C58.846 133.821 59.346 132.844 60.256 132.576L60.397 132.534C61.182 132.302 62.012 132.681 62.354 133.425C62.56 133.873 62.825 134.424 63.154 135.055C66.524 141.517 76.526 156.429 96.966 156.429C118 156.429 126.887 140.632 129.554 134.51C129.695 134.18 129.818 133.878 129.924 133.609C130.25 132.785 131.172 132.379 132.005 132.68Z" fill="#8AA6FF"/>
<g opacity="0.53">
<path d="M126.564 166.315C126.621 166.347 126.433 166.801 125.861 167.917C125.288 169.034 124.331 170.815 122.829 173.493C121.321 176.168 119.274 179.745 116.374 184.367C113.442 188.962 109.684 194.65 104.192 201.039C98.657 207.395 93.409 211.821 88.926 214.959C84.411 218.066 80.69 219.942 77.85 221.143C74.997 222.323 73.054 222.929 71.833 223.234C70.612 223.543 70.129 223.623 70.112 223.561C70.095 223.498 70.544 223.298 71.724 222.884C72.904 222.474 74.796 221.777 77.581 220.533C80.354 219.268 83.993 217.356 88.426 214.248C92.828 211.109 97.998 206.717 103.48 200.421C108.923 194.089 112.682 188.45 115.642 183.899C118.57 179.322 120.673 175.786 122.253 173.157C123.827 170.525 124.872 168.794 125.543 167.734C126.213 166.674 126.508 166.282 126.564 166.315Z" fill="#344FA5"/>
</g>
<g opacity="0.53">
<path d="M154.471 161.958C154.597 162.041 154.136 162.848 152.714 165.376C151.334 167.916 148.866 172.168 146.274 179.649C143.784 187.164 143.158 192.04 142.709 194.896C142.301 197.768 142.176 198.688 142.025 198.678C141.916 198.672 141.805 197.737 142.046 194.82C142.329 191.921 142.858 186.959 145.381 179.347C148.007 171.77 150.603 167.509 152.141 165.036C153.725 162.571 154.381 161.897 154.471 161.958Z" fill="#344FA5"/>
</g>
<g opacity="0.53">
<path d="M152.76 178.567C152.816 178.687 152.755 178.839 152.472 179.084C152.192 179.334 151.683 179.665 150.924 180.289C150.174 180.923 149.755 181.364 149.46 181.594C149.168 181.827 149.007 181.861 148.899 181.784C148.795 181.71 148.763 181.54 148.937 181.181C149.114 180.827 149.494 180.264 150.32 179.565C151.156 178.878 151.778 178.606 152.159 178.496C152.545 178.389 152.706 178.451 152.76 178.567Z" fill="#344FA5"/>
</g>
<g opacity="0.53">
<path d="M39.525 176.787C39.621 176.722 40.094 177.153 41.187 178.794C42.25 180.442 44.021 183.3 45.817 188.394C47.545 193.512 47.913 196.853 48.093 198.806C48.245 200.772 48.139 201.403 48.023 201.411C47.88 201.422 47.75 200.808 47.432 198.889C47.087 196.981 46.622 193.724 44.927 188.702C43.164 183.703 41.522 180.853 40.617 179.137C39.683 177.43 39.406 176.866 39.525 176.787Z" fill="#344FA5"/>
</g>
<g opacity="0.53">
<path d="M32.119 182.57C32.177 182.456 32.471 182.467 33.256 182.791C34.038 183.118 35.324 183.748 37.269 185.003C39.208 186.269 40.306 187.186 40.924 187.767C41.539 188.353 41.669 188.616 41.589 188.716C41.506 188.819 41.228 188.739 40.516 188.294C39.801 187.853 38.661 187.037 36.756 185.793C34.845 184.56 33.634 183.851 32.941 183.378C32.245 182.91 32.059 182.688 32.119 182.57Z" fill="#344FA5"/>
</g>
<path d="M133.409 71.65C133.409 74.754 130.899 77.263 127.796 77.263C126.85 77.263 125.953 77.021 125.177 76.608V81.227C125.177 98.588 114.351 108.626 96.262 108.626C78.174 108.626 72.755 101.231 70.378 93.569C69.444 90.55 69.02 83.725 68.85 76.56C68.05 77.008 67.116 77.263 66.134 77.263C63.03 77.263 60.521 74.754 60.521 71.65C60.521 68.546 63.031 66.037 66.134 66.037C67.08 66.037 67.977 66.267 68.753 66.692C68.765 59.527 68.923 53.829 68.923 53.829C68.923 39.96 81.204 28.079 96.965 28.079C112.726 28.079 125.176 36.262 125.176 49.598V66.692C125.952 66.28 126.849 66.037 127.795 66.037C130.9 66.037 133.409 68.546 133.409 71.65Z" fill="#E2816D"/>
<path d="M68.755 66.691C70.119 67.161 70.251 65.84 70.251 64.388C70.251 62.935 70.251 58.842 70.251 55.937C70.251 53.032 70.647 50.259 76.853 48.41C83.059 46.561 90.85 44.845 98.905 44.713C106.96 44.581 115.411 48.542 118.316 50.259C121.221 51.976 122.674 55.013 123.202 59.37C123.73 63.728 122.352 67.78 124.97 67.125C127.589 66.47 128.017 65.866 130.061 66.515C130.061 66.515 132.577 62.935 132.445 57.653C132.313 52.371 129.144 48.542 129.144 48.542C129.144 48.542 132.191 41.808 132.45 36.658C132.709 31.508 128.748 34.149 128.748 34.149C128.748 34.149 128.22 25.434 125.183 21.869C122.146 18.304 120.165 23.321 120.165 23.321C120.165 23.321 120.429 21.554 118.845 20.589C117.26 19.624 116.072 21.604 116.072 21.604C116.072 21.604 115.544 10.38 111.979 9.05899C108.414 7.73899 108.15 9.19101 105.905 13.945C103.66 18.699 97.718 22.924 92.568 23.584C87.418 24.244 84.645 24.244 84.645 24.244C84.645 24.244 87.682 20.547 84.381 20.679C81.08 20.811 73.025 24.119 69.327 28.077C65.63 32.035 66.95 38.241 66.95 38.241C66.95 38.241 65.101 33.751 63.517 30.186C61.932 26.621 59.379 30.846 60.524 34.015C61.669 37.184 64.574 41.674 64.574 41.674C64.574 41.674 58.236 40.486 56.651 42.202C55.066 43.919 56.255 44.843 58.368 45.635C60.481 46.427 61.537 46.031 61.537 46.031C61.537 46.031 59.292 47.219 59.424 52.898C59.556 58.576 61.405 59.897 62.725 61.877C64.046 63.858 64.387 66.316 64.387 66.316L68.755 66.691Z" fill="#29B68D"/>
<path d="M109.527 32.199C109.44 32.091 109.592 31.844 110.154 31.216C110.702 30.579 111.705 29.575 112.912 27.642C114.085 25.688 114.523 24.338 114.84 23.56C115.144 22.774 115.296 22.526 115.431 22.554C115.551 22.578 115.631 22.873 115.482 23.739C115.319 24.593 114.957 26.065 113.716 28.133C112.439 30.179 111.292 31.171 110.606 31.705C109.902 32.232 109.603 32.294 109.527 32.199Z" fill="#1D6660"/>
<path d="M125.585 40.37C125.508 40.258 125.565 40.092 125.833 39.761C126.093 39.425 126.592 38.931 127.156 37.957C127.697 36.971 127.862 36.288 128.016 35.892C128.161 35.491 128.274 35.356 128.409 35.365C128.533 35.372 128.657 35.52 128.675 35.993C128.683 36.457 128.602 37.284 127.977 38.421C127.327 39.543 126.661 40.04 126.26 40.273C125.846 40.502 125.655 40.472 125.585 40.37Z" fill="#1D6660"/>
<path d="M122.684 43.038C122.553 42.788 122.698 42.566 123.384 41.958C124.031 41.308 124.26 41.175 124.502 41.321C124.707 41.433 124.833 41.832 124.031 42.644C123.175 43.398 122.785 43.249 122.684 43.038Z" fill="#1D6660"/>
<path d="M71.464 32.937C71.582 33.018 71.436 33.362 70.977 34.379C70.753 34.889 70.458 35.575 70.183 36.517C69.91 37.456 69.642 38.657 69.61 40.163C69.55 43.209 70.429 44.92 71.082 45.723C71.761 46.532 72.118 46.688 72.045 46.832C72.02 46.92 71.536 46.999 70.595 46.177C69.684 45.368 68.592 43.381 68.668 40.142C68.702 38.523 69.018 37.239 69.356 36.251C69.697 35.26 70.076 34.561 70.389 34.064C71.028 33.077 71.369 32.87 71.464 32.937Z" fill="#1D6660"/>
<path d="M79.96 38.217C80.015 38.349 79.823 38.522 79.233 38.947C78.663 39.384 77.62 40.071 76.532 41.709C75.493 43.378 75.299 44.612 75.138 45.312C74.995 46.025 74.917 46.272 74.774 46.276C74.657 46.282 74.496 46.045 74.474 45.252C74.472 44.479 74.58 43.058 75.74 41.199C76.952 39.374 78.201 38.686 78.905 38.368C79.635 38.06 79.917 38.109 79.96 38.217Z" fill="#1D6660"/>
<path d="M67.942 52.333C67.82 52.337 67.679 52.222 67.636 51.808C67.603 51.408 67.664 50.648 68.34 49.727C69.043 48.827 69.757 48.562 70.152 48.485C70.562 48.413 70.712 48.518 70.741 48.637C70.775 48.77 70.684 48.898 70.406 49.101C70.137 49.311 69.645 49.589 69.092 50.296C68.562 51.02 68.428 51.569 68.299 51.885C68.178 52.207 68.079 52.329 67.942 52.333Z" fill="#1D6660"/>
<path d="M64.989 49.704C64.866 49.671 64.767 49.558 64.777 49.263C64.792 48.973 64.909 48.481 65.366 47.833C65.835 47.194 66.264 46.927 66.535 46.821C66.812 46.717 66.95 46.775 67.021 46.882C67.094 46.992 67.085 47.132 66.943 47.349C66.803 47.569 66.519 47.858 66.132 48.384C65.755 48.918 65.572 49.279 65.408 49.482C65.247 49.686 65.117 49.738 64.989 49.704Z" fill="#1D6660"/>
<path d="M63.783 37.583C63.676 37.651 63.502 37.613 63.227 37.297C62.959 36.981 62.568 36.381 62.254 35.288C61.956 34.19 61.98 33.474 62.045 33.065C62.116 32.652 62.245 32.529 62.372 32.532C62.505 32.535 62.613 32.663 62.711 33.04C62.815 33.416 62.894 34.046 63.162 35.035C63.445 36.02 63.705 36.599 63.81 36.975C63.921 37.347 63.895 37.512 63.783 37.583Z" fill="#1D6660"/>
<path d="M59.337 42.93C59.278 42.707 59.488 42.329 60.655 42.382C61.815 42.523 61.959 42.931 61.863 43.141C61.757 43.405 61.493 43.429 60.576 43.321C59.654 43.276 59.398 43.208 59.337 42.93Z" fill="#1D6660"/>
<path d="M86.11 28.637C86.104 28.481 86.708 28.408 88.552 28.091C90.366 27.732 93.554 27.216 98.006 24.713C102.396 22.102 104.434 19.597 105.649 18.203C106.843 16.763 107.208 16.276 107.34 16.359C107.429 16.412 107.268 17.024 106.178 18.609C105.069 20.142 103.028 22.824 98.478 25.529C93.864 28.123 90.522 28.556 88.64 28.752C86.722 28.906 86.111 28.741 86.11 28.637Z" fill="#1D6660"/>
<path d="M81.559 28.383C81.465 28.3 81.436 28.136 81.636 27.836C81.837 27.547 82.282 27.086 83.212 26.763C84.15 26.464 84.783 26.568 85.117 26.679C85.457 26.8 85.532 26.949 85.507 27.071C85.48 27.203 85.357 27.287 85.055 27.342C84.755 27.405 84.262 27.418 83.51 27.657C82.765 27.916 82.362 28.199 82.084 28.329C81.808 28.467 81.659 28.473 81.559 28.383Z" fill="#1D6660"/>
<path d="M112.57 24.306C112.631 24.329 112.618 24.524 112.481 25.001C112.325 25.468 112.04 26.227 111.358 27.238C110.676 28.242 109.592 29.497 107.867 30.785C106.151 32.077 103.763 33.334 100.716 34.474C97.67 35.618 95.211 36.454 93.32 37.314C91.417 38.158 90.079 38.945 89.217 39.692C88.348 40.431 87.939 41.068 87.692 41.464C87.447 41.865 87.355 42.036 87.284 42.013C87.231 41.998 87.202 41.79 87.359 41.31C87.517 40.838 87.883 40.068 88.767 39.201C89.641 38.325 91.039 37.428 92.958 36.525C94.877 35.6 97.368 34.725 100.38 33.594C103.394 32.465 105.683 31.283 107.358 30.082C109.034 28.888 110.105 27.749 110.82 26.846C111.534 25.937 111.895 25.259 112.147 24.852C112.378 24.435 112.509 24.283 112.57 24.306Z" fill="#1D6660"/>
<path d="M104.792 29.787C104.723 29.67 104.85 29.475 105.33 29.045C105.801 28.607 106.655 27.951 107.778 26.632C108.877 25.294 109.372 24.337 109.719 23.796C110.057 23.247 110.227 23.087 110.354 23.135C110.47 23.178 110.523 23.42 110.326 24.071C110.121 24.711 109.683 25.798 108.5 27.238C107.293 28.657 106.3 29.28 105.707 29.595C105.102 29.902 104.855 29.893 104.792 29.787Z" fill="#1D6660"/>
<path d="M112.673 42.016C112.592 41.906 112.761 41.656 113.389 41.033C114.007 40.402 115.117 39.417 116.607 37.543C118.07 35.648 118.76 34.334 119.225 33.584C119.679 32.825 119.882 32.601 120.008 32.654C120.122 32.701 120.138 33.015 119.826 33.872C119.504 34.719 118.876 36.147 117.349 38.125C115.794 40.081 114.558 41.033 113.813 41.548C113.055 42.056 112.746 42.116 112.673 42.016Z" fill="#1D6660"/>
<path d="M103.994 40.708C103.99 40.411 104.355 40.335 105.755 39.963C107.128 39.499 107.474 39.36 107.635 39.61C107.704 39.717 107.695 39.87 107.477 40.094C107.259 40.312 106.827 40.618 106.027 40.865C105.224 41.101 104.695 41.085 104.393 41.024C104.087 40.959 103.995 40.836 103.994 40.708Z" fill="#1D6660"/>
<path d="M130.277 54.758C130.4 54.761 130.53 55.001 130.544 55.767C130.544 56.525 130.462 57.846 129.697 59.805C128.897 61.75 128.044 62.763 127.52 63.31C126.98 63.854 126.721 63.938 126.63 63.855C126.528 63.763 126.612 63.52 126.995 62.899C127.365 62.273 128.073 61.273 128.822 59.454C129.537 57.622 129.715 56.409 129.88 55.701C130.033 54.988 130.14 54.754 130.277 54.758Z" fill="#1D6660"/>
<path d="M125.946 58.825C125.727 58.626 125.931 58.29 126.695 56.942C127.376 55.55 127.538 55.192 127.826 55.26C127.951 55.289 128.048 55.411 128.044 55.738C128.036 56.062 127.933 56.604 127.529 57.382C127.115 58.155 126.726 58.545 126.463 58.735C126.196 58.924 126.04 58.911 125.946 58.825Z" fill="#1D6660"/>
<path d="M81.443 72.815C81.443 75.057 80.478 76.875 79.289 76.875C78.099 76.875 77.135 75.057 77.135 72.815C77.135 70.573 78.099 68.755 79.289 68.755C80.479 68.756 81.443 70.573 81.443 72.815Z" fill="#1D2C3A"/>
<path d="M112.645 72.815C112.645 75.057 111.681 76.875 110.491 76.875C109.301 76.875 108.337 75.057 108.337 72.815C108.337 70.573 109.302 68.755 110.491 68.755C111.681 68.756 112.645 70.573 112.645 72.815Z" fill="#1D2C3A"/>
<path d="M94.617 84.08C94.664 84.148 94.364 84.6 93.051 84.582C92.423 84.537 91.483 84.318 90.68 83.4C89.926 82.523 89.398 80.827 90.385 79.176C90.834 78.477 91.465 78.025 92.078 77.77C92.639 77.502 93.53 77.471 93.323 77.503C93.323 77.503 93.327 77.493 93.329 77.486C93.331 77.479 93.334 77.497 93.33 77.359C93.325 77.16 93.321 76.97 93.317 76.79C93.313 76.43 93.31 76.107 93.306 75.817C93.305 75.239 93.317 74.796 93.338 74.463C93.381 73.796 93.463 73.566 93.564 73.561C93.665 73.556 93.77 73.776 93.881 74.436C93.936 74.765 93.993 75.205 94.051 75.78C94.077 76.068 94.107 76.39 94.139 76.749C94.174 77.253 94.212 77.81 94.254 78.423C93.126 78.355 92.962 78.424 92.439 78.626C91.978 78.826 91.505 79.177 91.179 79.685C90.46 80.862 90.818 82.189 91.353 82.855C91.908 83.56 92.629 83.814 93.135 83.924C94.187 84.097 94.568 83.918 94.617 84.08Z" fill="#A03D52"/>
<path d="M105.634 92.539C105.561 93.763 105.064 95.146 104.009 96.346C102.518 98.068 99.911 99.413 95.862 99.413C91.74 99.413 89.315 98.346 87.848 96.916C86.854 95.97 86.284 94.855 85.92 93.788C85.241 91.836 85.241 89.533 86.538 88.611C87.011 88.259 87.653 88.114 88.49 88.223C91.387 88.623 97.849 88.635 101.329 88.223C102.869 88.041 103.911 88.284 104.59 88.853V88.865C105.465 89.592 105.731 90.866 105.634 92.539Z" fill="#562433"/>
<path d="M104.01 96.345C102.519 98.067 99.912 99.412 95.863 99.412C91.741 99.412 89.316 98.345 87.849 96.915C88.831 95.497 91.292 92.781 95.56 93.035C99.524 93.266 102.531 95.169 104.01 96.345Z" fill="#F4699B"/>
<path d="M104.592 88.853V88.865C104.374 91.472 104.059 91.12 102.07 91.374C100.082 91.617 88.904 91.701 87.328 90.792C86.516 90.319 86.431 89.398 86.54 88.61C87.013 88.258 87.655 88.113 88.492 88.222C91.389 88.622 97.851 88.634 101.331 88.222C102.87 88.041 103.913 88.283 104.592 88.853Z" fill="white"/>
<path d="M73.499 65.123C73.499 65.123 75.185 63.04 77.963 63.04C80.741 63.04 83.022 64.925 84.51 65.123C85.998 65.321 86.531 62.941 85.471 61.75C84.411 60.56 81.534 59.369 78.36 59.568C75.186 59.767 73.003 60.659 72.011 61.85C71.019 63.041 72.474 66.044 73.499 65.123Z" fill="#1E634E"/>
<path d="M115.845 65.123C115.845 65.123 114.159 63.04 111.381 63.04C108.603 63.04 106.322 64.925 104.834 65.123C103.346 65.321 102.812 62.941 103.873 61.75C104.933 60.56 107.81 59.369 110.985 59.568C114.159 59.766 116.342 60.659 117.334 61.85C118.325 63.04 116.87 66.044 115.845 65.123Z" fill="#1E634E"/>
<path d="M68.317 71.602C68.317 72.99 67.192 74.115 65.804 74.115C64.416 74.115 63.291 72.99 63.291 71.602C63.291 70.214 64.416 69.089 65.804 69.089C67.192 69.089 68.317 70.214 68.317 71.602Z" fill="#BF5949"/>
<path d="M130.648 71.602C130.648 72.99 129.523 74.115 128.135 74.115C126.747 74.115 125.622 72.99 125.622 71.602C125.622 70.214 126.747 69.089 128.135 69.089C129.523 69.089 130.648 70.214 130.648 71.602Z" fill="#BF5949"/>
</g>
</svg>
