<svg width="185" height="185" viewBox="0 0 185 185" fill="none" xmlns="http://www.w3.org/2000/svg">
<path d="M92.542 184.196C143.3 184.196 184.447 143.049 184.447 92.291C184.447 41.5333 143.3 0.385986 92.542 0.385986C41.7843 0.385986 0.636993 41.5333 0.636993 92.291C0.636993 143.049 41.7843 184.196 92.542 184.196Z" fill="#1D2C3A"/>
<mask id="mask0_1_1139" style="mask-type:luminance" maskUnits="userSpaceOnUse" x="0" y="0" width="185" height="185">
<path d="M92.542 184.196C143.3 184.196 184.447 143.049 184.447 92.291C184.447 41.5333 143.3 0.385986 92.542 0.385986C41.7843 0.385986 0.636993 41.5333 0.636993 92.291C0.636993 143.049 41.7843 184.196 92.542 184.196Z" fill="white"/>
</mask>
<g mask="url(#mask0_1_1139)">
<path d="M77.005 204.033H119.726C119.726 204.033 114.964 141.34 114.369 130.826C113.774 120.311 101.41 113.497 92.514 113.928C83.618 114.359 76.163 122.295 74.831 128.842C73.5 135.388 77.005 204.033 77.005 204.033Z" fill="#FBC996"/>
<path d="M138.676 121.415C142.938 122.493 144.922 125.667 148.294 130.826C151.667 135.984 167.935 198.478 165.356 200.661C162.777 202.843 146.508 203.439 143.334 203.24C140.16 203.042 130.24 134.992 132.025 128.842C133.812 122.691 138.676 121.415 138.676 121.415Z" fill="#004235"/>
<path d="M47.114 125.469C41.956 128.445 37.591 130.231 36.004 137.968C34.417 145.705 27.672 208.2 27.672 208.2C27.672 208.2 40.171 211.374 47.115 209.986C54.059 208.597 55.459 207.326 55.459 207.326C55.459 207.326 55.668 151.262 55.459 141.937C55.248 132.611 47.114 125.469 47.114 125.469Z" fill="#004235"/>
<path d="M112.95 207.697L149.683 203.437C149.683 203.437 138.176 131.869 137.978 127.875C137.78 123.881 139.962 121.103 137.581 119.913C135.2 118.723 123.495 115.48 119.13 113.927C114.765 112.374 112.696 111.382 112.696 111.382C112.696 111.382 111.988 119.542 109.21 121.414C106.433 123.286 107.36 127.306 106.797 127.875C106.235 128.444 112.95 207.697 112.95 207.697Z" fill="#007A63"/>
<path d="M140.209 126.498C140.171 126.625 139.525 126.538 137.558 126.062C135.589 125.596 132.303 124.713 126.908 123.556C121.507 122.423 118.146 121.896 116.157 121.522C114.166 121.158 113.541 120.975 113.558 120.844C113.573 120.722 114.226 120.675 116.249 120.874C118.269 121.083 121.667 121.511 127.1 122.651C132.528 123.815 135.807 124.804 137.738 125.433C139.667 126.072 140.245 126.38 140.209 126.498Z" fill="#004235"/>
<path d="M76.817 116.144L74.832 119.914C74.832 119.914 76.156 127.255 92.683 127.85C109.211 128.445 114.199 118.724 112.697 117.137C111.195 115.55 106.798 114.955 106.798 114.955L76.817 116.144Z" fill="#FCD9BB"/>
<path d="M109.215 117.338C109.215 117.338 100.68 124.075 91.55 124.671C82.432 125.266 76.159 118.719 76.159 118.719C76.159 118.719 77.837 112.065 77.54 103.113C77.469 100.709 77.243 98.149 76.814 95.495L98.502 93.924L106.799 93.329C106.799 93.329 106.799 93.401 106.799 93.519C106.799 94.388 106.811 98.031 106.811 101.816C106.811 103.613 106.811 105.447 106.799 107.018C106.763 112.375 109.215 117.338 109.215 117.338Z" fill="#C56C44"/>
<path d="M106.81 101.816C103.287 103.887 96.132 107.232 87.836 106.351C82.313 105.744 79.242 104.387 77.539 103.113C77.468 100.709 77.242 98.149 76.813 95.495L98.501 93.924L106.798 93.519C106.799 94.388 106.81 98.031 106.81 101.816Z" fill="#AF4331"/>
<path d="M77.005 113.927C77.005 113.927 48.701 124.476 47.113 125.468C45.526 126.46 47.113 158.005 47.113 176.852C47.113 195.7 45.491 206.81 45.707 207.405C45.923 208 84.989 206 84.989 206L81.039 127.876C81.039 127.876 77.478 124.106 76.817 121.415C76.155 118.723 77.005 113.927 77.005 113.927Z" fill="#007A63"/>
<path d="M80.639 148.354C80.646 148.609 77.623 148.897 64.582 149.242C51.541 149.587 48.507 149.461 48.501 149.205C48.494 148.95 51.517 148.662 64.558 148.317C77.598 147.971 80.632 148.098 80.639 148.354Z" fill="#004235"/>
<path d="M81 152.403C81.011 152.525 80.23 152.723 77.73 152.988C75.231 153.241 71.009 153.594 64.141 153.636C57.273 153.648 53.049 153.328 50.548 153.095C48.046 152.85 47.264 152.657 47.274 152.535C47.284 152.402 48.086 152.364 50.59 152.441C53.094 152.506 57.303 152.722 64.138 152.71C70.974 152.668 75.18 152.42 77.684 152.335C80.187 152.238 80.988 152.27 81 152.403Z" fill="#004235"/>
<path d="M74.759 120.841C74.814 120.948 74.178 121.424 71.989 122.582C69.796 123.724 66.058 125.592 59.733 127.996C53.393 130.362 49.352 131.423 46.95 132.011C44.541 132.585 43.749 132.646 43.72 132.529C43.687 132.398 44.423 132.112 46.776 131.38C49.124 130.633 53.108 129.48 59.407 127.13C65.692 124.742 69.447 122.98 71.704 121.993C73.956 120.991 74.697 120.72 74.759 120.841Z" fill="#004235"/>
<path d="M85.051 207.405C85.051 207.405 82.428 147.688 82.428 139.753C82.428 131.817 82.428 124.08 82.428 124.08V116.541C82.428 116.541 80.032 112.415 78.802 109.021C77.573 105.627 77.544 103.142 77.544 103.142C77.544 103.142 73.698 101.845 72.706 103.142C71.714 104.439 70.418 113.169 70.418 113.169C70.418 113.169 67.138 118.75 70.418 121.415C73.698 124.08 78.802 126.659 78.802 126.659L81.832 205.818L85.051 207.405Z" fill="#23A38A"/>
<path d="M106.812 100.508C106.602 108.032 107.794 111.224 105.333 113.646C103.09 115.854 104.172 120.349 104.204 123.286C104.236 126.223 110.166 208.199 110.166 208.199L114.567 207.405L108.02 126.46C108.02 126.46 115.482 120.508 116.81 119.516C118.138 118.524 115.956 113.404 115.162 109.02C114.369 104.636 114.109 102.882 112.949 101.279C111.79 99.677 106.812 100.508 106.812 100.508Z" fill="#23A38A"/>
<path d="M140.937 146.766C140.953 146.888 140.264 147.107 138.04 147.451C135.816 147.784 132.056 148.271 125.918 148.598C119.779 148.899 115.988 148.797 113.742 148.692C111.495 148.577 110.787 148.429 110.791 148.306C110.795 148.173 111.509 148.09 113.751 148.038C115.992 147.975 119.762 147.973 125.871 147.674C131.978 147.349 135.729 146.968 137.965 146.802C140.201 146.625 140.92 146.635 140.937 146.766Z" fill="#004235"/>
<path d="M142.533 154.12C142.521 154.251 141.793 154.289 139.526 154.184C137.258 154.087 133.45 153.825 127.26 153.62C121.069 153.436 117.252 153.458 114.983 153.412C112.713 153.374 111.99 153.291 111.986 153.159C111.982 153.035 112.698 152.887 114.971 152.757C117.243 152.636 121.075 152.509 127.29 152.694C133.504 152.9 137.321 153.267 139.581 153.531C141.84 153.804 142.545 153.996 142.533 154.12Z" fill="#004235"/>
<path d="M69.244 84.575C68.733 86.592 65.668 88.252 63.113 87.23C60.559 86.208 61.836 84.037 61.069 83.015C60.303 81.993 62.346 82.121 62.985 83.526C63.624 84.931 66.813 84.101 66.304 82.345C65.795 80.589 63.694 80.589 62.19 78.417C60.686 76.246 63.24 74.713 63.24 74.713C63.24 74.713 62.711 74.458 60.421 72.542C58.131 70.626 59.153 68.223 57.237 67.7C55.321 67.177 58.387 70.32 56.598 71.814C54.81 73.308 53.149 71.725 52 71.814C50.85 71.903 49.956 70.626 51.106 70.371C52.256 70.116 53.66 71.648 54.682 69.988C55.704 68.328 54.937 67.762 54.682 65.746C54.427 63.73 57.109 63.587 57.109 63.587C57.109 63.587 54.938 60.792 53.788 61.048C52.639 61.303 54.043 63.289 52.511 64.404C50.978 65.519 51.234 63.733 49.318 64.243C47.402 64.752 46.125 65.588 45.742 64.404C45.359 63.22 48.169 62.453 49.446 61.942C50.723 61.431 51.362 60.792 49.701 58.494C48.041 56.195 47.913 55.173 49.318 54.662C50.723 54.151 52.639 51.98 52.639 51.98C52.639 51.98 49.063 52.108 47.147 49.425C45.231 46.743 48.807 46.487 48.552 43.678C48.297 40.868 48.68 39.336 49.446 39.846C50.212 40.357 50.595 40.74 50.595 42.911C50.595 45.082 53.022 44.444 53.022 44.444C53.022 44.444 52.256 43.805 54.044 42.145C55.832 40.485 57.201 41.123 57.475 38.824C57.748 36.525 57.237 36.014 58.77 34.482C60.303 32.949 62.857 32.566 62.857 32.566C62.857 32.566 61.051 31.544 60.421 29.884C59.791 28.224 61.579 28.604 64.262 25.54C66.944 22.476 68.016 23.37 70.418 22.348C72.82 21.326 74.48 21.198 74.48 21.198C74.48 21.198 71.032 18.133 71.798 15.706C72.564 13.279 72.437 13.279 75.246 14.684C78.056 16.089 80.738 15.067 86.485 14.556C92.232 14.045 94.276 15.067 96.575 17.621C98.874 20.175 100.79 22.474 100.79 22.474C100.79 22.474 107.176 18.004 111.135 19.026C115.094 20.048 115.861 22.091 118.16 24.135C120.459 26.179 121.481 26.179 124.035 26.434C126.589 26.689 126.079 27.839 125.057 29.882C124.035 31.926 121.864 32.947 121.864 32.947C121.864 32.947 125.44 33.519 127.611 35.915C129.782 38.311 130.804 40.738 130.804 44.186C130.804 47.634 130.549 51.594 132.72 52.871C134.891 54.148 137.829 53.251 137.062 50.634C136.296 48.017 138.85 47.887 139.233 50.634C139.616 53.381 138.722 55.808 136.806 56.574C134.89 57.34 133.996 57.232 133.996 57.232C133.996 57.232 138.338 59.481 136.678 63.584C135.018 67.686 132.208 66.354 132.463 65.743C132.718 65.132 135.273 64.11 133.613 61.3C131.953 58.49 129.654 61.428 129.654 61.428C129.654 61.428 130.037 62.961 129.143 67.175C128.249 71.39 131.314 69.602 131.953 72.411C132.592 75.221 128.888 72.958 125.95 73.706C123.012 74.454 121.343 76.525 122.688 80.726C124.034 84.927 128.504 86.077 125.439 86.716C122.374 87.355 124.039 85.094 119.436 84.928C114.834 84.762 113.944 89.143 109.729 91.569C105.516 94 69.244 84.575 69.244 84.575Z" fill="#562F1B"/>
<path d="M122.69 67.7C122.69 70.95 120.059 73.58 116.81 73.58C116.739 73.58 116.679 73.58 116.608 73.568C115.858 87.805 110.549 101.28 93.515 101.28C76.267 101.28 73.207 93.233 69.755 85.829C68.457 83.02 67.553 78.318 66.934 73.544C66.732 73.568 66.517 73.58 66.303 73.58C63.053 73.58 60.423 70.949 60.423 67.7C60.423 64.593 62.827 62.058 65.875 61.843C65.792 60.403 65.732 59.248 65.708 58.51C67.279 57.808 69.362 56.808 71.16 56.451C74.35 55.808 73.969 54.273 73.969 51.344C73.969 48.404 73.719 48.654 75.124 47.642C76.529 46.618 76.91 44.321 76.91 44.321C76.91 44.321 78.053 44.702 80.231 44.821C82.398 44.952 83.171 43.547 83.171 43.547C83.171 43.547 85.206 44.821 88.147 45.333C91.087 45.845 97.849 43.547 97.849 43.547C97.849 43.547 99.646 44.702 103.599 44.952C107.563 45.214 111.134 47.249 112.705 52.856C114.133 57.975 113.883 59.629 116.764 60.355C116.776 60.831 116.776 61.319 116.788 61.819C116.8 61.819 116.8 61.819 116.812 61.819C120.059 61.82 122.69 64.451 122.69 67.7Z" fill="#C56C44"/>
<path d="M68.218 67.673C68.218 69.369 66.843 70.743 65.148 70.743C63.453 70.743 62.078 69.369 62.078 67.673C62.078 65.978 63.452 64.603 65.148 64.603C66.844 64.603 68.218 65.978 68.218 67.673Z" fill="#9B4223"/>
<path d="M118.031 70.734C119.706 70.734 121.064 69.3761 121.064 67.701C121.064 66.0259 119.706 64.668 118.031 64.668C116.356 64.668 114.998 66.0259 114.998 67.701C114.998 69.3761 116.356 70.734 118.031 70.734Z" fill="#9B4223"/>
<path d="M116.809 76.247C116.357 73.688 116.809 58.106 116.809 58.106L114.714 57.463C114.714 57.463 114.202 73.569 113.559 74.2C112.928 74.843 112.928 76.378 111.012 78.164C109.095 79.949 107.941 86.461 106.405 85.83C104.881 85.187 101.56 79.569 98.87 79.307C96.192 79.057 86.609 79.307 83.931 79.438C81.253 79.569 79.205 85.949 77.289 85.83C75.373 85.699 71.671 83.783 70.421 79.569C69.171 75.355 68.076 57.464 68.076 57.464C68.076 57.464 69.016 57.095 67.588 56.452C66.148 55.809 64.779 57.464 64.779 57.464C64.779 57.464 66.184 66.285 66.303 69.606C66.434 72.927 66.434 77.272 67.327 80.736C68.22 84.188 71.672 95.532 76.136 98.091C80.612 100.638 90.194 106.65 103.348 100.388C116.5 94.126 117.262 78.806 116.809 76.247ZM100.704 94.471C99.537 95.899 86.086 95.566 84.979 95.019C83.872 94.471 80.313 88.901 80.218 87.496C80.182 87.008 82.444 82.889 84.979 82.663C87.003 82.485 97.109 82.342 99.097 82.663C101.085 82.996 103.858 86.853 104.18 87.96C104.501 89.067 101.87 93.031 100.704 94.471Z" fill="#562F1B"/>
<path d="M87.865 20.617C87.883 20.506 88.3 20.407 89.537 20.69C90.151 20.84 90.965 21.112 91.965 21.639C92.953 22.177 94.137 22.984 95.293 24.298C96.435 25.625 97.071 26.909 97.468 27.961C97.852 29.024 98.008 29.867 98.073 30.496C98.183 31.76 98.028 32.159 97.915 32.162C97.773 32.168 97.693 31.775 97.428 30.606C97.115 29.478 96.682 27.402 94.595 24.905C92.41 22.494 90.413 21.778 89.339 21.313C88.217 20.89 87.839 20.757 87.865 20.617Z" fill="#351307"/>
<path d="M87.245 25.48C87.295 25.363 87.583 25.357 88.386 25.614C89.171 25.898 90.551 26.328 92.491 27.691C94.408 29.117 95.121 30.53 95.398 31.344C95.662 32.186 95.57 32.488 95.458 32.514C95.323 32.549 95.185 32.306 94.8 31.61C94.398 30.935 93.704 29.751 91.943 28.437C90.147 27.172 88.835 26.644 88.124 26.214C87.395 25.806 87.194 25.598 87.245 25.48Z" fill="#351307"/>
<path d="M75.401 39.972C75.306 39.916 75.429 39.369 76.382 37.96C76.868 37.265 77.588 36.366 78.721 35.35C79.863 34.363 81.456 33.226 83.741 32.557C86.051 31.928 88.033 32.142 89.508 32.546C90.992 32.977 92.009 33.6 92.68 34.144C94.002 35.28 94.138 35.878 94.066 35.925C93.939 36.032 93.61 35.589 92.294 34.673C91.625 34.235 90.664 33.724 89.29 33.371C87.923 33.043 86.1 32.874 83.993 33.448C81.887 34.064 80.385 35.1 79.274 35.999C78.172 36.925 77.433 37.74 76.899 38.361C75.85 39.619 75.525 40.048 75.401 39.972Z" fill="#351307"/>
<path d="M67.096 27.788C67.097 27.658 67.479 27.554 68.665 27.473C69.257 27.429 70.05 27.391 71.085 27.297C72.115 27.19 73.4 27.04 74.886 26.545C76.355 26.032 77.414 25.312 78.161 24.649C78.904 23.975 79.353 23.356 79.648 22.874C80.214 21.894 80.326 21.517 80.475 21.554C80.572 21.57 80.7 22.003 80.23 23.175C79.745 24.281 78.428 26.256 75.185 27.421C73.577 27.957 72.217 28.084 71.147 28.148C70.072 28.198 69.265 28.168 68.666 28.128C67.469 28.041 67.095 27.914 67.096 27.788Z" fill="#351307"/>
<path d="M65.418 48.488C65.296 48.502 65.105 48.04 64.861 46.51C64.748 45.744 64.612 44.704 64.638 43.303C64.686 41.919 64.87 40.096 65.975 38.151C67.121 36.201 68.794 35.253 70.06 34.708C71.362 34.164 72.391 33.939 73.151 33.786C74.678 33.5 75.178 33.537 75.204 33.655C75.234 33.786 74.769 33.979 73.31 34.421C72.586 34.651 71.605 34.937 70.407 35.487C69.232 36.044 67.779 36.907 66.773 38.619C65.788 40.348 65.578 42.032 65.49 43.338C65.419 44.664 65.484 45.684 65.513 46.445C65.588 47.972 65.55 48.474 65.418 48.488Z" fill="#351307"/>
<path d="M61.812 57C61.808 56.853 62.225 56.797 63.441 56.504C64.046 56.346 64.849 56.096 65.832 55.603C66.8 55.096 67.967 54.329 69.037 53.028C70.086 51.71 70.592 50.409 70.885 49.356C71.161 48.291 71.238 47.454 71.266 46.829C71.299 45.578 71.266 45.159 71.411 45.132C71.515 45.109 71.781 45.481 71.921 46.816C71.977 47.481 71.967 48.392 71.714 49.561C71.443 50.717 70.916 52.156 69.758 53.611C68.578 55.048 67.28 55.864 66.207 56.371C65.117 56.863 64.228 57.064 63.566 57.148C62.231 57.289 61.811 57.107 61.812 57Z" fill="#351307"/>
<path d="M55.354 55.218C55.373 55.086 55.535 55.007 55.98 54.947C56.421 54.876 57.165 54.849 58.29 54.466C59.405 54.056 60 53.608 60.387 53.386C60.77 53.153 60.946 53.112 61.044 53.203C61.134 53.285 61.13 53.484 60.822 53.875C60.512 54.252 59.883 54.866 58.599 55.339C57.304 55.78 56.428 55.699 55.951 55.601C55.464 55.491 55.336 55.338 55.354 55.218Z" fill="#351307"/>
<path d="M52.7 48.814C52.69 48.684 52.859 48.564 53.388 48.417C53.915 48.261 54.812 48.099 56.209 47.638C56.894 47.402 57.485 47.178 57.86 46.991C58.249 46.789 58.492 46.59 58.627 46.432C58.894 46.121 58.899 45.917 59.044 45.894C59.105 45.882 59.175 45.914 59.24 46.046C59.296 46.173 59.336 46.437 59.192 46.761C59.055 47.088 58.75 47.43 58.289 47.727C57.805 48.025 57.251 48.254 56.503 48.515C55.014 49.006 54.037 49.074 53.467 49.066C52.894 49.051 52.709 48.939 52.7 48.814Z" fill="#351307"/>
<path d="M113.25 25.038C113.185 25.159 112.898 25.096 112.085 24.86C111.279 24.667 109.868 24.202 107.616 24.56C105.379 25.007 104.217 25.932 103.529 26.393C102.848 26.897 102.602 27.055 102.498 26.964C102.409 26.888 102.478 26.576 103.097 25.901C103.723 25.277 104.952 24.149 107.453 23.649C109.972 23.25 111.516 23.881 112.32 24.249C113.134 24.666 113.307 24.936 113.25 25.038Z" fill="#351307"/>
<path d="M125.497 54.113C125.355 54.119 125.273 53.407 124.967 51.214C124.8 50.121 124.567 48.653 124.014 46.786C123.444 44.938 122.549 42.642 120.668 40.337C118.769 38.048 116.628 36.818 114.818 36.242C112.991 35.664 111.51 35.642 110.439 35.727C108.285 35.961 107.642 36.356 107.577 36.189C107.535 36.13 108.079 35.504 110.361 35.077C111.494 34.9 113.09 34.851 115.07 35.426C117.034 35.998 119.37 37.316 121.381 39.746C123.376 42.19 124.288 44.619 124.834 46.549C125.362 48.5 125.531 50.017 125.618 51.141C125.761 53.396 125.61 54.109 125.497 54.113Z" fill="#351307"/>
<path d="M127.171 61.277C127.198 61.323 127.107 61.476 126.725 61.651C126.352 61.809 125.624 61.974 124.646 61.618C124.166 61.44 123.627 61.13 123.143 60.603C122.668 60.087 122.267 59.379 121.994 58.54C121.716 57.701 121.572 56.726 121.476 55.676C121.369 54.627 121.307 53.481 120.939 52.327C120.153 50.007 118.645 48.521 117.429 47.48C116.175 46.439 115.103 45.785 114.317 45.279C112.726 44.289 112.237 43.922 112.302 43.805C112.361 43.699 112.948 43.855 114.642 44.711C115.482 45.152 116.616 45.761 117.968 46.819C119.278 47.885 120.934 49.444 121.82 52.044C122.234 53.353 122.283 54.559 122.379 55.594C122.461 56.635 122.58 57.528 122.808 58.287C123.246 59.822 124.115 60.67 124.898 61.016C125.682 61.382 126.277 61.342 126.628 61.306C126.985 61.254 127.137 61.212 127.171 61.277Z" fill="#351307"/>
<path d="M128.257 64.943C128.242 65.067 128.106 65.174 127.698 65.188C127.294 65.197 126.603 65.125 125.58 64.707C124.562 64.275 124.025 63.834 123.747 63.542C123.47 63.243 123.45 63.07 123.528 62.972C123.609 62.869 123.773 62.86 124.124 63.006C124.478 63.148 125.014 63.46 125.936 63.852C126.864 64.231 127.463 64.391 127.813 64.543C128.164 64.69 128.273 64.813 128.257 64.943Z" fill="#351307"/>
<path d="M118.587 81.866C118.512 81.962 118.334 81.988 117.981 81.762C117.642 81.534 117.084 81.039 116.654 79.973C116.252 78.896 116.33 78.154 116.427 77.757C116.535 77.352 116.684 77.252 116.804 77.272C116.936 77.293 117.017 77.431 117.081 77.79C117.153 78.146 117.184 78.744 117.518 79.638C117.875 80.523 118.255 80.985 118.442 81.297C118.637 81.604 118.67 81.762 118.587 81.866Z" fill="#351307"/>
<path d="M65.395 85.02C65.344 84.872 65.582 84.793 65.717 84.271C65.78 83.996 65.811 83.592 65.724 83.016C65.646 82.419 65.542 81.677 65.331 80.775C64.903 78.973 64.447 77.917 64.236 77.263C64.009 76.614 63.992 76.37 64.108 76.306C64.215 76.246 64.436 76.377 64.825 76.978C65.197 77.582 65.779 78.66 66.233 80.567C66.455 81.519 66.539 82.309 66.574 82.942C66.622 83.595 66.52 84.144 66.325 84.516C66.129 84.898 65.837 85.068 65.665 85.098C65.486 85.13 65.412 85.076 65.395 85.02Z" fill="#351307"/>
<path d="M76.585 95.381C76.489 95.454 76.248 95.356 75.788 94.798C75.344 94.238 74.631 93.206 74.091 91.294C73.587 89.372 73.676 88.121 73.775 87.413C73.888 86.698 74.046 86.492 74.166 86.506C74.3 86.521 74.373 86.753 74.429 87.436C74.499 88.115 74.516 89.266 74.984 91.05C75.486 92.825 76.056 93.825 76.34 94.446C76.637 95.063 76.693 95.301 76.585 95.381Z" fill="#351307"/>
<path d="M78.768 93.311C78.6 93.474 78.206 93.474 77.615 92.515C77.078 91.525 77.274 91.183 77.499 91.119C77.761 91.037 77.962 91.219 78.416 92.051C78.912 92.859 78.97 93.125 78.768 93.311Z" fill="#351307"/>
<path d="M84.19 98.156C84.058 98.375 83.789 98.455 83.087 98.034C82.385 97.613 82.328 97.337 82.46 97.118C82.592 96.899 82.861 96.819 83.563 97.24C84.265 97.661 84.322 97.937 84.19 98.156Z" fill="#351307"/>
<path d="M109.292 93.601C109.183 93.508 109.369 93.172 109.971 92.189C110.544 91.201 111.624 89.549 112.413 86.515C113.131 83.464 112.947 81.499 112.901 80.357C112.827 79.206 112.82 78.822 112.959 78.791C113.068 78.765 113.303 79.096 113.55 80.272C113.767 81.435 114.07 83.517 113.312 86.737C112.48 89.939 111.24 91.639 110.506 92.566C109.738 93.492 109.376 93.675 109.292 93.601Z" fill="#351307"/>
<path d="M105.524 93.189C105.428 93.1 105.423 92.948 105.555 92.648C105.681 92.346 105.963 91.9 106.263 91.107C106.547 90.308 106.62 89.786 106.719 89.474C106.812 89.16 106.914 89.048 107.045 89.042C107.169 89.036 107.299 89.137 107.373 89.496C107.439 89.85 107.466 90.486 107.132 91.426C106.779 92.358 106.348 92.827 106.068 93.054C105.78 93.28 105.615 93.273 105.524 93.189Z" fill="#351307"/>
<path d="M100.232 99.322C100.107 99.073 100.314 98.835 101.251 98.106C102.149 97.33 102.422 97.172 102.643 97.344C102.828 97.479 102.871 97.925 101.839 98.822C100.757 99.659 100.328 99.53 100.232 99.322Z" fill="#351307"/>
<path d="M76.817 69.875C77.9133 69.875 78.802 68.3443 78.802 66.456C78.802 64.5677 77.9133 63.037 76.817 63.037C75.7207 63.037 74.832 64.5677 74.832 66.456C74.832 68.3443 75.7207 69.875 76.817 69.875Z" fill="#3A1C0F"/>
<path d="M104.813 69.875C105.909 69.875 106.798 68.3443 106.798 66.456C106.798 64.5677 105.909 63.037 104.813 63.037C103.717 63.037 102.828 64.5677 102.828 66.456C102.828 68.3443 103.717 69.875 104.813 69.875Z" fill="#3A1C0F"/>
<path d="M91.798 78.165C91.812 78.384 91.454 78.766 90.16 78.629C89.539 78.528 88.606 78.29 87.74 77.334C87.315 76.873 86.952 76.127 86.89 75.319C86.827 74.514 86.984 73.536 87.733 72.697C88.092 72.288 88.642 71.995 89.006 71.877C89.377 71.747 89.606 71.667 89.712 71.594C89.925 71.466 90.082 71.157 90.149 70.789C90.282 70.066 90.105 69.335 90.085 68.735C90.008 67.506 90.382 67.081 90.614 67.137C90.885 67.185 90.998 67.494 91.368 68.478C91.46 68.732 91.574 69.039 91.683 69.44C91.791 69.835 91.894 70.374 91.843 70.994C91.79 71.593 91.583 72.462 90.753 73.079C90.343 73.369 89.933 73.488 89.654 73.6C89.363 73.711 89.258 73.787 89.098 73.947C88.804 74.258 88.676 74.766 88.699 75.192C88.728 75.637 88.847 75.96 89.064 76.258C89.489 76.85 90.075 77.157 90.507 77.366C91.405 77.762 91.794 77.885 91.798 78.165Z" fill="#351307"/>
<path d="M72.096 59.184C71.843 59.168 71.499 58.838 71.76 57.889C71.9 57.431 72.224 56.847 72.854 56.305C73.478 55.771 74.414 55.252 75.684 55.124C76.95 55.011 77.941 55.308 78.658 55.663C79.379 56.026 79.836 56.472 80.103 56.851C80.629 57.642 80.449 58.056 80.215 58.17C79.948 58.312 79.654 58.201 79.094 57.917C78.547 57.672 77.552 57.079 75.887 57.189C74.244 57.399 73.473 58.206 73.053 58.583C72.624 59.001 72.399 59.219 72.096 59.184Z" fill="#562F1B"/>
<path d="M109.006 56.857C108.772 57.067 108.438 57.038 107.781 56.806C107.125 56.603 106.057 56.093 104.198 56.034C102.337 56.042 101.245 56.513 100.577 56.691C99.907 56.898 99.571 56.907 99.348 56.686C99.144 56.489 99.099 56.062 99.74 55.395C100.376 54.773 101.758 53.862 104.229 53.853C106.701 53.93 108.062 54.897 108.673 55.548C109.29 56.244 109.22 56.672 109.006 56.857Z" fill="#562F1B"/>
<path d="M99.347 85.341C99.311 86.281 98.68 87.96 97.335 89.341C96.145 90.555 94.383 91.543 92.002 91.543C89.038 91.543 87.205 90.781 86.074 89.781C85.265 89.079 84.8 88.269 84.515 87.531C83.932 86.031 84.217 85.162 85.051 83.841C85.218 83.591 85.396 83.305 85.598 83.008C86.396 81.818 92.145 82.472 94.883 82.484C96.454 82.484 97.716 82.841 98.49 83.496C99.061 83.961 99.371 84.591 99.347 85.341Z" fill="#7A1F2C"/>
<path d="M97.335 89.341C96.145 90.555 94.383 91.543 92.002 91.543C89.038 91.543 87.205 90.781 86.074 89.781C86.074 89.781 87.086 86.436 91.776 86.281C94.633 86.198 96.383 87.948 97.335 89.341Z" fill="#FC868F"/>
<path d="M98.49 83.496C98.359 83.996 98.157 84.508 97.847 84.793C97.157 85.448 88.634 85.448 86.538 84.793C85.752 84.543 85.3 84.186 85.05 83.841C85.217 83.591 85.395 83.305 85.597 83.008C86.395 81.818 92.144 82.472 94.882 82.484C96.454 82.484 97.716 82.842 98.49 83.496Z" fill="white"/>
</g>
</svg>
