<svg width="188" height="188" viewBox="0 0 188 188" fill="none" xmlns="http://www.w3.org/2000/svg">
<path d="M93.79 187.716C145.486 187.716 187.393 145.809 187.393 94.113C187.393 42.4175 145.486 0.51001 93.79 0.51001C42.0945 0.51001 0.187012 42.4175 0.187012 94.113C0.187012 145.809 42.0945 187.716 93.79 187.716Z" fill="#1D2C3A"/>
<mask id="mask0_1_381" style="mask-type:luminance" maskUnits="userSpaceOnUse" x="0" y="0" width="188" height="188">
<path d="M93.79 187.716C145.486 187.716 187.393 145.809 187.393 94.113C187.393 42.4175 145.486 0.51001 93.79 0.51001C42.0945 0.51001 0.187012 42.4175 0.187012 94.113C0.187012 145.809 42.0945 187.716 93.79 187.716Z" fill="white"/>
</mask>
<g mask="url(#mask0_1_381)">
<path d="M55.159 110.32C57.846 113.156 54.391 116.968 55.159 122.068C55.927 127.168 58.806 123.905 57.846 128.896C56.886 133.887 50.552 138.109 54.199 143.1C57.846 148.091 128.882 140.926 136.84 132.511C144.798 124.097 146.525 115.659 145.374 107.305C145.374 107.305 148.514 97.224 145.697 90.698C142.879 84.172 137.697 79.164 137.697 79.164C137.697 79.164 126.564 72.272 118.886 62.482C111.208 52.693 103.905 43.671 99.975 40.216C96.044 36.761 93.741 33.114 87.791 35.033C81.841 36.952 75.469 38.872 72.704 47.701C69.94 56.531 65.717 68.239 61.11 74.765C56.503 81.291 55.029 81.483 53.079 87.625C51.129 93.767 52.376 99.001 51.67 103.053C50.963 107.106 55.159 110.32 55.159 110.32Z" fill="#C92828"/>
<path d="M72.703 73.746C72.703 75.691 71.127 77.267 69.182 77.267C67.238 77.267 65.661 75.691 65.661 73.746C65.661 71.801 67.237 70.225 69.182 70.225C71.127 70.225 72.703 71.801 72.703 73.746Z" fill="white" stroke="black" stroke-width="0.448" stroke-miterlimit="10"/>
<path d="M126.871 73.743C126.871 77.429 123.877 80.411 120.203 80.411C120.082 80.411 119.961 80.411 119.839 80.387C119.342 84.315 118.699 88.34 117.851 91.516C115.39 100.766 108.443 110.186 88.233 106.476C75.915 104.221 71.624 90.618 70.133 80.338C69.83 80.386 69.515 80.411 69.187 80.411C65.501 80.411 62.507 77.429 62.507 73.743C62.507 70.058 65.502 67.075 69.187 67.075C69.587 67.075 69.975 67.111 70.339 67.184C70.703 66.578 71.176 65.753 71.721 64.662C73.115 61.886 74.194 57.267 79.904 48.307C85.614 39.36 90.706 37.978 90.706 37.978C90.706 37.978 95.943 46.149 103.666 53.096C111.377 60.043 121.1 65.753 121.1 65.753C121.1 65.753 121.076 66.25 121.027 67.135C124.314 67.536 126.871 70.336 126.871 73.743Z" fill="#FF9E9B"/>
<path d="M123.719 73.746C123.719 75.691 122.143 77.267 120.198 77.267C118.253 77.267 116.677 75.691 116.677 73.746C116.677 71.801 118.253 70.225 120.198 70.225C122.143 70.225 123.719 71.801 123.719 73.746Z" fill="#ED7C7C"/>
<path d="M72.166 73.746C72.166 75.691 70.59 77.267 68.645 77.267C66.7 77.267 65.124 75.691 65.124 73.746C65.124 71.801 66.7 70.225 68.645 70.225C70.59 70.225 72.166 71.801 72.166 73.746Z" fill="#ED7C7C"/>
<path d="M90.707 37.979C82.799 46.742 74.929 63.032 66.676 72.642C58.423 82.252 54.008 87.907 52.856 95.445C51.704 102.983 55.159 110.32 55.159 110.32C55.159 110.32 44.794 106.141 46.33 89.494C47.866 72.847 58.807 67.664 61.302 60.178C63.797 52.692 62.838 41.559 67.06 33.306C71.283 25.052 79.728 22.749 83.375 23.325C87.022 23.901 89.786 29.467 90.707 31.771C91.629 34.074 90.707 37.979 90.707 37.979Z" fill="#ED5545"/>
<path d="M113.894 24.668C102.535 18.589 86.062 21.405 83.374 23.324C80.687 25.244 89.279 44.054 97.747 51.156C106.215 58.258 121.522 66.184 125.577 69.803C129.632 73.422 137.694 79.163 137.694 79.163C137.694 79.163 131.744 72.847 131.168 65.936C130.592 59.026 127.977 48.853 123.718 40.215C119.461 31.578 117.258 26.468 113.894 24.668Z" fill="#ED5545"/>
<path d="M73.901 54.499C73.679 54.362 74.539 52.564 79.013 45.296C83.487 38.028 84.706 36.451 84.928 36.587C85.15 36.723 84.29 38.522 79.816 45.79C75.341 53.059 74.123 54.636 73.901 54.499Z" fill="#D63A4D"/>
<path d="M78.03 33.134C77.932 33.057 77.93 32.847 78.226 32.392C78.526 31.949 79.125 31.223 80.4 30.457C81.689 29.715 82.614 29.545 83.148 29.498C83.69 29.46 83.873 29.564 83.892 29.687C83.913 29.821 83.767 29.95 83.302 30.146C82.842 30.35 82.043 30.599 80.878 31.269C79.726 31.961 79.121 32.539 78.718 32.841C78.321 33.153 78.136 33.218 78.03 33.134Z" fill="#D63A4D"/>
<path d="M78.842 35.966C78.65 35.79 78.704 35.419 79.606 34.435C80.508 33.451 80.873 33.365 81.065 33.541C81.257 33.717 81.203 34.088 80.301 35.072C79.399 36.056 79.034 36.142 78.842 35.966Z" fill="#D63A4D"/>
<path d="M55.868 75.432C55.763 75.32 56.305 74.733 57.949 72.869C59.549 70.985 62.392 67.845 65.558 61.845C68.618 55.79 69.533 51.653 70.143 49.259C70.711 46.839 70.876 46.057 71.028 46.078C71.134 46.091 71.204 46.904 70.796 49.392C70.346 51.852 69.516 56.104 66.396 62.278C63.168 68.396 60.181 71.534 58.436 73.325C56.643 75.098 55.939 75.511 55.868 75.432Z" fill="#D63A4D"/>
<path d="M51.383 102.63C51.331 102.668 51.169 102.538 50.827 102.121C50.527 101.685 50.048 100.934 49.733 99.646C49.41 98.368 49.316 96.563 49.746 94.293C49.956 93.159 50.305 91.909 50.795 90.561C51.273 89.21 51.869 87.735 52.642 86.157C54.187 83 55.787 80.637 57.167 78.826C58.555 77.017 59.743 75.762 60.659 74.866C62.505 73.083 63.229 72.676 63.301 72.758C63.402 72.869 62.837 73.453 61.141 75.326C60.299 76.267 59.184 77.545 57.861 79.347C56.545 81.152 55.001 83.478 53.489 86.569C52.732 88.113 52.143 89.554 51.663 90.873C51.172 92.188 50.822 93.38 50.597 94.462C50.142 96.624 50.166 98.305 50.385 99.508C50.881 101.92 51.564 102.524 51.383 102.63Z" fill="#D63A4D"/>
<path d="M51.977 81.233C52.087 81.309 52.074 81.521 51.846 82.039C51.625 82.56 51.17 83.382 50.588 84.784C50.021 86.193 49.769 87.097 49.562 87.624C49.361 88.153 49.222 88.313 49.091 88.29C48.966 88.268 48.872 88.069 48.911 87.482C48.956 86.899 49.117 85.913 49.716 84.427C50.331 82.947 50.907 82.131 51.283 81.684C51.666 81.238 51.873 81.161 51.977 81.233Z" fill="#D63A4D"/>
<path d="M98.224 24.152C98.205 24.293 97.97 24.349 97.306 24.421C96.653 24.511 95.51 24.578 93.896 25.381C92.307 26.232 91.591 27.126 91.14 27.607C90.697 28.108 90.515 28.266 90.389 28.201C90.284 28.148 90.253 27.881 90.591 27.228C90.936 26.602 91.673 25.502 93.462 24.544C95.278 23.639 96.602 23.674 97.312 23.755C98.042 23.855 98.242 24.036 98.224 24.152Z" fill="#D63A4D"/>
<path d="M94.401 22.834C94.413 22.968 94.311 23.085 94.008 23.227C93.708 23.376 93.189 23.534 92.45 23.991C91.722 24.465 91.357 24.867 91.095 25.074C90.837 25.288 90.687 25.33 90.572 25.262C90.464 25.199 90.408 25.037 90.556 24.683C90.708 24.339 91.067 23.767 91.946 23.195C92.838 22.644 93.509 22.563 93.885 22.572C94.267 22.589 94.39 22.709 94.401 22.834Z" fill="#D63A4D"/>
<path d="M98.85 32.92C98.818 33.049 98.687 33.131 98.356 33.154C98.025 33.182 97.493 33.137 96.633 33.173C95.773 33.222 95.249 33.32 94.917 33.325C94.586 33.335 94.447 33.266 94.403 33.141C94.36 33.021 94.418 32.868 94.73 32.685C95.04 32.509 95.614 32.287 96.588 32.231C97.562 32.19 98.155 32.354 98.482 32.498C98.808 32.649 98.881 32.796 98.85 32.92Z" fill="#D63A4D"/>
<path d="M122.408 61.999C122.387 62.08 121.496 62.059 119.161 60.81C118.009 60.168 116.545 59.147 114.837 57.561C113.126 55.979 111.227 53.798 108.94 51.104C106.651 48.426 104.634 46.431 102.847 45.044C101.06 43.659 99.548 42.851 98.381 42.359C97.208 41.88 96.398 41.645 95.893 41.508C95.387 41.369 95.191 41.274 95.199 41.209C95.207 41.144 95.417 41.116 95.957 41.146C96.496 41.175 97.363 41.316 98.621 41.737C99.872 42.17 101.494 42.956 103.375 44.354C105.255 45.752 107.345 47.785 109.657 50.491C111.953 53.195 113.8 55.354 115.437 56.932C117.07 58.512 118.438 59.548 119.507 60.24C121.668 61.587 122.471 61.835 122.408 61.999Z" fill="#D63A4D"/>
<path d="M117.69 51.483C117.796 51.398 118.034 51.528 118.607 52.052C119.187 52.567 120.088 53.504 121.757 54.773C123.443 56.021 124.594 56.624 125.251 57.037C125.914 57.441 126.105 57.633 126.053 57.758C126.006 57.874 125.725 57.9 124.966 57.64C124.216 57.371 122.956 56.834 121.191 55.527C119.443 54.198 118.575 53.139 118.107 52.493C117.645 51.837 117.593 51.56 117.69 51.483Z" fill="#D63A4D"/>
<path d="M105.091 32.511C105.065 32.44 105.704 32.003 107.805 32.268C108.838 32.43 110.222 32.853 111.779 33.874C113.343 34.883 114.985 36.567 116.54 38.891C118.089 41.222 119.144 43.18 120.124 44.659C121.089 46.148 121.912 47.196 122.57 47.939C123.9 49.409 124.427 49.792 124.333 49.919C124.279 50.004 123.604 49.813 122.089 48.4C121.342 47.689 120.428 46.638 119.402 45.142C118.36 43.655 117.269 41.69 115.759 39.419C114.241 37.154 112.722 35.573 111.293 34.593C109.867 33.603 108.616 33.152 107.676 32.921C105.771 32.512 105.107 32.691 105.091 32.511Z" fill="#D63A4D"/>
<path d="M109.562 30.7C109.692 30.475 110.595 30.753 114.028 32.74C117.461 34.727 118.152 35.371 118.022 35.596C117.892 35.821 116.989 35.543 113.556 33.556C110.123 31.569 109.432 30.925 109.562 30.7Z" fill="#D63A4D"/>
<path d="M72.703 215.963H121.022L122.794 136.412L70.817 138.844L72.703 215.963Z" fill="#FF5A7F"/>
<path d="M71.719 143.017C71.719 143.017 89.483 153.564 97.751 152.655C106.019 151.746 119.961 144.746 119.961 144.746L117.991 133.106L71.719 132.15V143.017Z" fill="#FCD9E4"/>
<path d="M56.758 132.15C50.124 133.172 42.564 137.739 40.095 148.03C37.626 158.321 32.843 216.951 32.843 216.951H53.826L56.758 208.311V132.15Z" fill="#4BBFAF"/>
<path d="M122.798 136.41C122.798 136.41 119.137 138.58 114.554 141.053C114.008 141.344 113.451 141.635 112.881 141.938C107.595 144.726 101.57 147.6 98.575 147.988C94.586 148.497 84.985 144.678 78.959 142.035C78.353 141.768 77.795 141.514 77.274 141.283C75.128 140.325 73.734 139.646 73.734 139.646L73.649 138.712L72.703 127.777C72.703 127.777 75.491 125.849 78.171 122.527C79.953 120.333 81.675 117.508 82.511 114.222C82.523 114.21 82.523 114.198 82.523 114.186C82.911 112.622 83.069 110.804 83.105 109.058C83.141 107.434 83.069 105.857 82.972 104.609C84.536 105.482 86.282 106.124 88.234 106.476C97.618 108.198 104.14 107.094 108.686 104.476C108.662 105.785 108.65 107.349 108.722 108.938C108.807 110.744 109.001 112.599 109.377 114.2C109.607 115.182 109.898 116.067 110.286 116.794C112.747 121.413 120.203 126.081 120.203 126.081L120.336 126.602L122.798 136.41Z" fill="#FF9E9B"/>
<path d="M108.723 108.938C105.401 111.205 100.418 113.654 94.684 113.412C89.034 113.157 85.325 110.999 83.106 109.06C83.142 107.436 83.07 105.859 82.973 104.611C84.537 105.484 86.283 106.126 88.235 106.478C97.619 108.2 104.141 107.096 108.687 104.478C108.662 105.785 108.65 107.35 108.723 108.938Z" fill="#ED7C7C"/>
<path d="M78.79 216.182C78.79 216.182 56.446 215.237 56.446 216.182C56.446 217.128 48.117 197.451 48.275 186.128C48.36 179.969 50.033 170.804 51.67 162.863C52.046 161.057 52.41 159.311 52.761 157.674C53.707 153.261 54.495 149.673 54.749 147.89C55.525 142.531 56.762 132.154 56.762 132.154C56.762 132.154 69.164 127.983 72.704 126.007C76.244 124.043 78.79 122.067 78.79 122.067C78.79 122.067 77.335 138.955 76.147 157.674C76.038 159.395 75.929 161.129 75.82 162.863C75.687 165.166 75.553 167.47 75.432 169.761C74.195 192.578 78.79 216.182 78.79 216.182Z" fill="#269184"/>
<path d="M82.523 114.184C80.563 121.966 78.913 140.115 78.79 145.516C78.667 150.916 76.284 155.53 76.284 155.53C76.284 155.53 76.816 146.133 74.81 144.127C72.804 142.121 64.781 142.893 61.233 143.973C57.685 145.053 59.227 139.036 61.233 133.173C63.239 127.31 65.245 122.526 69.41 118.824C73.576 115.121 82.523 114.184 82.523 114.184Z" fill="#4BBFAF"/>
<path d="M76.147 157.674C76.038 159.395 75.929 161.129 75.82 162.863H51.67C52.046 161.057 52.41 159.311 52.761 157.674H76.147Z" fill="#0D3D3D"/>
<path d="M135.081 132.15C141.715 133.172 149.276 137.739 151.744 148.03C154.213 158.321 158.995 216.951 158.995 216.951H138.012L135.081 208.311V132.15Z" fill="#4BBFAF"/>
<path d="M113.05 216.182C113.05 216.182 135.394 215.237 135.394 216.182C135.394 217.128 143.723 197.451 143.565 186.128C143.48 179.969 141.807 170.804 140.17 162.863C139.794 161.057 139.43 159.311 139.079 157.674C138.133 153.261 137.345 149.673 137.091 147.89C136.315 142.531 135.079 132.154 135.079 132.154C135.079 132.154 122.677 127.983 119.136 126.007C115.596 124.043 113.05 122.067 113.05 122.067C113.05 122.067 114.505 138.955 115.693 157.674C115.802 159.395 115.911 161.129 116.02 162.863C116.153 165.166 116.287 167.47 116.408 169.761C117.644 192.578 113.05 216.182 113.05 216.182Z" fill="#269184"/>
<path d="M109.316 114.184C111.276 121.966 112.926 140.115 113.049 145.516C113.172 150.916 115.555 155.53 115.555 155.53C115.555 155.53 115.023 146.133 117.029 144.127C119.035 142.121 127.058 142.893 130.606 143.973C134.155 145.053 132.612 139.036 130.606 133.173C128.6 127.31 126.594 122.526 122.429 118.824C118.264 115.121 109.316 114.184 109.316 114.184Z" fill="#4BBFAF"/>
<path d="M115.693 157.674C115.802 159.395 115.911 161.129 116.02 162.863H140.17C139.794 161.057 139.43 159.311 139.079 157.674H115.693Z" fill="#0D3D3D"/>
<path d="M80.438 80.578C81.7834 80.578 82.874 78.8015 82.874 76.61C82.874 74.4186 81.7834 72.642 80.438 72.642C79.0927 72.642 78.002 74.4186 78.002 76.61C78.002 78.8015 79.0927 80.578 80.438 80.578Z" fill="#2D1717"/>
<path d="M109.4 80.578C110.745 80.578 111.836 78.8015 111.836 76.61C111.836 74.4186 110.745 72.642 109.4 72.642C108.055 72.642 106.964 74.4186 106.964 76.61C106.964 78.8015 108.055 80.578 109.4 80.578Z" fill="#2D1717"/>
<path d="M94.567 85.42C94.596 85.544 94.549 85.688 94.323 85.828C94.101 85.962 93.676 86.084 93.053 85.954C92.457 85.815 91.579 85.436 91.02 84.315C90.459 83.187 90.714 81.332 92.311 80.272C92.482 80.165 92.659 80.07 92.841 80.001C93 79.926 93.281 79.867 93.201 79.887L93.213 79.893C93.213 79.893 93.219 79.897 93.222 79.883L93.227 79.868L93.235 79.714C93.243 79.488 93.251 79.273 93.258 79.068C93.266 78.659 93.26 78.292 93.251 77.964C93.229 77.3 93.212 76.797 93.199 76.42C93.187 75.652 93.299 75.352 93.526 75.282C93.743 75.215 94.04 75.387 94.389 76.148C94.559 76.529 94.74 77.059 94.875 77.784C94.942 78.146 94.998 78.557 95.03 79.02C95.045 79.251 95.056 79.496 95.057 79.754L95.055 79.967L95.034 80.325C95.037 80.572 94.967 80.81 94.84 81.02C94.689 81.271 94.391 81.536 93.917 81.645C93.599 81.718 93.626 81.715 93.538 81.751C93.467 81.776 93.395 81.817 93.323 81.862C92.979 82.081 92.737 82.444 92.632 82.772C92.525 83.107 92.54 83.392 92.62 83.64C92.788 84.155 93.201 84.503 93.505 84.7C94.145 85.092 94.508 85.136 94.567 85.42Z" fill="#AF3A41"/>
<path d="M101.59 90.432C101.72 90.641 101.587 91.041 100.713 91.665C99.844 92.258 98.18 93.162 95.239 93.41C92.293 93.589 90.516 92.935 89.57 92.473C88.615 91.981 88.426 91.605 88.524 91.379C88.631 91.128 89.009 91.068 89.974 91.202C90.937 91.313 92.516 91.685 95.102 91.529C97.683 91.31 99.192 90.714 100.129 90.465C101.065 90.195 101.448 90.199 101.59 90.432Z" fill="#AF3A41"/>
<path d="M84.911 63.447C84.752 65.354 83.586 65.529 81.598 64.961C79.61 64.393 77.623 64.866 76.392 65.624C75.162 66.381 74.963 65.233 74.783 63.447C74.603 61.661 78.424 60.513 80.437 60.608C82.45 60.702 85.1 61.176 84.911 63.447Z" fill="#CC3A2F"/>
<path d="M104.338 63.447C104.497 65.354 105.663 65.529 107.651 64.961C109.639 64.393 111.626 64.866 112.857 65.624C114.087 66.381 114.286 65.233 114.466 63.447C114.646 61.661 110.825 60.513 108.812 60.608C106.799 60.702 104.149 61.176 104.338 63.447Z" fill="#CC3A2F"/>
</g>
</svg>
