<svg width="261" height="261" viewBox="0 0 261 261" fill="none" xmlns="http://www.w3.org/2000/svg">
<path d="M195.525 195.361C231.415 159.47 231.415 101.28 195.525 65.3891C159.634 29.4983 101.443 29.4983 65.5526 65.3891C29.6618 101.28 29.6618 159.47 65.5526 195.361C101.443 231.252 159.634 231.252 195.525 195.361Z" fill="#1D2C3A"/>
<mask id="mask0_1_651" style="mask-type:luminance" maskUnits="userSpaceOnUse" x="38" y="38" width="185" height="185">
<path d="M195.525 195.361C231.415 159.47 231.415 101.28 195.525 65.3891C159.634 29.4983 101.443 29.4983 65.5526 65.3891C29.6618 101.28 29.6618 159.47 65.5526 195.361C101.443 231.252 159.634 231.252 195.525 195.361Z" fill="white"/>
</mask>
<g mask="url(#mask0_1_651)">
<path d="M100.69 234.473H164.028V156.806C164.028 156.806 148.043 150.968 128.012 152.3C107.982 153.632 90.29 156.409 90.29 156.409L100.69 234.473Z" fill="#FF5A7F"/>
<path d="M106.201 153.906C106.201 153.906 115.308 170.099 128.013 171.289C140.718 172.479 153.811 154.822 153.811 154.822L151.034 150.269L110.165 148.314L106.201 153.906Z" fill="#FFD2DE"/>
<path d="M81.797 153.906C73.858 158.493 66.121 161.171 64.038 170.694C61.955 180.217 58.979 236.164 58.979 236.164H89.333L81.797 153.906Z" fill="#5E1C1C"/>
<path d="M110.164 140.042C110.164 140.042 90.821 151.465 85.464 152.3C80.107 153.136 78.024 159.088 78.024 159.088C78.024 159.088 80.405 190.633 82.19 204.619C83.976 218.606 85.166 238.544 85.166 238.544H107.261C107.261 238.544 110.759 194.203 107.188 170.098C103.617 145.993 110.164 140.042 110.164 140.042Z" fill="#8C3737"/>
<path d="M110.164 153.136C108.378 159.385 110.164 240.628 110.164 240.628H107.188C107.188 240.628 108.973 192.418 107.188 183.491C105.402 174.563 103.617 171.587 98.855 167.719C94.094 163.85 90.29 166.231 90.29 166.231C90.29 166.231 95.084 148.971 100.69 139.448C106.295 129.925 117.223 125.53 117.223 125.53C117.223 125.53 118.794 129.033 118.199 137.663C117.604 146.291 110.164 153.136 110.164 153.136Z" fill="#AD7164"/>
<path d="M180.669 153.906C188.607 158.493 196.345 161.171 198.428 170.694C200.511 180.217 203.487 236.164 203.487 236.164H173.133L180.669 153.906Z" fill="#5E1C1C"/>
<path d="M152.302 140.042C152.302 140.042 171.645 151.465 177.002 152.3C182.359 153.136 184.442 159.088 184.442 159.088C184.442 159.088 182.061 190.633 180.276 204.619C178.49 218.606 177.3 238.544 177.3 238.544H155.205C155.205 238.544 151.707 194.203 155.278 170.098C158.849 145.993 152.302 140.042 152.302 140.042Z" fill="#8C3737"/>
<path d="M148.972 155.274C150.758 161.523 152.302 240.628 152.302 240.628H155.278C155.278 240.628 153.492 192.418 155.278 183.491C157.064 174.563 158.849 171.587 163.611 167.719C168.372 163.85 172.176 166.231 172.176 166.231C172.176 166.231 167.382 148.971 161.776 139.448C156.171 129.925 145.243 125.53 145.243 125.53C145.243 125.53 143.672 129.033 144.267 137.663C144.862 146.291 148.972 155.274 148.972 155.274Z" fill="#AD7164"/>
<path d="M149.934 154.528C149.458 154.528 138.019 166.229 128.615 166.229C119.092 166.229 110.164 153.135 110.164 153.135C110.164 153.135 116.211 144.303 116.806 138.648C116.973 137.005 117.08 135.22 117.151 133.506C117.318 129.292 117.223 125.531 117.223 125.531L145.149 124.769C145.149 124.769 145.042 127.186 144.994 130.411C144.923 133.839 144.923 138.196 145.184 141.529C145.649 147.684 149.72 154.183 149.934 154.528Z" fill="#E6614D"/>
<g opacity="0.44">
<path d="M145.149 124.769C145.149 124.769 145.042 127.186 144.994 130.411C142.494 131.566 138.066 133.196 131.971 133.934C125.638 134.696 120.222 134.053 117.151 133.506C117.318 129.292 117.223 125.531 117.223 125.531L145.149 124.769Z" fill="#A5202D"/>
</g>
<path d="M107.934 187.429C107.912 187.563 107.27 187.555 105.286 187.366C103.302 187.193 99.971 186.792 94.538 186.655C89.105 186.558 85.76 186.814 83.77 186.901C81.78 187.005 81.138 186.984 81.122 186.85C81.108 186.731 81.721 186.521 83.71 186.25C85.697 185.995 89.071 185.632 94.558 185.73C100.045 185.869 103.399 186.377 105.374 186.718C107.35 187.075 107.954 187.31 107.934 187.429Z" fill="#5E1C1C"/>
<path d="M108.94 190.098C108.913 190.233 108.251 190.194 106.206 189.938C104.16 189.702 100.724 189.19 95.105 189.03C89.485 188.92 86.028 189.267 83.974 189.405C81.919 189.563 81.255 189.57 81.235 189.434C81.217 189.317 81.846 189.082 83.899 188.755C85.95 188.449 89.441 187.994 95.128 188.105C100.813 188.267 104.279 188.889 106.313 189.293C108.347 189.717 108.964 189.982 108.94 190.098Z" fill="#5E1C1C"/>
<path d="M181.442 191.623C181.401 191.75 180.766 191.65 178.831 191.152C176.894 190.666 173.663 189.746 168.333 188.625C162.997 187.535 159.666 187.095 157.696 186.771C155.723 186.46 155.1 186.299 155.113 186.166C155.125 186.045 155.769 185.975 157.772 186.121C159.772 186.28 163.144 186.62 168.521 187.719C173.892 188.848 177.122 189.876 179.02 190.526C180.917 191.187 181.48 191.507 181.442 191.623Z" fill="#5E1C1C"/>
<path d="M180.104 194.294C180.076 194.422 179.476 194.401 177.64 194.109C175.802 193.824 172.73 193.248 167.715 192.49C162.697 191.75 159.591 191.404 157.75 191.139C155.908 190.882 155.328 190.727 155.339 190.596C155.349 190.472 155.947 190.396 157.812 190.487C159.675 190.585 162.809 190.83 167.852 191.574C172.892 192.335 175.961 193.017 177.772 193.467C179.58 193.926 180.13 194.173 180.104 194.294Z" fill="#5E1C1C"/>
<path d="M184.095 158.564C184.041 158.682 183.621 158.61 182.406 158.161C181.199 157.695 179.171 156.913 175.879 155.643C172.561 154.441 170.517 153.701 169.301 153.261C168.09 152.802 167.726 152.581 167.762 152.456C167.797 152.336 168.226 152.334 169.493 152.635C170.758 152.941 172.87 153.537 176.203 154.776C179.531 156.028 181.516 156.964 182.671 157.563C183.825 158.167 184.147 158.45 184.095 158.564Z" fill="#5E1C1C"/>
<path d="M77.359 157.981C77.276 157.739 78.9 156.959 86.187 154.444C93.474 151.929 95.234 151.54 95.317 151.782C95.4 152.024 93.776 152.804 86.489 155.319C79.202 157.834 77.442 158.223 77.359 157.981Z" fill="#5E1C1C"/>
<path d="M142.318 204.906C142.288 205.014 141.55 204.966 139.355 204.313C137.181 203.632 133.473 202.413 128.072 199.224C122.714 195.962 119.892 193.266 118.267 191.669C116.657 190.041 116.267 189.412 116.348 189.335C116.451 189.235 117.008 189.702 118.714 191.19C120.436 192.648 123.276 195.22 128.549 198.43C133.864 201.568 137.471 202.862 139.568 203.694C141.683 204.497 142.358 204.768 142.318 204.906Z" fill="#C9395F"/>
<path d="M124.531 189.272C124.55 189.12 125.15 189.156 126.996 189.14C127.918 189.103 129.156 189.062 130.767 188.802C132.37 188.53 134.366 188.076 136.66 187.06C138.958 186.051 140.634 184.878 141.9 183.861C143.176 182.844 144.021 181.944 144.62 181.253C145.792 179.846 146.076 179.313 146.213 179.386C146.304 179.427 146.228 180.075 145.135 181.657C144.576 182.433 143.74 183.424 142.446 184.516C141.16 185.611 139.426 186.857 137.034 187.907C134.646 188.964 132.561 189.412 130.891 189.646C129.212 189.868 127.928 189.841 126.98 189.794C125.083 189.64 124.516 189.372 124.531 189.272Z" fill="#C9395F"/>
<path d="M157.576 92.561C159.812 92.541 161.991 93.665 161.991 93.665C161.991 93.665 159.564 91.534 164.325 86.773C169.087 82.011 170.059 74.472 166.2 71.298C162.341 68.124 154.009 68.891 154.009 68.891C154.009 68.891 155.199 57.013 142.502 51.855C129.805 46.697 124.051 53.244 117.107 53.442C110.163 53.64 105.005 57.608 104.41 60.187C103.815 62.766 104.41 67.131 104.41 67.131C104.41 67.131 101.236 67.131 100.64 69.71C100.045 72.289 100.64 74.67 100.64 74.67C100.64 74.67 97.466 74.472 95.68 79.035C93.895 83.598 95.68 87.795 95.68 87.795C95.68 87.795 96.87 90.145 99.053 90.741C101.235 91.336 99.251 92.819 102.029 94.558C104.807 96.296 116.512 97.232 116.512 97.232L157.576 92.561Z" fill="#752D29"/>
<path d="M105.493 97.432C105.493 98.758 104.418 99.834 103.091 99.834C101.765 99.834 100.689 98.759 100.689 97.432C100.689 96.106 101.764 95.03 103.091 95.03C104.418 95.03 105.493 96.105 105.493 97.432Z" fill="white" stroke="black" stroke-width="0.2689" stroke-miterlimit="10"/>
<path d="M164.028 97.427C164.028 100.57 161.481 103.117 158.338 103.117C157.993 103.117 157.648 103.081 157.314 103.022C155.874 110.759 152.886 122.199 142.565 125.937C131.078 130.091 118.401 128.556 111.723 121.556C108.354 118.009 106.128 109.974 104.747 102.879C104.223 103.034 103.664 103.117 103.092 103.117C99.949 103.117 97.402 100.57 97.402 97.427C97.402 94.308 99.926 91.773 103.044 91.749C102.925 90.618 102.865 89.963 102.865 89.963C102.865 89.963 103.198 88.106 104.841 86.785C106.472 85.476 109.424 87.225 111.721 81.976C114.018 76.727 110.852 73.453 110.852 73.453C110.852 73.453 115.328 75.203 119.601 71.263C123.863 67.323 124.958 69.192 130.6 70.501C136.254 71.81 136.659 73.882 142.016 74.87C147.373 75.858 150.432 73.561 150.432 73.561C150.432 73.561 151.42 74.323 154.146 77.382C156.884 80.453 157.753 84.381 157.753 84.381C157.753 84.381 158.241 87.559 158.324 91.749H158.336C161.481 91.749 164.028 94.296 164.028 97.427Z" fill="#E6614D"/>
<path d="M104.474 86.416C104.45 85.94 104.45 85.737 104.51 85.88C104.581 86.071 104.557 86.249 104.474 86.416Z" fill="#752D29"/>
<path d="M160.743 97.432C160.743 98.758 159.668 99.834 158.341 99.834C157.015 99.834 155.94 98.759 155.94 97.432C155.94 96.106 157.015 95.03 158.341 95.03C159.668 95.03 160.743 96.105 160.743 97.432Z" fill="#C93547"/>
<path d="M104.88 97.432C104.88 98.758 103.805 99.834 102.478 99.834C101.152 99.834 100.076 98.759 100.076 97.432C100.076 96.106 101.151 95.03 102.478 95.03C103.804 95.03 104.88 96.105 104.88 97.432Z" fill="#C93547"/>
<path d="M129.996 109.059C130.062 109.162 130.055 109.326 129.846 109.54C129.64 109.746 129.207 110.007 128.494 110.053C127.813 110.067 126.738 109.991 125.778 108.861C124.844 107.77 124.821 105.547 126.409 104.162C126.957 103.676 127.572 103.381 128.157 103.224C128.304 103.187 128.449 103.156 128.591 103.137C128.685 103.122 128.697 103.123 128.697 103.123C128.704 103.123 128.72 103.124 128.72 103.124L128.75 103.141C128.763 103.145 128.766 103.133 128.776 103.122L128.789 103.099C128.789 102.992 128.788 102.888 128.788 102.787C128.794 102.376 128.8 102.007 128.804 101.679C128.826 101.021 128.868 100.519 128.925 100.141C129.041 99.386 129.221 99.129 129.43 99.118C129.639 99.107 129.845 99.344 130.039 100.083C130.136 100.452 130.23 100.947 130.32 101.6C130.359 101.927 130.403 102.292 130.452 102.701C130.463 102.805 130.473 102.911 130.484 103.021C130.5 103.229 130.515 103.443 130.532 103.662C130.562 104.105 130.593 104.57 130.626 105.058C130.258 105.015 129.849 104.967 129.404 104.914C129.289 104.899 129.205 104.917 129.101 104.917C128.991 104.92 128.893 104.925 128.879 104.935C128.802 104.948 128.722 104.969 128.64 104.991C128.314 105.088 127.948 105.27 127.64 105.546C126.786 106.318 126.812 107.362 127.16 107.861C127.488 108.388 128.146 108.645 128.571 108.747C129.466 108.936 129.844 108.811 129.996 109.059Z" fill="#AA3039"/>
<path d="M135.465 115.65C135.523 115.755 135.375 115.989 134.702 116.39C134.03 116.774 132.816 117.374 130.69 117.687C128.558 117.961 127.227 117.712 126.476 117.524C125.72 117.32 125.514 117.135 125.541 117.018C125.571 116.886 125.829 116.845 126.574 116.877C127.317 116.895 128.565 117.027 130.563 116.771C132.555 116.478 133.721 116.013 134.432 115.795C135.142 115.561 135.401 115.531 135.465 115.65Z" fill="#AA3039"/>
<path d="M118.199 97.982C118.199 100.119 117.355 101.851 116.314 101.851C115.273 101.851 114.429 100.119 114.429 97.982C114.429 95.845 115.273 94.113 116.314 94.113C117.355 94.113 118.199 95.845 118.199 97.982Z" fill="#350E0D"/>
<path d="M146.017 97.982C146.017 100.119 145.173 101.851 144.132 101.851C143.091 101.851 142.247 100.119 142.247 97.982C142.247 95.845 143.091 94.113 144.132 94.113C145.173 94.113 146.017 95.845 146.017 97.982Z" fill="#350E0D"/>
<path d="M120.07 89.169C119.751 89.395 119.349 89.384 118.754 89.104C118.161 88.866 117.305 88.234 116.011 88.187C114.717 88.226 113.859 88.853 113.265 89.088C112.669 89.365 112.267 89.375 111.949 89.148C111.645 88.933 111.46 88.526 111.844 87.733C112.045 87.346 112.396 86.86 113.046 86.381C113.687 85.914 114.667 85.421 116.02 85.41C117.372 85.43 118.349 85.928 118.987 86.398C119.634 86.88 119.982 87.368 120.182 87.755C120.561 88.549 120.375 88.955 120.07 89.169Z" fill="#752D29"/>
<path d="M148.409 88.82C148.122 89.079 147.698 89.106 147.019 88.757C146.681 88.592 146.278 88.333 145.819 88.11C145.35 87.893 144.888 87.725 144.08 87.723C142.453 87.76 141.714 88.293 141.171 88.558C140.632 88.859 140.245 88.981 139.882 88.82C139.553 88.681 139.251 88.285 139.627 87.346C139.971 86.456 141.428 84.955 144.086 84.946C145.394 84.919 146.578 85.433 147.231 85.977C147.905 86.52 148.226 87.012 148.428 87.39C148.81 88.157 148.691 88.566 148.409 88.82Z" fill="#752D29"/>
<path d="M142.111 61.545C142.161 61.442 142.483 61.435 143.305 61.857C144.099 62.29 145.488 63.157 146.893 65.282C148.242 67.443 148.453 69.067 148.515 69.969C148.557 70.892 148.416 71.182 148.302 71.185C148.161 71.191 148.068 70.907 147.867 70.064C147.646 69.235 147.357 67.777 146.114 65.782C144.818 63.821 143.612 62.952 142.95 62.407C142.266 61.873 142.047 61.671 142.111 61.545Z" fill="#541615"/>
<path d="M134.683 65.208C134.782 65.125 135.063 65.289 135.742 65.966C136.441 66.615 137.446 67.894 139.442 69.458C141.481 70.967 143.033 71.327 143.916 71.529C144.818 71.704 145.13 71.755 145.137 71.897C145.145 72.009 144.845 72.196 143.838 72.179C142.857 72.138 141.079 71.826 138.886 70.198C136.754 68.524 135.823 67.151 135.243 66.389C134.687 65.598 134.586 65.289 134.683 65.208Z" fill="#541615"/>
<path d="M138.091 65.258C138.255 65.062 138.639 65.112 139.722 66.015C140.806 66.918 140.925 67.287 140.761 67.483C140.597 67.679 140.213 67.629 139.13 66.726C138.046 65.823 137.927 65.454 138.091 65.258Z" fill="#541615"/>
<path d="M112.168 67.864C112.274 67.726 112.583 68.09 113.78 68.31C114.375 68.394 115.228 68.396 116.246 68.015C117.283 67.637 118.425 66.817 119.857 65.701C121.293 64.586 122.689 63.811 123.954 63.612C125.235 63.406 126.211 63.722 126.834 64.073C127.464 64.438 127.756 64.847 127.887 65.103C128.017 65.367 128.008 65.494 127.956 65.523C127.897 65.557 127.798 65.491 127.602 65.324C127.404 65.161 127.097 64.892 126.542 64.659C125.995 64.436 125.159 64.237 124.114 64.449C123.049 64.661 121.827 65.345 120.416 66.439C119.005 67.538 117.735 68.433 116.534 68.818C115.327 69.216 114.328 69.139 113.642 68.95C112.949 68.753 112.56 68.45 112.36 68.244C112.159 68.031 112.128 67.908 112.168 67.864Z" fill="#541615"/>
<path d="M114.219 63.996C114.216 64.223 113.901 64.522 112.721 64.171C111.567 63.742 111.496 63.313 111.63 63.13C111.785 62.898 112.063 62.942 113.015 63.293C113.986 63.586 114.235 63.717 114.219 63.996Z" fill="#541615"/>
<path d="M133.982 55.881C133.972 55.768 134.339 55.588 135.552 55.506C136.751 55.45 138.865 55.43 142.026 56.519C145.163 57.674 146.788 59.027 147.682 59.828C148.57 60.659 148.74 61.03 148.661 61.112C148.564 61.215 148.232 61.012 147.272 60.339C146.304 59.692 144.706 58.493 141.716 57.392C138.703 56.354 136.707 56.272 135.548 56.162C134.378 56.075 133.992 56.022 133.982 55.881Z" fill="#541615"/>
<path d="M118.331 57.731C118.28 57.619 118.527 57.367 119.46 56.89C120.394 56.424 122.016 55.7 124.788 54.98C127.566 54.284 129.336 54.142 130.38 54.104C131.428 54.076 131.765 54.179 131.774 54.302C131.784 54.434 131.464 54.562 130.452 54.755C129.442 54.958 127.731 55.198 125.018 55.877C122.311 56.581 120.694 57.19 119.71 57.496C118.728 57.811 118.385 57.852 118.331 57.731Z" fill="#541615"/>
<path d="M103.129 71.383C103.266 71.39 103.338 71.646 103.462 72.39C103.615 73.116 103.77 74.414 104.831 76.144C105.378 76.993 105.942 77.601 106.442 77.922C106.947 78.254 107.385 78.315 107.718 78.317C108.376 78.288 108.59 78.111 108.688 78.23C108.729 78.274 108.73 78.369 108.613 78.515C108.498 78.657 108.251 78.861 107.804 78.966C107.372 79.069 106.696 79.049 106.004 78.655C105.308 78.264 104.659 77.583 104.05 76.642C102.862 74.705 102.8 73.228 102.809 72.435C102.85 71.616 103.012 71.376 103.129 71.383Z" fill="#541615"/>
<path d="M99.557 83.067C99.64 82.962 99.813 82.971 100.203 83.124C100.595 83.267 101.21 83.588 102.298 83.784C103.391 83.952 104.077 83.848 104.494 83.84C104.913 83.821 105.079 83.869 105.124 83.995C105.165 84.109 105.079 84.281 104.649 84.475C104.226 84.656 103.425 84.894 102.146 84.697C100.872 84.469 100.192 83.984 99.85 83.676C99.507 83.352 99.481 83.161 99.557 83.067Z" fill="#541615"/>
<path d="M164.963 78.363C164.81 78.337 164.872 77.989 164.657 77.05C164.43 76.157 163.731 74.465 161.192 73.377C158.643 72.358 156.863 72.374 155.863 72.297C154.842 72.259 154.5 72.226 154.481 72.089C154.464 71.973 154.773 71.775 155.839 71.643C156.888 71.556 158.78 71.418 161.558 72.527C162.937 73.116 163.916 73.955 164.484 74.788C165.055 75.618 165.25 76.382 165.302 76.941C165.37 78.083 165.052 78.393 164.963 78.363Z" fill="#541615"/>
<path d="M161.08 81.732C160.948 81.706 160.877 81.55 160.83 81.138C160.773 80.731 160.765 80.044 160.401 79.015C160.009 77.995 159.568 77.469 159.347 77.122C159.116 76.779 159.068 76.614 159.151 76.508C159.225 76.413 159.417 76.393 159.807 76.657C160.182 76.922 160.804 77.486 161.268 78.694C161.7 79.913 161.594 80.747 161.481 81.192C161.357 81.646 161.199 81.756 161.08 81.732Z" fill="#541615"/>
<path d="M159.362 90.737C158.291 90.439 158.291 90.439 158.291 90.439C158.291 90.439 156.279 94.998 155.946 97.426C155.601 99.866 154.41 107.401 152.72 111.568C151.03 115.734 147.756 119.008 146.673 119.008C145.578 119.008 141.209 111.973 139.031 111.175C136.853 110.377 126.532 110.485 124.056 110.532C121.568 110.58 119.485 112.365 117.604 113.853C115.723 115.341 112.938 117.031 112.938 117.031C112.938 117.031 109.676 109.841 107.581 103.639C105.831 98.437 104.629 88.855 104.474 86.415C104.153 87.01 103.01 87.486 102.629 88.26C102.129 89.248 103.046 91.748 103.046 91.748C104.415 98.378 104.117 103.64 104.713 106.913C105.308 110.186 108.284 119.305 109.867 122.185C111.45 125.066 116.807 130.613 129.603 130.613C142.399 130.613 151.232 124.768 153.517 120.007C155.791 115.246 158.505 105.08 158.338 103.116C158.171 101.152 157.326 95.986 158.35 93.915C159.362 91.844 161.469 92.689 161.469 92.689C161.469 92.689 160.445 91.034 159.362 90.737ZM144.09 121.793C143.59 122.388 139.721 125.555 130.103 125.555C120.485 125.555 116.414 121.793 116.319 120.401C116.319 120.401 116.212 119.711 116.914 119.401C117.605 119.092 121.378 114.949 122.759 114.247C124.152 113.557 125.842 113.164 130.223 113.259C134.615 113.354 137.044 112.961 138.829 113.854C140.614 114.746 144.589 121.198 144.09 121.793Z" fill="#752D29"/>
</g>
</svg>
