<svg width="125" height="119" viewBox="0 0 125 119" fill="none" xmlns="http://www.w3.org/2000/svg">
<path d="M62.361 118.59C96.495 118.59 124.166 92.2281 124.166 59.709C124.166 27.1899 96.495 0.828003 62.361 0.828003C28.227 0.828003 0.556015 27.1899 0.556015 59.709C0.556015 92.2281 28.227 118.59 62.361 118.59Z" fill="#FFC7AA"/>
<mask id="mask0_0_1" style="mask-type:luminance" maskUnits="userSpaceOnUse" x="0" y="0" width="125" height="119">
<path d="M62.361 118.59C96.495 118.59 124.166 92.2281 124.166 59.709C124.166 27.1899 96.495 0.828003 62.361 0.828003C28.227 0.828003 0.556015 27.1899 0.556015 59.709C0.556015 92.2281 28.227 118.59 62.361 118.59Z" fill="white"/>
</mask>
<g mask="url(#mask0_0_1)">
<path d="M77.447 96C77.447 96 85.084 96.888 89.312 99.325C93.539 101.762 96.085 108.416 96.085 108.416C96.085 108.416 79.251 121.236 57.062 120.381C34.873 119.526 19.691 102.466 19.691 102.466C19.691 102.466 22.538 94.904 28.67 92.093C32.635 90.276 41.772 90.355 41.772 90.355L77.447 96Z" fill="#4D7D80"/>
<path d="M84.1383 49.1478C86.6687 37.0236 78.6753 25.0986 66.2845 22.5127C53.8938 19.9267 41.7979 27.6589 39.2675 39.7831C36.7371 51.9073 44.7305 63.8323 57.1213 66.4183C69.512 69.0043 81.6079 61.272 84.1383 49.1478Z" fill="#7A5414"/>
<path d="M48.274 58.988C49.45 61.448 48.978 64.123 47.221 64.962C45.464 65.802 43.087 64.488 41.911 62.028C40.735 59.568 41.207 56.893 42.964 56.054C44.721 55.214 47.098 56.528 48.274 58.988Z" fill="#9E3838"/>
<path d="M58.449 109.334C67.23 109.52 77.177 103.928 79.798 96.004C67.665 93.673 53.52 91.92 41.771 90.356C42.027 100.724 47.974 109.112 58.449 109.334Z" fill="#333E67"/>
<path d="M56.617 31.363C56.617 31.363 58.643 42.844 71.182 47.772C72.787 48.403 73.817 49.984 73.779 51.709L72.726 98.934C72.726 98.934 66.864 106.243 56.542 104.088C46.221 101.933 47.548 94.237 47.548 94.237L50.7 77.129C50.7 77.129 44.434 72.675 46.214 64.442C46.214 64.442 44.911 54.577 44.493 51.913C43.474 45.406 55.916 38.071 56.617 31.363Z" fill="#E06F6F"/>
<path d="M50.7 77.129C55.59 78.693 63.575 77.804 68.022 74.092C68.674 73.548 69.67 74.044 69.567 74.888C69.309 76.984 68.32 79.88 64.979 81.206C59.428 83.409 56.159 91.567 48.649 88.268L50.7 77.129Z" fill="#9E3838"/>
<path d="M88.357 28.05C84.394 33.895 78.565 32.898 72.719 28.935C66.873 24.972 63.225 19.543 67.188 13.698C71.152 7.852 79.103 6.327 84.949 10.29C90.795 14.253 92.321 22.205 88.357 28.05Z" fill="#7A5414"/>
<path d="M73.046 58.396C74.382 54.475 77.511 52.196 79.358 53.734C81.803 55.771 77.806 66.571 73.443 66.824C69.08 67.077 73.046 58.396 73.046 58.396Z" fill="#E06F6F"/>
<path d="M60.867 48.457C63.783 47.817 66.709 48.524 68.178 49.311" stroke="#7A5414" stroke-width="2.1074" stroke-miterlimit="10"/>
<path d="M53.912 48.169C53.912 48.169 49.541 46.435 46.995 48.634" stroke="#7A5414" stroke-width="2.1074" stroke-miterlimit="10"/>
<path d="M77.759 66.968C77.441 68.493 75.946 69.471 74.421 69.153C72.896 68.835 71.918 67.34 72.236 65.815C72.554 64.29 74.049 63.312 75.574 63.63C77.099 63.949 78.078 65.443 77.759 66.968Z" fill="#A23333"/>
<path d="M52.97 53.783C52.943 55.07 52.295 56.099 51.523 56.083C50.751 56.067 50.147 55.01 50.175 53.724C50.202 52.437 50.85 51.408 51.622 51.424C52.394 51.44 52.997 52.496 52.97 53.783Z" fill="#2A2A2A"/>
<path d="M65.79 53.934C65.763 55.22 65.115 56.25 64.343 56.234C63.571 56.218 62.967 55.161 62.995 53.875C63.022 52.588 63.67 51.559 64.442 51.575C65.214 51.591 65.818 52.647 65.79 53.934Z" fill="#2A2A2A"/>
<path d="M55.686 51.903C55.92 53.831 54.052 57.946 52.892 60.21C52.586 60.807 53.089 61.494 53.751 61.388L57.649 60.764" stroke="#612525" stroke-width="0.9662" stroke-miterlimit="10"/>
<path d="M54.876 65.072C54.876 65.072 58.784 66.273 62.079 63.155" stroke="#612525" stroke-width="0.9662" stroke-miterlimit="10"/>
</g>
</svg>
