<svg width="125" height="119" viewBox="0 0 125 119" fill="none" xmlns="http://www.w3.org/2000/svg">
<path d="M62.361 118.523C96.495 118.523 124.166 92.1611 124.166 59.642C124.166 27.1229 96.495 0.760986 62.361 0.760986C28.227 0.760986 0.556015 27.1229 0.556015 59.642C0.556015 92.1611 28.227 118.523 62.361 118.523Z" fill="#FFC7AA"/>
<mask id="mask0_0_1" style="mask-type:luminance" maskUnits="userSpaceOnUse" x="0" y="0" width="125" height="119">
<path d="M62.361 118.523C96.495 118.523 124.166 92.1611 124.166 59.642C124.166 27.1229 96.495 0.760986 62.361 0.760986C28.227 0.760986 0.556015 27.1229 0.556015 59.642C0.556015 92.1611 28.227 118.523 62.361 118.523Z" fill="white"/>
</mask>
<g mask="url(#mask0_0_1)">
<path d="M84.395 86.159C84.395 86.159 96.145 88.729 99.8 92.695C106.375 99.83 104.997 105.99 104.997 105.99C104.997 105.99 86.811 120.91 62.284 119.965C37.756 119.02 15.943 105.279 15.943 105.279C15.943 105.279 25.594 87.452 32.373 84.345C36.756 82.336 44.961 79.918 44.961 79.918L84.395 86.159Z" fill="#4D7D80"/>
<path d="M60.664 42.515C60.664 42.515 60.351 45.952 62.435 48.764C64.518 51.576 65.456 51.472 65.768 54.493C66.081 57.514 65.202 58.972 66.266 61.888" stroke="#9E6C19" stroke-width="0.7558" stroke-miterlimit="10"/>
<path d="M84.455 41.602C81.657 55.004 68.286 63.55 54.589 60.691C40.892 57.832 36.12 45.016 38.918 31.614C41.716 18.212 51.751 17.503 65.448 20.363C79.145 23.221 87.253 28.2 84.455 41.602Z" fill="#7A5414"/>
<path d="M54.035 21.946C54.035 21.946 57.39 32.088 71.251 37.535C73.025 38.232 73.049 42.53 73.006 44.436L71.842 96.638C71.842 96.638 65.362 104.717 53.953 102.336C42.544 99.954 44.011 91.447 44.011 91.447L47.495 72.536C47.495 72.536 40.569 67.613 42.537 58.512C42.537 58.512 41.096 47.608 40.635 44.662C39.506 37.468 53.26 29.361 54.035 21.946Z" fill="#E06F6F"/>
<path d="M47.494 72.536C52.899 74.265 61.726 73.282 66.641 69.178C67.362 68.576 68.463 69.125 68.348 70.057C68.063 72.373 66.97 75.575 63.276 77.041C57.14 79.476 53.526 88.493 45.225 84.848L47.494 72.536Z" fill="#9E3838"/>
<path d="M72.195 51.828C73.671 47.494 77.131 44.975 79.172 46.675C81.875 48.926 77.456 60.865 72.633 61.145C67.811 61.424 72.195 51.828 72.195 51.828Z" fill="#E06F6F"/>
<path d="M58.733 40.841C61.956 40.134 65.191 40.915 66.814 41.785" stroke="#312A45" stroke-width="2.1074" stroke-miterlimit="10" stroke-linecap="round"/>
<path d="M51.045 40.523C51.045 40.523 46.214 38.606 43.399 41.037" stroke="#312A45" stroke-width="2.1074" stroke-miterlimit="10" stroke-linecap="round"/>
<path d="M50.004 46.729C49.974 48.151 49.258 49.289 48.404 49.271C47.551 49.253 46.883 48.086 46.914 46.663C46.944 45.241 47.66 44.103 48.514 44.121C49.367 44.139 50.034 45.306 50.004 46.729Z" fill="#2A2A2A"/>
<path d="M64.175 46.896C64.145 48.318 63.429 49.456 62.575 49.438C61.722 49.42 61.054 48.252 61.085 46.83C61.115 45.408 61.831 44.27 62.685 44.288C63.538 44.306 64.205 45.474 64.175 46.896Z" fill="#2A2A2A"/>
<path d="M53.006 44.65C53.265 46.781 51.199 51.33 49.918 53.833C49.58 54.493 50.136 55.252 50.868 55.135L55.177 54.446" stroke="#612525" stroke-width="0.9662" stroke-miterlimit="10"/>
<path d="M52.11 59.208C52.11 59.208 56.43 60.535 60.073 57.088" stroke="#612525" stroke-width="0.9662" stroke-miterlimit="10"/>
<path d="M68.357 12.308C76.581 13.492 86.569 21.896 88.306 36.424C90.043 50.952 77.765 63.365 76.976 68.926C76.186 74.487 87.173 79.505 89.501 87.055C89.501 87.055 74.346 113.346 51.045 108.281C27.744 103.216 37.163 82.455 37.163 82.455L46.166 71.345C46.166 71.345 59.97 75.75 66.815 67.381C73.66 59.012 73.362 42.938 72.237 41.785C71.113 40.632 63.303 34.298 55.177 34.14C47.051 33.982 41.744 37.772 40.568 43.22L41.932 53.988C41.932 53.988 34.033 46.137 36.608 33.509C40.714 13.374 58.308 10.861 68.357 12.308Z" fill="#9E3838"/>
<path d="M40.568 43.22C40.568 43.22 36.392 31.899 47.222 27.35C57.513 23.027 65.337 28.061 69.179 31.851C73.021 35.641 72.701 43.506 72.701 43.506C72.701 43.506 67.153 34.219 53.724 35.759C40.293 37.298 40.568 43.22 40.568 43.22Z" fill="#312A45"/>
</g>
</svg>
