<svg width="124" height="119" viewBox="0 0 124 119" fill="none" xmlns="http://www.w3.org/2000/svg">
<path d="M61.994 118.749C96.128 118.749 123.799 92.3871 123.799 59.868C123.799 27.3489 96.128 0.987 61.994 0.987C27.86 0.987 0.188995 27.3489 0.188995 59.868C0.188995 92.3871 27.86 118.749 61.994 118.749Z" fill="#FDC6AA"/>
<mask id="mask0_0_1" style="mask-type:luminance" maskUnits="userSpaceOnUse" x="0" y="0" width="124" height="119">
<path d="M61.994 118.749C96.128 118.749 123.799 92.3871 123.799 59.868C123.799 27.3489 96.128 0.987 61.994 0.987C27.86 0.987 0.188995 27.3489 0.188995 59.868C0.188995 92.3871 27.86 118.749 61.994 118.749Z" fill="white"/>
</mask>
<g mask="url(#mask0_0_1)">
<path d="M84.167 96.102C84.167 96.102 92.392 97.059 96.944 99.683C101.496 102.307 104.238 109.473 104.238 109.473C104.238 109.473 86.109 123.279 62.213 122.358C38.317 121.438 21.967 103.065 21.967 103.065C21.967 103.065 25.755 96.223 32.358 93.196C36.628 91.239 49.694 91.144 49.694 91.144L84.167 96.102Z" fill="#4D7D80"/>
<path d="M38.126 34.615L40.905 53.844C40.905 53.844 31.794 75.845 50.17 75.999L46.401 94.307C45.957 96.463 46.87 98.67 48.713 99.875C50.449 101.011 53.152 102.172 57.274 102.713C63.971 103.591 71.917 99.864 75.951 97.636C77.574 96.74 78.603 95.057 78.639 93.203L79.389 53.843L69.164 28.484L38.126 34.615Z" fill="#E06F6F"/>
<path d="M50.17 75.999C56.604 75.793 64.428 74.043 68.855 67.248C73.431 68.621 71.01 77.48 65.931 79.573C64.536 80.148 63.336 81.078 62.35 82.221C56.889 88.548 47.791 87.558 47.791 87.558L50.17 75.999Z" fill="#9E3838"/>
<path d="M49.296 48.706C49.296 50.092 48.622 51.215 47.79 51.215C46.959 51.215 46.284 50.092 46.284 48.706C46.284 47.32 46.958 46.197 47.79 46.197C48.622 46.196 49.296 47.32 49.296 48.706Z" fill="#2A2A2A"/>
<path d="M61.597 51.085C62.4287 51.085 63.103 49.9617 63.103 48.576C63.103 47.1903 62.4287 46.067 61.597 46.067C60.7653 46.067 60.091 47.1903 60.091 48.576C60.091 49.9617 60.7653 51.085 61.597 51.085Z" fill="#2A2A2A"/>
<path d="M52.178 46.619C52.474 48.69 50.556 53.163 49.36 55.627C49.045 56.277 49.602 57.005 50.312 56.876L54.495 56.116" stroke="#612525" stroke-width="0.9662" stroke-miterlimit="10"/>
<path d="M48.24 60.712C48.24 60.712 55.575 62.797 61.597 56.852" stroke="#612525" stroke-width="0.9662" stroke-miterlimit="10"/>
<path d="M48.78 65.035C48.78 65.035 52.718 63.491 55.574 65.035" stroke="#612525" stroke-width="0.9662" stroke-miterlimit="10"/>
<path d="M54.494 43.803C55.807 40.715 61.52 38.012 64.454 42.877" stroke="#312A45" stroke-width="2.1074" stroke-miterlimit="10" stroke-linecap="round"/>
<path d="M43.144 44.652C44.534 41.487 48.626 42.181 50.093 44.266" stroke="#312A45" stroke-width="2.1074" stroke-miterlimit="10" stroke-linecap="round"/>
<path d="M74.591 49.646C74.591 49.646 67.395 43.349 66.795 33.754C61.997 41.55 49.404 35.253 49.404 35.253C49.404 35.253 42.292 39.572 38.125 34.614C38.796 29.713 71.892 18.761 71.892 18.761C71.892 18.761 85.838 22.424 83.739 34.417C81.64 46.411 79.388 53.842 79.388 53.842L74.591 49.646Z" fill="#312A45"/>
<path d="M84.236 54.359C82.752 57.712 79.378 59.47 76.7 58.285C74.023 57.1 73.055 53.421 74.54 50.067C76.024 46.714 79.398 44.956 82.076 46.141C84.753 47.326 85.721 51.005 84.236 54.359Z" fill="#E06F6F"/>
<path d="M75.855 52.939C76.781 49.439 82.032 47.06 82.546 52.213" stroke="#9E3838" stroke-width="0.9662" stroke-miterlimit="10"/>
<path d="M41.778 28.485C41.778 28.485 42.104 25.545 46.619 17.978C51.134 10.411 64.892 8.898 72.183 12.2C79.475 15.502 85.946 21.463 84.933 29.948C83.919 38.432 84.933 40.212 84.933 40.212L41.778 28.485Z" fill="#8F3935"/>
<path d="M79.388 75.52C79.388 75.52 61.058 90.546 59.535 102.845C59.535 102.845 64.409 104.515 75.76 101.936C87.11 99.356 89 96.942 89 96.942C89 96.942 93.904 79.513 79.388 75.52Z" fill="#312A45"/>
<path d="M49.138 79.751C49.138 79.751 54.656 92.085 53.703 102.015C53.703 102.015 47.487 102.864 42.534 96.157C37.582 89.45 44.392 79.751 49.138 79.751Z" fill="#312A45"/>
<path d="M38.126 29.294C38.126 29.294 40.613 24.136 53.456 25.584C73.844 27.883 85.39 37.096 86.766 40.211C88.142 43.326 84.203 48.146 84.203 48.146C84.203 48.146 48.439 29.563 38.935 40.211C38.935 40.211 34.129 35.588 38.126 29.294Z" fill="#A54646"/>
<path d="M43.479 29.397L43.144 34.006C43.144 34.006 48.932 33.181 57.186 34.419L58.218 29.741C58.218 29.741 50.12 26.659 43.479 29.397Z" fill="#D1932A"/>
</g>
</svg>
