<svg width="125" height="119" viewBox="0 0 125 119" fill="none" xmlns="http://www.w3.org/2000/svg">
<path d="M62.547 118.59C96.681 118.59 124.352 92.2281 124.352 59.709C124.352 27.1899 96.681 0.828003 62.547 0.828003C28.413 0.828003 0.742004 27.1899 0.742004 59.709C0.742004 92.2281 28.413 118.59 62.547 118.59Z" fill="#FDC6AA"/>
<mask id="mask0_0_1" style="mask-type:luminance" maskUnits="userSpaceOnUse" x="0" y="0" width="125" height="119">
<path d="M62.547 118.59C96.681 118.59 124.352 92.2281 124.352 59.709C124.352 27.1899 96.681 0.828003 62.547 0.828003C28.413 0.828003 0.742004 27.1899 0.742004 59.709C0.742004 92.2281 28.413 118.59 62.547 118.59Z" fill="white"/>
</mask>
<g mask="url(#mask0_0_1)">
<path d="M86.817 97.084C86.817 97.084 95.042 98.041 99.594 100.665C104.146 103.289 106.888 110.455 106.888 110.455C106.888 110.455 88.759 124.261 64.863 123.34C40.967 122.42 24.617 104.047 24.617 104.047C24.617 104.047 28.404 97.205 35.008 94.178C39.278 92.221 52.344 92.126 52.344 92.126L86.817 97.084Z" fill="#4D7D80"/>
<path d="M65.878 91.214C59.478 91.374 53.11 90.832 47.575 92.281C46.495 100.313 49.74 106.82 59.479 108.462C69.85 110.21 83.585 103.65 89.754 97.652C80.138 93.51 71.75 91.067 65.878 91.214Z" fill="#D1932A"/>
<path d="M44.736 41.882L47.24 59.202C47.24 59.202 39.034 79.019 55.586 79.159L52.191 95.65C51.791 97.592 52.614 99.58 54.273 100.666C55.837 101.689 58.271 102.735 61.985 103.222C68.018 104.013 75.175 100.656 78.808 98.649C80.27 97.842 81.197 96.326 81.229 94.656L81.905 59.203L72.695 36.361L44.736 41.882Z" fill="#E06F6F"/>
<path d="M55.585 79.159C61.38 78.973 68.428 77.397 72.415 71.277C76.537 72.514 74.356 80.493 69.781 82.379C68.524 82.897 67.443 83.735 66.555 84.764C61.636 90.463 53.441 89.571 53.441 89.571L55.585 79.159Z" fill="#9E3838"/>
<path d="M54.798 54.574C54.798 55.822 54.191 56.834 53.442 56.834C52.693 56.834 52.086 55.822 52.086 54.574C52.086 53.326 52.693 52.314 53.442 52.314C54.19 52.314 54.798 53.326 54.798 54.574Z" fill="#2A2A2A"/>
<path d="M67.234 54.458C67.234 55.706 66.627 56.718 65.878 56.718C65.129 56.718 64.522 55.706 64.522 54.458C64.522 53.21 65.129 52.198 65.878 52.198C66.627 52.197 67.234 53.209 67.234 54.458Z" fill="#2A2A2A"/>
<path d="M57.393 52.695C57.659 54.56 55.932 58.589 54.854 60.809C54.57 61.394 55.071 62.05 55.711 61.934L59.479 61.249" stroke="#612525" stroke-width="0.9662" stroke-miterlimit="10"/>
<path d="M53.846 65.389C53.846 65.389 60.453 67.267 65.878 61.912" stroke="#612525" stroke-width="0.9662" stroke-miterlimit="10"/>
<path d="M54.333 69.284C54.333 69.284 57.88 67.893 60.453 69.284" stroke="#612525" stroke-width="0.9662" stroke-miterlimit="10"/>
<path d="M59.48 50.158C60.662 47.376 65.809 44.942 68.451 49.323" stroke="#8F3935" stroke-width="2.1074" stroke-miterlimit="10" stroke-linecap="round" stroke-linejoin="round"/>
<path d="M49.256 50.923C50.508 48.072 54.194 48.698 55.515 50.575" stroke="#8F3935" stroke-width="2.1074" stroke-miterlimit="10" stroke-linecap="round" stroke-linejoin="round"/>
<path d="M77.582 55.422C77.582 55.422 71.1 49.75 70.56 41.108C66.239 48.13 54.895 42.458 54.895 42.458C54.895 42.458 47.873 47.049 43.281 42.458C37.609 45.429 31.8 38.823 35.277 33.259C27.488 24.913 40.352 4.37601 55.726 18.15C71.117 12.858 75.151 27.603 75.151 27.603C75.151 27.603 90.276 30.574 88.385 41.377C86.494 52.18 81.903 59.203 81.903 59.203L77.582 55.422Z" fill="#8F3935"/>
<path d="M86.27 59.667C84.933 62.688 81.894 64.271 79.482 63.203C77.07 62.135 76.199 58.821 77.536 55.801C78.873 52.78 81.912 51.197 84.324 52.265C86.736 53.332 87.607 56.646 86.27 59.667Z" fill="#E06F6F"/>
<path d="M78.721 58.388C79.556 55.235 84.285 53.092 84.748 57.734" stroke="#9E3838" stroke-width="0.9662" stroke-miterlimit="10"/>
</g>
</svg>
