<svg width="140" height="141" viewBox="0 0 140 141" fill="none" xmlns="http://www.w3.org/2000/svg">
<path d="M138.776 81.7015C145.027 43.6947 119.285 7.81615 81.278 1.5645C43.2712 -4.68715 7.3926 21.0555 1.14095 59.0623C-5.1107 97.0691 20.632 132.948 58.6388 139.199C96.6455 145.451 132.524 119.708 138.776 81.7015Z" fill="#FFC7AA"/>
<mask id="mask0_0_1" style="mask-type:luminance" maskUnits="userSpaceOnUse" x="0" y="0" width="140" height="141">
<path d="M138.776 81.7015C145.027 43.6947 119.285 7.81614 81.278 1.56449C43.2712 -4.68716 7.3926 21.0555 1.14095 59.0623C-5.1107 97.0691 20.632 132.948 58.6388 139.199C96.6455 145.451 132.524 119.708 138.776 81.7015Z" fill="white"/>
</mask>
<g mask="url(#mask0_0_1)">
<path d="M123.394 139.481H1.555C1.555 139.481 4.444 110.166 17.662 100.663C25.562 94.99 36.15 91.4 43.378 89.442C48.245 88.108 51.585 87.522 51.585 87.522L78.529 88.664C78.529 88.664 81.678 89.24 86.151 90.565C91.757 92.226 99.436 95.067 105.627 99.425C116.78 107.277 123.394 139.481 123.394 139.481Z" fill="#4D7D80"/>
<path d="M78.815 81.867L78.527 88.665C77.705 89.274 76.877 89.799 76.049 90.249C63.945 96.838 51.583 87.524 51.583 87.524L52.581 63.955L75.686 79.732L78.815 81.867Z" fill="#E69680"/>
<path d="M78.815 81.867L78.527 88.665C77.705 89.274 76.877 89.799 76.049 90.249C66.167 85.845 59.298 74.989 59.298 74.989L75.686 79.731L78.815 81.867Z" fill="#302922"/>
<path d="M88.586 52.101C88.586 52.101 92.64 47.703 94.629 52.357C96.618 57.011 94.549 66.172 88.737 64.413L88.586 52.101Z" fill="#E06C5C"/>
<path d="M93.533 32.913C93.533 32.913 97.948 34.691 95.804 39.714C93.659 44.737 93.812 45.778 94.376 48.921C94.94 52.064 92.337 54.504 91.442 54.157C90.547 53.809 82.903 30.304 93.533 32.913Z" fill="#302922"/>
<path d="M92.026 68.271C92.026 68.271 91.451 82.326 76.834 81.675C62.307 81.032 52.89 69.204 52.397 68.654C52.389 68.645 52.382 68.64 52.382 68.64L52.348 65.679L52.171 50.313L52.076 42.1C52.076 42.1 50.845 27.266 64.982 25.17C75.31 23.637 84.846 25.746 89.467 31.296C89.616 31.475 89.761 31.658 89.896 31.846C91.343 33.789 92.217 36.121 92.364 38.834L92.194 53.572L92.153 57.184L92.026 68.271Z" fill="#E69680"/>
<path d="M81 64.891C80.357 64.921 79.636 64.867 78.833 64.693C74.68 63.789 71.916 60.078 71.801 59.92C71.624 59.679 71.676 59.341 71.917 59.164C72.158 58.987 72.496 59.039 72.673 59.279C72.699 59.314 75.318 62.819 79.063 63.635C82.773 64.442 84.373 62.248 84.389 62.225C84.562 61.98 84.899 61.923 85.143 62.095C85.387 62.267 85.445 62.605 85.273 62.849C85.206 62.943 83.886 64.757 81 64.891Z" fill="#302922"/>
<path d="M81.59 68.088C81.866 67.938 82.031 67.821 82.058 67.802C82.379 67.571 82.451 67.123 82.22 66.802C81.99 66.482 81.545 66.406 81.223 66.639C81.128 66.706 79.008 68.172 76.678 66.972C76.326 66.791 75.895 66.929 75.714 67.281C75.533 67.633 75.671 68.064 76.023 68.245C78.437 69.489 80.653 68.597 81.59 68.088Z" fill="#E06C5C"/>
<path d="M82.212 58.277C80.898 58.049 79.462 57.527 78.657 57.208C78.361 57.09 78.216 56.755 78.333 56.458C78.451 56.161 78.791 56.014 79.083 56.134C81.259 56.996 83.635 57.486 83.973 57.141C83.97 57.141 83.976 57.092 83.954 56.999C82.85 52.14 80.363 51.554 80.338 51.548C80.065 51.49 79.865 51.243 79.874 50.964L80.013 46.459C80.023 46.14 80.289 45.89 80.608 45.899C80.919 45.909 81.178 46.175 81.167 46.494L81.041 50.572C81.992 50.978 84.082 52.349 85.08 56.741C85.24 57.448 84.925 57.844 84.723 58.017C84.217 58.455 83.253 58.458 82.212 58.277Z" fill="#302922"/>
<path d="M65.733 41.371C66.405 43.046 68.294 43.875 69.98 43.233C70.965 42.858 72.123 42.497 73.336 42.287C75.057 41.988 76.183 40.318 75.792 38.616C75.792 38.616 69.013 37.704 65.733 41.371Z" fill="#302922"/>
<path d="M92.169 42.491C91.358 44.103 89.406 44.769 87.78 43.987C86.831 43.53 85.707 43.073 84.516 42.76C82.827 42.317 81.846 40.558 82.379 38.894C82.379 38.894 89.21 38.559 92.169 42.491Z" fill="#302922"/>
<path d="M70.797 48.838C70.737 50.243 70.052 51.356 69.265 51.322C68.479 51.289 67.889 50.123 67.949 48.717C68.009 47.312 68.694 46.199 69.481 46.233C70.268 46.267 70.857 47.433 70.797 48.838Z" fill="#302922"/>
<path d="M85.594 49.427C85.534 50.832 84.849 51.945 84.062 51.911C83.276 51.878 82.687 50.712 82.746 49.306C82.806 47.901 83.491 46.788 84.278 46.822C85.064 46.856 85.653 48.022 85.594 49.427Z" fill="#302922"/>
<path d="M57.214 63.145C57.141 63.298 55.109 67.511 52.396 68.654C52.388 68.645 52.382 68.639 52.382 68.639L52.349 65.679C52.349 65.679 54.674 65.383 57.214 63.145Z" fill="#302922"/>
<path d="M55.053 53.276C55.053 53.276 49.753 45.49 45.386 51.247C41.786 55.991 47.661 69 54.56 64.92L55.053 53.276Z" fill="#E69680"/>
<path d="M53.888 62.615C53.909 62.616 53.93 62.615 53.951 62.614C54.27 62.593 54.511 62.317 54.49 61.998C54.06 55.549 48.752 53.097 48.526 52.996C48.234 52.865 47.892 52.996 47.761 53.288C47.63 53.579 47.76 53.921 48.051 54.052C48.251 54.143 52.952 56.337 53.335 62.076C53.356 62.373 53.597 62.603 53.888 62.615Z" fill="#302922"/>
<path d="M48.641 58.881C48.769 58.886 48.9 58.85 49.011 58.767C49.531 58.381 51.098 57.444 52.084 57.741C52.39 57.833 52.713 57.66 52.805 57.354C52.897 57.048 52.724 56.725 52.418 56.633C50.7 56.115 48.558 57.66 48.319 57.839C48.063 58.03 48.01 58.392 48.201 58.649C48.31 58.794 48.473 58.874 48.641 58.881Z" fill="#302922"/>
<path d="M62.551 36.814C62.551 36.814 62.345 39.699 60.803 43.45C59.26 47.201 56.895 47.11 56.792 49.367C56.689 51.624 57.844 54.504 57.215 54.812C56.586 55.121 55.764 55.429 55.764 55.429C55.764 55.429 52.89 50.769 52.172 50.313C51.455 49.856 49.978 48.842 48.77 49.135C48.77 49.135 46.608 48.965 44.861 52.146C44.861 52.146 43.316 49.939 44.295 46.822C45.274 43.705 46.779 44.743 46.695 41.601C46.611 38.46 46.817 37.945 46.817 37.945L62.551 36.814Z" fill="#302922"/>
<path d="M61.496 36.751C61.496 36.751 47.432 38.459 46.815 37.945C46.198 37.431 47.843 23.032 53.706 18.404C59.568 13.776 73.726 12.953 82.742 15.936C91.759 18.919 93.512 31.894 93.512 31.894L61.496 36.751Z" fill="#9E3838"/>
<path d="M60.134 36.814C60.134 36.814 69.208 41.339 74.878 41.528C80.549 41.716 87.131 37.43 93.576 38.887C100.021 40.345 101.118 42.436 103.038 41.528C104.958 40.619 95.212 30.983 87.812 29.63C80.411 28.278 57.6 35.432 60.134 36.814Z" fill="#FFF4E6"/>
<path d="M49.832 82.619C49.832 82.619 53.269 84.24 59.298 91.364C65.327 98.488 65.198 108.772 65.198 108.772L43.363 89.437C43.363 89.437 46.404 84.028 49.832 82.619Z" fill="#FFF4E6"/>
<path d="M65.196 108.775V139.482H1.555C1.555 139.482 4.444 110.167 17.662 100.664C25.562 94.991 36.15 91.401 43.378 89.443L65.196 108.775Z" fill="#312A45"/>
<path d="M78.575 87.522L77.943 107.674C77.943 107.674 85.985 99.101 86.146 90.566C86.146 90.566 83.51 83.674 78.738 83.676L78.575 87.522Z" fill="#FFF4E6"/>
<path d="M123.394 139.481H79.863C79.316 129.46 77.943 107.67 77.943 107.67L86.15 90.565C91.756 92.226 99.435 95.067 105.626 99.425C116.78 107.277 123.394 139.481 123.394 139.481Z" fill="#312A45"/>
</g>
</svg>
