<svg width="140" height="141" viewBox="0 0 140 141" fill="none" xmlns="http://www.w3.org/2000/svg">
<path d="M137.977 86.3698C146.671 48.8446 123.298 11.3767 85.7731 2.683C48.2479 -6.01073 10.7801 17.3618 2.08634 54.887C-6.6074 92.4122 16.7651 129.88 54.2903 138.574C91.8155 147.267 129.283 123.895 137.977 86.3698Z" fill="#FFC7AA"/>
<mask id="mask0_0_1" style="mask-type:luminance" maskUnits="userSpaceOnUse" x="0" y="0" width="140" height="141">
<path d="M137.977 86.3698C146.671 48.8446 123.298 11.3767 85.7731 2.683C48.2479 -6.01073 10.7801 17.3618 2.08634 54.887C-6.6074 92.4122 16.7651 129.88 54.2903 138.574C91.8155 147.267 129.283 123.895 137.977 86.3698Z" fill="white"/>
</mask>
<g mask="url(#mask0_0_1)">
<path d="M122.597 136.52L68.573 146.246L8.032 136.52C8.032 136.52 10.749 108.946 23.178 100.01C23.792 99.568 24.433 99.134 25.083 98.719C37.494 90.749 55.076 87.653 55.076 87.653L80.412 88.727C80.412 88.727 92.796 90.993 102.913 96.931C103.933 97.536 104.935 98.167 105.892 98.844C116.378 106.23 122.597 136.52 122.597 136.52Z" fill="#4D7D80"/>
<path d="M59.996 73.519C59.996 73.519 59.293 84.351 53.775 79.667C49.713 76.218 52.761 73.345 48.568 69.605C46.858 68.08 41.736 65.342 43.182 59.792C44.628 54.242 48.17 53.773 45.784 51.256C43.397 48.739 39.313 42.574 46.819 36.916C54.324 31.259 46.702 24.801 56.227 21.786C65.752 18.77 69.816 22.646 77.676 18.705C85.536 14.764 92.901 13.509 98.016 16.762C105.012 21.211 97.709 36.205 91.924 36.574C86.137 36.944 59.996 73.519 59.996 73.519Z" fill="#302922"/>
<path d="M80.679 82.337L80.408 88.729C79.635 89.301 78.856 89.795 78.078 90.218C66.697 96.414 55.072 87.655 55.072 87.655L56.011 65.493L77.737 80.328L80.679 82.337Z" fill="#9B6446"/>
<path d="M80.679 82.337L80.408 88.729C79.635 89.301 78.856 89.795 78.078 90.218C68.786 86.077 62.327 75.869 62.327 75.869L77.737 80.328L80.679 82.337Z" fill="#302922"/>
<path d="M89.867 54.348C89.867 54.348 93.679 50.213 95.549 54.588C97.419 58.964 95.473 67.579 90.009 65.924L89.867 54.348Z" fill="#7C4E37"/>
<path d="M93.986 34.498C93.986 34.498 98.137 36.17 96.121 40.893C94.104 45.616 94.248 46.595 94.778 49.55C95.308 52.505 92.86 54.8 92.019 54.473C91.179 54.147 83.99 32.044 93.986 34.498Z" fill="#302922"/>
<path d="M93.101 69.552C93.101 69.552 92.561 82.768 78.815 82.156C65.155 81.552 56.3 70.43 55.837 69.912C55.829 69.903 55.823 69.899 55.823 69.899L55.791 67.115L55.625 52.666L55.535 44.943C55.535 44.943 54.378 30.995 67.67 29.023C77.382 27.582 86.348 29.564 90.694 34.783C90.835 34.951 90.97 35.124 91.097 35.3C92.458 37.127 93.28 39.32 93.417 41.871L93.257 55.729L93.218 59.125L93.101 69.552Z" fill="#9B6446"/>
<path d="M82.733 66.374C82.128 66.402 81.45 66.352 80.696 66.188C76.791 65.338 74.192 61.849 74.084 61.7C73.918 61.474 73.966 61.155 74.193 60.989C74.419 60.822 74.737 60.871 74.904 61.097C74.928 61.13 77.391 64.426 80.913 65.193C84.401 65.952 85.906 63.888 85.921 63.867C86.084 63.637 86.401 63.583 86.63 63.745C86.86 63.907 86.914 64.225 86.752 64.454C86.689 64.542 85.447 66.248 82.733 66.374Z" fill="#302922"/>
<path d="M83.288 69.38C83.548 69.239 83.703 69.129 83.728 69.111C84.03 68.893 84.098 68.473 83.88 68.171C83.663 67.87 83.245 67.798 82.942 68.018C82.853 68.081 80.86 69.459 78.669 68.331C78.338 68.161 77.932 68.291 77.762 68.621C77.592 68.952 77.722 69.357 78.052 69.528C80.324 70.697 82.407 69.859 83.288 69.38Z" fill="#7C4E37"/>
<path d="M83.874 60.155C82.639 59.94 81.288 59.45 80.532 59.15C80.253 59.039 80.117 58.724 80.227 58.445C80.338 58.165 80.657 58.028 80.932 58.14C82.978 58.951 85.212 59.411 85.53 59.087C85.527 59.087 85.533 59.041 85.512 58.954C84.473 54.385 82.136 53.834 82.112 53.829C81.855 53.774 81.667 53.542 81.675 53.28L81.806 49.044C81.815 48.744 82.066 48.509 82.366 48.518C82.658 48.527 82.902 48.778 82.892 49.078L82.774 52.913C83.669 53.295 85.634 54.584 86.572 58.714C86.723 59.379 86.426 59.751 86.236 59.914C85.758 60.322 84.852 60.326 83.874 60.155Z" fill="#302922"/>
<path d="M67.46 41.122C67.684 42.804 69.212 43.998 70.898 43.804C71.882 43.691 73.021 43.631 74.176 43.721C75.814 43.848 77.227 42.588 77.266 40.946C77.266 40.946 71.3 38.541 67.46 41.122Z" fill="#302922"/>
<path d="M92.213 42.685C91.976 44.321 90.482 45.461 88.851 45.246C87.899 45.12 86.797 45.044 85.677 45.113C84.089 45.211 82.735 43.96 82.716 42.358C82.716 42.358 88.524 40.108 92.213 42.685Z" fill="#302922"/>
<path d="M91.099 35.301C88.975 34.446 87.387 35.09 83.965 36.424C79.017 38.351 73.668 36.202 68.972 33.545C64.276 30.888 61.252 34.18 62.793 36.489C64.332 38.798 64.078 40.604 62.144 43.383C60.21 46.16 65.397 47.711 62.405 49.828C61.145 50.72 61.158 52.132 61.595 53.467C62.072 54.923 60.752 56.336 59.259 55.992C57.712 55.529 55.626 52.665 55.626 52.665L51.432 42.756C51.432 42.756 55.085 29.21 68.378 27.239C78.09 25.798 87.056 27.78 91.402 32.999C91.542 33.169 90.971 35.125 91.099 35.301Z" fill="#302922"/>
<path d="M73.979 51.28C73.923 52.602 73.278 53.647 72.539 53.616C71.8 53.585 71.245 52.488 71.301 51.166C71.357 49.844 72.002 48.799 72.741 48.83C73.481 48.862 74.035 49.958 73.979 51.28Z" fill="#302922"/>
<path d="M87.053 51.607C86.997 52.928 86.352 53.974 85.613 53.943C84.874 53.912 84.32 52.815 84.375 51.494C84.431 50.172 85.076 49.127 85.815 49.158C86.555 49.189 87.109 50.285 87.053 51.607Z" fill="#302922"/>
<path d="M60.368 64.733C60.299 64.877 58.389 68.838 55.838 69.913C55.83 69.905 55.825 69.899 55.825 69.899L55.794 67.116C55.794 67.116 57.979 66.837 60.368 64.733Z" fill="#302922"/>
<path d="M58.336 55.452C58.336 55.452 53.353 48.131 49.246 53.544C45.861 58.005 51.385 70.237 57.873 66.401L58.336 55.452Z" fill="#9B6446"/>
<path d="M57.241 64.234C57.261 64.235 57.281 64.235 57.301 64.233C57.601 64.213 57.828 63.954 57.808 63.654C57.403 57.59 52.412 55.284 52.2 55.189C51.925 55.066 51.604 55.189 51.481 55.463C51.358 55.737 51.48 56.058 51.754 56.182C51.942 56.267 56.362 58.33 56.722 63.727C56.74 64.006 56.967 64.222 57.241 64.234Z" fill="#302922"/>
<path d="M52.307 60.723C52.427 60.728 52.55 60.694 52.654 60.616C53.143 60.253 54.616 59.372 55.544 59.652C55.832 59.739 56.136 59.576 56.222 59.288C56.309 59 56.146 58.697 55.858 58.61C54.243 58.123 52.228 59.576 52.004 59.744C51.763 59.923 51.714 60.264 51.893 60.505C51.995 60.641 52.149 60.717 52.307 60.723Z" fill="#302922"/>
<path d="M55.249 83.493C55.249 83.493 59.197 90.446 70.608 92.435L62.928 102.257L48.723 89.089L55.249 83.493Z" fill="#D1932A"/>
<path d="M80.605 84.078C80.605 84.078 80.858 89.285 73.219 92.435L80.606 100.613L86.544 90.218L80.605 84.078Z" fill="#D1932A"/>
<path d="M41.12 136.52H8.031C8.031 136.52 10.748 108.946 23.177 100.01C23.791 99.568 24.432 99.134 25.082 98.719C29.549 102.682 41.987 115.644 41.12 136.52Z" fill="#333E67"/>
<path d="M110.89 136.52C111.314 118.17 105.953 103.648 102.911 96.933C103.931 97.538 104.933 98.169 105.89 98.846C116.378 106.229 122.597 136.52 122.597 136.52H110.89Z" fill="#333E67"/>
</g>
</svg>
