<svg width="140" height="141" viewBox="0 0 140 141" fill="none" xmlns="http://www.w3.org/2000/svg">
<path d="M138.92 81.3676C144.999 43.3299 119.091 7.56691 81.0529 1.4886C43.0153 -4.58971 7.25223 21.3184 1.17391 59.356C-4.9044 97.3936 21.0038 133.157 59.0414 139.235C97.079 145.313 132.842 119.405 138.92 81.3676Z" fill="#FFC7AA"/>
<mask id="mask0_0_1" style="mask-type:luminance" maskUnits="userSpaceOnUse" x="0" y="0" width="140" height="141">
<path d="M138.92 81.3676C144.999 43.3299 119.091 7.56691 81.0529 1.4886C43.0153 -4.58971 7.25223 21.3184 1.17391 59.356C-4.9044 97.3936 21.0038 133.157 59.0414 139.235C97.079 145.313 132.842 119.405 138.92 81.3676Z" fill="white"/>
</mask>
<g mask="url(#mask0_0_1)">
<path d="M51.875 50.22C51.875 50.22 47.953 31.511 55.909 24.683C63.864 17.856 77.698 17.581 85.591 22.929C93.484 28.277 93.254 33.207 93.781 38.833C93.781 38.833 92.388 35.255 78.675 34.714C64.962 34.174 55.91 50.903 55.91 50.903L51.875 50.22Z" fill="#9B6446"/>
<path d="M124.802 139.481H2.97299C2.97299 139.481 5.64199 112.364 17.611 101.844C18.081 101.422 18.571 101.028 19.08 100.663C32.298 91.17 53.003 87.522 53.003 87.522L79.947 88.664C79.947 88.664 95.9 91.582 107.045 99.424C107.045 99.424 107.045 99.424 107.055 99.434C113.544 104.013 118.487 116.827 121.492 126.743C123.65 133.866 124.802 139.481 124.802 139.481Z" fill="#4D7D80"/>
<path d="M80.231 81.867L79.943 88.665C79.12 89.274 78.293 89.799 77.465 90.249C65.361 96.838 52.999 87.524 52.999 87.524L53.997 63.955L77.102 79.732L80.231 81.867Z" fill="#9B6446"/>
<path d="M80.231 81.867L79.943 88.665C79.12 89.274 78.293 89.799 77.465 90.249C67.583 85.845 60.714 74.989 60.714 74.989L77.102 79.731L80.231 81.867Z" fill="#302922"/>
<path d="M90.002 52.101C90.002 52.101 94.056 47.703 96.045 52.357C98.034 57.011 95.965 66.172 90.153 64.413L90.002 52.101Z" fill="#7C4E37"/>
<path d="M93.442 68.271C93.442 68.271 92.867 82.326 78.249 81.675C63.722 81.032 54.305 69.204 53.812 68.654C53.803 68.645 53.797 68.64 53.797 68.64L53.763 65.679L53.586 50.313L53.491 42.1C53.491 42.1 52.26 27.266 66.397 25.17C76.725 23.637 86.261 25.746 90.882 31.296C91.031 31.475 91.176 31.658 91.311 31.846C92.758 33.789 93.632 36.121 93.779 38.834L93.609 53.572L93.567 57.184L93.442 68.271Z" fill="#9B6446"/>
<path d="M80.476 66.506C79.833 66.536 79.112 66.482 78.309 66.308C74.156 65.404 71.392 61.693 71.277 61.536C71.1 61.295 71.152 60.957 71.393 60.78C71.634 60.603 71.972 60.655 72.149 60.895C72.175 60.93 74.794 64.436 78.54 65.251C82.25 66.058 83.85 63.863 83.866 63.841C84.039 63.597 84.376 63.539 84.62 63.711C84.864 63.883 84.922 64.221 84.75 64.465C84.683 64.558 83.363 66.372 80.476 66.506Z" fill="#302922"/>
<path d="M82.766 69.821C83.042 69.671 83.207 69.554 83.234 69.535C83.555 69.304 83.627 68.856 83.396 68.535C83.166 68.215 82.721 68.139 82.398 68.372C82.303 68.439 80.184 69.905 77.853 68.705C77.501 68.524 77.07 68.662 76.889 69.014C76.708 69.366 76.846 69.797 77.198 69.978C79.613 71.222 81.829 70.33 82.766 69.821Z" fill="#7C4E37"/>
<path d="M83.629 58.277C82.315 58.049 80.879 57.527 80.074 57.208C79.778 57.09 79.633 56.755 79.75 56.458C79.868 56.161 80.208 56.014 80.5 56.134C82.676 56.996 85.052 57.486 85.389 57.141C85.386 57.141 85.392 57.092 85.37 56.999C84.266 52.14 81.78 51.554 81.754 51.548C81.481 51.49 81.281 51.243 81.29 50.964L81.429 46.459C81.439 46.14 81.705 45.89 82.024 45.899C82.335 45.909 82.594 46.175 82.583 46.494L82.457 50.572C83.408 50.978 85.498 52.349 86.497 56.741C86.657 57.448 86.342 57.844 86.14 58.017C85.633 58.455 84.669 58.458 83.629 58.277Z" fill="#302922"/>
<path d="M67.149 41.371C67.821 43.046 69.71 43.875 71.396 43.233C72.381 42.858 73.539 42.497 74.752 42.287C76.473 41.988 77.599 40.318 77.209 38.616C77.209 38.616 70.43 37.704 67.149 41.371Z" fill="#302922"/>
<path d="M93.585 42.491C92.774 44.103 90.822 44.769 89.196 43.987C88.247 43.53 87.123 43.073 85.932 42.76C84.243 42.317 83.262 40.558 83.795 38.894C83.795 38.894 90.627 38.559 93.585 42.491Z" fill="#302922"/>
<path d="M73.165 48.574C73.106 49.979 72.42 51.092 71.634 51.058C70.848 51.025 70.259 49.859 70.318 48.453C70.378 47.048 71.063 45.935 71.849 45.969C72.636 46.002 73.225 47.169 73.165 48.574Z" fill="#302922"/>
<path d="M86.538 49.103C86.479 50.508 85.793 51.621 85.007 51.587C84.221 51.554 83.631 50.388 83.691 48.982C83.751 47.576 84.436 46.464 85.223 46.498C86.008 46.531 86.598 47.697 86.538 49.103Z" fill="#302922"/>
<path d="M58.63 63.145C58.557 63.298 56.525 67.511 53.812 68.654C53.804 68.645 53.798 68.639 53.798 68.639L53.765 65.679C53.765 65.679 56.09 65.383 58.63 63.145Z" fill="#302922"/>
<path d="M56.47 53.276C56.47 53.276 51.17 45.49 46.803 51.247C43.204 55.991 49.078 69 55.977 64.92L56.47 53.276Z" fill="#9B6446"/>
<path d="M55.305 62.615C55.326 62.616 55.348 62.615 55.369 62.614C55.688 62.593 55.929 62.317 55.908 61.998C55.478 55.549 50.17 53.097 49.944 52.996C49.652 52.865 49.31 52.996 49.179 53.288C49.048 53.579 49.178 53.921 49.47 54.052C49.67 54.143 54.371 56.337 54.753 62.076C54.772 62.373 55.014 62.603 55.305 62.615Z" fill="#302922"/>
<path d="M50.057 58.881C50.185 58.886 50.316 58.85 50.427 58.767C50.947 58.381 52.514 57.444 53.5 57.741C53.806 57.833 54.129 57.66 54.222 57.354C54.314 57.048 54.141 56.725 53.835 56.633C52.117 56.115 49.975 57.66 49.736 57.839C49.48 58.03 49.427 58.392 49.618 58.649C49.726 58.794 49.89 58.874 50.057 58.881Z" fill="#302922"/>
<path d="M79.977 58.882C79.977 58.882 77.149 58.515 75.04 59.338C72.932 60.161 72.623 62.886 72.623 62.886L87.227 63.955C87.227 63.955 87.484 61.549 86.044 60.212C84.605 58.875 79.977 58.882 79.977 58.882Z" fill="#302922"/>
<path d="M53.465 80.249L72.506 92.125L60.715 103.15L48.094 89.3L53.465 80.249Z" fill="#302922"/>
<path d="M80.143 83.956L72.506 92.125L82.376 101.573L85.805 90.249L80.143 83.956Z" fill="#302922"/>
<path d="M124.802 139.481H35.964L31.779 126.187C31.779 126.187 84.42 118.287 113.639 124.296C116.778 124.939 119.37 125.774 121.491 126.744C123.65 133.866 124.802 139.481 124.802 139.481Z" fill="#D1932A"/>
<path d="M38.249 139.481H2.97299C2.97299 139.481 5.64199 112.364 17.611 101.844C22.612 105.06 36.742 116.156 38.249 139.481Z" fill="#302922"/>
<path d="M124.802 139.481H115.865C113.043 114.255 107.255 99.933 107.053 99.434C118.198 107.296 124.802 139.481 124.802 139.481Z" fill="#302922"/>
</g>
</svg>
