<svg width="124" height="118" viewBox="0 0 124 118" fill="none" xmlns="http://www.w3.org/2000/svg">
<path d="M61.994 117.92C96.128 117.92 123.799 91.5581 123.799 59.039C123.799 26.5199 96.128 0.158005 61.994 0.158005C27.86 0.158005 0.189011 26.5199 0.189011 59.039C0.189011 91.5581 27.86 117.92 61.994 117.92Z" fill="#FFC7AA"/>
<mask id="mask0_0_1" style="mask-type:luminance" maskUnits="userSpaceOnUse" x="0" y="0" width="124" height="118">
<path d="M61.994 117.92C96.128 117.92 123.799 91.5581 123.799 59.039C123.799 26.5199 96.128 0.158005 61.994 0.158005C27.86 0.158005 0.189011 26.5199 0.189011 59.039C0.189011 91.5581 27.86 117.92 61.994 117.92Z" fill="white"/>
</mask>
<g mask="url(#mask0_0_1)">
<path d="M57.245 16.727C57.245 16.727 68.591 12.776 79.201 20.226C89.811 27.676 91.278 37.157 91.617 46.299C91.956 55.442 91.956 55.442 91.956 55.442C91.956 55.442 96.922 57.137 97.938 65.714C98.954 74.291 93.649 76.323 97.035 79.483C100.421 82.643 102.678 93.628 94.552 97.109C86.425 100.59 71.526 95.172 71.526 95.172L57.245 16.727Z" fill="#312A45"/>
<path d="M86.73 93.945C86.73 93.945 95.727 94.992 100.707 97.862C105.687 100.732 108.686 108.571 108.686 108.571C108.686 108.571 88.855 123.673 62.716 122.666C36.577 121.659 18.691 101.562 18.691 101.562C18.691 101.562 22.834 94.077 30.058 90.767C34.729 88.626 49.021 88.522 49.021 88.522L86.73 93.945Z" fill="#4D7D80"/>
<path d="M63.825 87.523C56.824 87.699 49.858 87.105 43.804 88.69C42.622 97.475 46.173 104.594 56.826 106.39C68.171 108.303 83.195 101.126 89.944 94.565C79.424 90.036 70.249 87.363 63.825 87.523Z" fill="#D1932A"/>
<path d="M40.698 33.56L43.437 52.507C43.437 52.507 34.46 74.185 52.566 74.337L48.852 92.376C48.415 94.5 49.314 96.675 51.129 97.863C52.84 98.982 55.503 100.127 59.564 100.659C66.163 101.524 73.992 97.852 77.967 95.657C79.566 94.774 80.58 93.115 80.615 91.289L81.354 52.507L71.28 27.52L40.698 33.56Z" fill="#E06F6F"/>
<path d="M52.566 74.337C58.906 74.134 66.615 72.41 70.976 65.715C75.485 67.068 73.099 75.797 68.095 77.859C66.72 78.426 65.538 79.342 64.567 80.468C59.187 86.702 50.221 85.726 50.221 85.726L52.566 74.337Z" fill="#9E3838"/>
<path d="M51.705 47.444C51.705 48.81 51.041 49.916 50.222 49.916C49.403 49.916 48.739 48.809 48.739 47.444C48.739 46.079 49.403 44.971 50.222 44.971C51.041 44.972 51.705 46.079 51.705 47.444Z" fill="#2A2A2A"/>
<path d="M65.309 47.316C65.309 48.681 64.645 49.788 63.826 49.788C63.007 49.788 62.343 48.681 62.343 47.316C62.343 45.95 63.007 44.843 63.826 44.843C64.645 44.844 65.309 45.951 65.309 47.316Z" fill="#2A2A2A"/>
<path d="M54.544 45.389C54.836 47.429 52.946 51.837 51.767 54.265C51.456 54.905 52.005 55.623 52.705 55.496L56.826 54.747" stroke="#612525" stroke-width="0.9662" stroke-miterlimit="10"/>
<path d="M50.664 59.274C50.664 59.274 57.891 61.328 63.825 55.47" stroke="#612525" stroke-width="0.9662" stroke-miterlimit="10"/>
<path d="M51.197 63.534C51.197 63.534 55.077 62.012 57.892 63.534" stroke="#612525" stroke-width="0.9662" stroke-miterlimit="10"/>
<path d="M56.826 42.613C58.119 39.57 63.749 36.907 66.64 41.7" stroke="#312A45" stroke-width="2.1074" stroke-miterlimit="10" stroke-linecap="round" stroke-linejoin="round"/>
<path d="M45.643 43.45C47.012 40.331 51.044 41.016 52.49 43.07" stroke="#312A45" stroke-width="2.1074" stroke-miterlimit="10" stroke-linecap="round" stroke-linejoin="round"/>
<path d="M86.132 53.014C84.669 56.318 81.345 58.05 78.707 56.882C76.069 55.714 75.116 52.089 76.578 48.785C78.04 45.481 81.365 43.749 84.003 44.917C86.642 46.085 87.595 49.71 86.132 53.014Z" fill="#E06F6F"/>
<path d="M77.874 51.616C78.787 48.167 83.96 45.823 84.467 50.901" stroke="#9E3838" stroke-width="0.9662" stroke-miterlimit="10"/>
<path d="M41.975 57.247C41.975 57.247 38.943 60.371 39.921 67.143C40.899 73.915 47.747 78.882 58.959 75.42C70.171 71.959 77.2 61.759 77.448 56.023L73.708 55.028C73.708 55.028 64.152 67.519 59.185 68.347C54.218 69.175 54.252 65.79 54.252 65.79H51.197C51.197 65.79 51.435 69.551 46.92 68.798C42.405 68.045 41.094 62.475 41.975 57.247Z" fill="#312A45"/>
<path d="M57.245 16.727C57.245 16.727 49.403 16.05 42.405 23.386C35.407 30.722 37.89 40.843 37.89 40.843C37.89 40.843 35.633 44.318 36.648 47.961C37.664 51.604 43.012 53.654 43.012 53.654L43.308 51.614L41.614 40.203C41.614 40.203 48.422 36.122 51.678 31.39C51.678 31.39 60.738 35.801 66.64 37.155C72.541 38.509 74.009 38.058 74.009 38.058C74.009 38.058 73.558 43.476 74.009 46.749C74.461 50.022 75.893 50.447 75.893 50.447C75.893 50.447 78.205 44.393 82.992 44.612C82.992 44.612 82.7 29.424 76.774 22.821C70.848 16.219 60.265 16.527 57.245 16.727Z" fill="#312A45"/>
</g>
</svg>
