<svg width="125" height="118" viewBox="0 0 125 118" fill="none" xmlns="http://www.w3.org/2000/svg">
<path d="M62.547 117.778C96.681 117.778 124.352 91.4161 124.352 58.897C124.352 26.3779 96.681 0.0160065 62.547 0.0160065C28.413 0.0160065 0.742004 26.3779 0.742004 58.897C0.742004 91.4161 28.413 117.778 62.547 117.778Z" fill="#FDC6AA"/>
<mask id="mask0_0_1" style="mask-type:luminance" maskUnits="userSpaceOnUse" x="0" y="0" width="125" height="118">
<path d="M62.547 117.778C96.681 117.778 124.352 91.4161 124.352 58.897C124.352 26.3779 96.681 0.0160065 62.547 0.0160065C28.413 0.0160065 0.742004 26.3779 0.742004 58.897C0.742004 91.4161 28.413 117.778 62.547 117.778Z" fill="white"/>
</mask>
<g mask="url(#mask0_0_1)">
<path d="M87.368 94.432C87.368 94.432 97.913 96.836 103.453 100.884C108.993 104.932 110.272 113.883 110.272 113.883C110.272 113.883 86.405 127.5 55.506 122.929C24.607 118.358 14.319 95.716 14.319 95.716C14.319 95.716 20.771 87.246 26.525 85.115C32.279 82.984 43.305 83.127 43.305 83.127L87.368 94.432Z" fill="#4D7D80"/>
<path d="M42.064 36.864L32.33 70.958C32.33 70.958 34.29 71.947 36.715 72.153L38.211 68.954L38.417 72.772C38.417 72.772 58.387 82.781 84.826 74.217V70.09L86.604 73.908L99.399 70.959C99.399 70.959 98.573 40.58 90.628 29.952C82.683 19.324 69.447 14.99 59.71 17.983C49.975 20.974 42.064 36.864 42.064 36.864Z" fill="#312A45"/>
<path d="M42.882 40.249L43.159 57.195C43.159 57.195 38.645 67.299 49.663 74.369C49.663 74.369 49.266 85.586 48.71 90.944C48.154 96.303 49.557 103.729 60.888 106.093C72.219 108.457 79.189 98.645 81.853 92.633L79.642 64.691C79.642 64.691 88.898 58.53 86.723 53.041C84.914 48.476 80.021 51.971 80.021 51.971C80.021 51.971 66.178 43.563 65.765 33.199C62.38 28.262 57.752 20.212 42.882 40.249Z" fill="#E06F6F"/>
<path d="M74.54 72.331C74.872 71.282 73.59 70.505 72.79 71.261C66.99 76.743 57.438 80.109 49.664 74.37C49.664 74.37 49.28 85.172 48.74 90.637C52.258 91.737 73.156 76.701 74.54 72.331Z" fill="#9E3838"/>
<path d="M52.174 50.027C52.095 51.456 51.336 52.576 50.479 52.528C49.622 52.481 48.991 51.284 49.069 49.855C49.148 48.426 49.907 47.306 50.764 47.353C51.622 47.402 52.253 48.598 52.174 50.027Z" fill="#2A2A2A"/>
<path d="M66.416 50.679C66.337 52.108 65.578 53.228 64.721 53.18C63.864 53.133 63.233 51.936 63.312 50.507C63.391 49.078 64.15 47.958 65.007 48.005C65.864 48.054 66.495 49.25 66.416 50.679Z" fill="#2A2A2A"/>
<path d="M55.264 48.04C55.451 50.192 53.22 54.695 51.845 57.167C51.483 57.819 52.016 58.602 52.755 58.509L57.111 57.963" stroke="#612525" stroke-width="0.9662" stroke-miterlimit="10"/>
<path d="M51.729 61.391C51.729 61.391 56.794 65.817 61.667 60.752" stroke="#612525" stroke-width="0.9662" stroke-miterlimit="10"/>
<path d="M46.062 45.498C47.675 42.313 51.854 43.263 53.248 45.495" stroke="#312A45" stroke-width="2.1074" stroke-miterlimit="10" stroke-linecap="round" stroke-linejoin="round"/>
<path d="M59.712 44.953C61.325 41.768 65.504 42.718 66.898 44.951" stroke="#312A45" stroke-width="2.1074" stroke-miterlimit="10" stroke-linecap="round" stroke-linejoin="round"/>
<path d="M77.918 57.571C78.875 53.957 84.296 51.5 84.828 56.821" stroke="#9E3838" stroke-width="0.9662" stroke-miterlimit="10"/>
<path d="M59.712 17.981C59.712 17.981 37.799 18.084 37.49 40.269H46.062L49.063 34.387V39.65L62.548 39.547L63.306 36.142L64.216 39.65L68.034 40.269C68.034 40.269 71.996 51.188 80.024 51.971C80.024 51.971 82.822 50.135 85.488 51.29C85.486 51.29 86.784 19.116 59.712 17.981Z" fill="#312A45"/>
<path d="M87.368 94.432C87.368 94.432 83.716 85.061 82.891 80.826C82.891 80.826 80.271 80.581 77.918 83.125C75.565 85.67 76.184 88.972 76.184 88.972C76.184 88.972 73.501 88.869 71.438 90.52C69.374 92.171 70.303 97.021 70.303 97.021C70.303 97.021 66.529 97.021 64.65 100.736C62.771 104.451 62.556 109.1 64.005 112.76C64.005 112.76 85.344 115.06 87.368 94.432Z" fill="#4D7D80"/>
<path d="M43.305 83.127C43.305 83.127 48.261 79.53 49.53 77.681C49.53 77.681 50.318 80.167 50.043 82.849C49.768 85.532 49.08 86.632 49.08 86.632C49.08 86.632 50.521 86.692 51.692 89.998C52.863 93.304 50.249 96.331 50.249 96.331C50.249 96.331 52.787 97.17 54.17 100.734C55.553 104.298 52.852 109.237 52.852 109.237C52.852 109.237 43.782 107.338 41.649 94.268C40.059 84.521 43.305 83.127 43.305 83.127Z" fill="#4D7D80"/>
</g>
</svg>
