<svg width="141" height="141" viewBox="0 0 141 141" fill="none" xmlns="http://www.w3.org/2000/svg">
<path d="M119.95 119.95C147.187 92.7132 147.187 48.5535 119.95 21.3167C92.7132 -5.92016 48.5535 -5.92016 21.3167 21.3167C-5.92017 48.5535 -5.92017 92.7132 21.3167 119.95C48.5535 147.187 92.7132 147.187 119.95 119.95Z" fill="#FFC7AA"/>
<mask id="mask0_0_1" style="mask-type:luminance" maskUnits="userSpaceOnUse" x="0" y="0" width="141" height="141">
<path d="M119.95 119.95C147.187 92.7132 147.187 48.5535 119.95 21.3167C92.7132 -5.92016 48.5535 -5.92016 21.3167 21.3167C-5.92017 48.5535 -5.92017 92.7132 21.3167 119.95C48.5535 147.187 92.7132 147.187 119.95 119.95Z" fill="white"/>
</mask>
<g mask="url(#mask0_0_1)">
<path d="M43.0722 49.7837C43.0722 49.7837 39.5472 61.4717 51.0352 66.1367C51.0352 66.1367 50.8502 71.6077 57.6032 73.6747C64.3552 75.7427 98.6902 54.9897 98.6902 54.9897C98.6902 54.9897 102.512 39.8617 95.8332 30.3317C89.1542 20.8017 77.9362 18.8437 64.3552 22.1077C50.7742 25.3727 41.9732 39.1657 43.0722 49.7837Z" fill="#302922"/>
<path d="M125.366 140.377H9.38422C9.38422 140.377 12.1352 109.232 24.7182 100.185C33.0702 94.1897 44.5662 90.6357 51.3472 88.9357C54.7832 88.0677 57.0132 87.6747 57.0132 87.6747L82.6642 88.7617C82.6642 88.7617 85.0402 89.2007 88.5672 90.1877C93.9592 91.6957 102.046 94.4917 108.461 99.0057C119.079 106.482 125.366 140.377 125.366 140.377Z" fill="#333E67"/>
<path d="M88.5822 90.1877C87.0562 92.8107 82.8622 97.2517 71.9412 97.4347C58.8732 97.6537 52.9152 91.0377 51.3622 88.9367C54.7982 88.0687 57.0282 87.6757 57.0282 87.6757L82.6792 88.7627C82.6792 88.7627 85.0542 89.2007 88.5822 90.1877Z" fill="#4D7D80"/>
<path d="M82.9342 82.2907L82.6602 88.7627C81.8772 89.3417 81.0892 89.8417 80.3012 90.2707C68.7782 96.5437 57.0092 87.6767 57.0092 87.6767L57.9592 65.2387L79.9552 80.2577L82.9342 82.2907Z" fill="#E69680"/>
<path d="M82.9342 82.2907L82.6602 88.7627C81.8772 89.3417 81.0892 89.8417 80.3012 90.2707C70.8932 86.0777 64.3542 75.7437 64.3542 75.7437L79.9552 80.2577L82.9342 82.2907Z" fill="#302922"/>
<path d="M92.2362 53.9537C92.2362 53.9537 96.0952 49.7667 97.9892 54.1967C99.8832 58.6267 97.9132 67.3487 92.3802 65.6737L92.2362 53.9537Z" fill="#E06C5C"/>
<path d="M95.8312 41.3257L95.6672 55.3527L95.6302 58.7887L95.6212 59.4097C95.6212 59.4097 95.6212 59.4187 95.6212 59.4457L95.5112 69.3427C95.5112 69.3427 94.9632 82.7297 81.0452 82.1087C75.6082 81.8617 70.9292 79.9797 67.2192 77.7407C61.4802 74.3047 58.0722 70.0277 57.7792 69.7077C57.7792 69.6987 57.7702 69.6987 57.7702 69.6987L57.7332 66.8747L57.5692 52.2537L57.4782 44.4317C57.4782 44.4317 56.3082 30.3137 69.7692 28.3117C79.6022 26.8587 88.6762 28.8597 93.0712 34.1417C93.2172 34.3157 93.3542 34.4887 93.4822 34.6717C94.8632 36.5197 95.6942 38.7397 95.8312 41.3257Z" fill="#E69680"/>
<path d="M85.0142 66.1297C84.4022 66.1577 83.7152 66.1067 82.9512 65.9407C78.9982 65.0807 76.3662 61.5477 76.2572 61.3977C76.0892 61.1687 76.1382 60.8467 76.3672 60.6777C76.5962 60.5087 76.9182 60.5577 77.0872 60.7877C77.1122 60.8207 79.6052 64.1577 83.1712 64.9337C86.7022 65.7027 88.2262 63.6127 88.2412 63.5917C88.4062 63.3587 88.7272 63.3037 88.9592 63.4677C89.1922 63.6317 89.2472 63.9537 89.0832 64.1857C89.0192 64.2757 87.7622 66.0027 85.0142 66.1297Z" fill="#302922"/>
<path d="M85.5762 69.1737C85.8392 69.0307 85.9962 68.9197 86.0212 68.9017C86.3262 68.6817 86.3952 68.2557 86.1752 67.9497C85.9562 67.6447 85.5322 67.5727 85.2252 67.7947C85.1352 67.8587 83.1172 69.2537 80.8982 68.1117C80.5632 67.9397 80.1522 68.0707 79.9802 68.4057C79.8082 68.7407 79.9392 69.1517 80.2742 69.3237C82.5752 70.5067 84.6842 69.6577 85.5762 69.1737Z" fill="#E06C5C"/>
<path d="M86.1692 59.8337C84.9182 59.6167 83.5512 59.1197 82.7852 58.8167C82.5032 58.7047 82.3652 58.3847 82.4762 58.1027C82.5882 57.8197 82.9122 57.6797 83.1902 57.7937C85.2622 58.6147 87.5232 59.0807 87.8452 58.7527C87.8422 58.7527 87.8482 58.7057 87.8272 58.6177C86.7762 53.9917 84.4092 53.4337 84.3852 53.4287C84.1252 53.3737 83.9352 53.1377 83.9432 52.8727L84.0752 48.5847C84.0842 48.2807 84.3382 48.0427 84.6422 48.0517C84.9382 48.0607 85.1852 48.3147 85.1752 48.6187L85.0552 52.5017C85.9612 52.8877 87.9502 54.1937 88.9012 58.3747C89.0542 59.0477 88.7532 59.4247 88.5612 59.5897C88.0772 60.0027 87.1602 60.0057 86.1692 59.8337Z" fill="#302922"/>
<path d="M70.4802 43.7397C71.1202 45.3337 72.9182 46.1237 74.5232 45.5117C75.4612 45.1547 76.5632 44.8117 77.7182 44.6107C79.3562 44.3257 80.4282 42.7367 80.0572 41.1157C80.0572 41.1157 73.6032 40.2477 70.4802 43.7397Z" fill="#302922"/>
<path d="M95.6472 44.8057C94.8752 46.3397 93.0172 46.9747 91.4692 46.2297C90.5652 45.7947 89.4962 45.3597 88.3612 45.0617C86.7532 44.6397 85.8192 42.9657 86.3262 41.3817C86.3262 41.3817 92.8312 41.0617 95.6472 44.8057Z" fill="#302922"/>
<path d="M76.1512 50.8477C76.0942 52.1857 75.4422 53.2447 74.6932 53.2127C73.9442 53.1807 73.3832 52.0707 73.4402 50.7327C73.4972 49.3947 74.1492 48.3357 74.8982 48.3677C75.6472 48.3997 76.2082 49.5097 76.1512 50.8477Z" fill="#302922"/>
<path d="M89.3882 51.4087C89.3322 52.7467 88.6792 53.8057 87.9302 53.7737C87.1812 53.7427 86.6202 52.6317 86.6772 51.2937C86.7342 49.9557 87.3872 48.8967 88.1352 48.9287C88.8842 48.9607 89.4442 50.0707 89.3882 51.4087Z" fill="#302922"/>
<path d="M62.3702 64.4687C62.3002 64.6147 60.3662 68.6247 57.7832 69.7137C57.7752 69.7047 57.7702 69.6987 57.7702 69.6987L57.7382 66.8807C57.7382 66.8807 59.9522 66.5977 62.3702 64.4687Z" fill="#302922"/>
<path d="M60.3142 55.0727C60.3142 55.0727 55.2692 47.6607 51.1102 53.1407C47.6832 57.6567 53.2762 70.0417 59.8442 66.1577L60.3142 55.0727Z" fill="#E69680"/>
<path d="M59.2042 63.9627C59.2242 63.9637 59.2442 63.9637 59.2652 63.9617C59.5692 63.9407 59.7982 63.6787 59.7782 63.3747C59.3682 57.2357 54.3152 54.9007 54.1002 54.8047C53.8222 54.6797 53.4962 54.8047 53.3722 55.0817C53.2482 55.3587 53.3712 55.6847 53.6482 55.8097C53.8382 55.8957 58.3132 57.9847 58.6782 63.4487C58.6982 63.7327 58.9272 63.9517 59.2042 63.9627Z" fill="#302922"/>
<path d="M54.2092 60.4087C54.3312 60.4137 54.4552 60.3787 54.5612 60.3007C55.0562 59.9327 56.5482 59.0417 57.4872 59.3247C57.7792 59.4127 58.0862 59.2477 58.1742 58.9567C58.2622 58.6657 58.0972 58.3587 57.8062 58.2707C56.1712 57.7777 54.1312 59.2487 53.9042 59.4187C53.6602 59.6007 53.6102 59.9457 53.7922 60.1897C53.8932 60.3257 54.0492 60.4017 54.2092 60.4087Z" fill="#302922"/>
<path opacity="0.38" d="M95.6212 59.4467L95.5112 69.3437C95.5112 69.3437 94.9632 82.7307 81.0452 82.1097C75.6082 81.8627 68.4702 78.3667 64.7602 76.1277C60.9772 70.6907 62.1512 59.7777 61.8042 56.8987L64.3502 54.7587C64.3502 54.7587 64.4962 63.0657 67.3752 63.9607C70.2542 64.8657 71.6332 59.7577 77.2082 59.2907C82.7822 58.8157 89.4442 59.1897 91.5002 60.4057C93.5562 61.6307 92.7252 64.1337 94.1502 63.9607C95.5032 63.7967 95.6122 59.8677 95.6212 59.4467Z" fill="#302922"/>
<path d="M57.5692 52.2517C57.5692 52.2517 60.4342 55.9197 61.3472 55.7897C62.2612 55.6587 63.4362 54.1637 63.8272 53.2137C64.2192 52.2647 60.6982 46.5417 60.6982 46.5417C60.6982 46.5417 67.3522 40.3857 68.3962 33.5967C68.3962 33.5967 72.3842 34.7717 80.1302 34.9017C87.8762 35.0327 95.4622 34.5097 95.4622 34.5097C95.4622 34.5097 90.1182 24.3267 73.6442 25.6327C57.1702 26.9377 53.3232 36.9897 53.3232 36.9897V45.2137L57.5692 52.2517Z" fill="#302922"/>
<path d="M63.6982 23.5447C63.6982 23.5447 63.5672 10.4897 51.8182 9.18471C40.0692 7.87871 31.7142 25.1107 39.9382 31.5077C48.1622 37.9047 53.6812 36.2497 53.6812 36.2497L63.6982 23.5447Z" fill="#302922"/>
<path d="M75.8862 58.6547C71.5972 59.0887 67.7552 55.9537 67.3212 51.6637C66.8872 47.3757 70.0232 43.5337 74.3122 43.0997C78.6012 42.6657 82.4432 45.8007 82.8772 50.0897C83.3112 54.3787 80.1752 58.2207 75.8862 58.6547ZM74.4282 44.2477C70.7722 44.6177 68.0992 47.8927 68.4692 51.5477C68.8392 55.2037 72.1142 57.8767 75.7702 57.5067C79.4262 57.1367 82.0992 53.8617 81.7292 50.2057C81.3592 46.5507 78.0842 43.8777 74.4282 44.2477Z" fill="#FDFEFF"/>
<path d="M93.9132 59.1427C89.6242 59.5767 85.7822 56.4407 85.3482 52.1517C84.9142 47.8637 88.0502 44.0217 92.3392 43.5877C96.6282 43.1537 100.47 46.2897 100.904 50.5777C101.338 54.8667 98.2022 58.7087 93.9132 59.1427ZM92.4552 44.7357C88.7992 45.1057 86.1262 48.3807 86.4962 52.0357C86.8662 55.6917 90.1412 58.3647 93.7972 57.9947C97.4532 57.6247 100.126 54.3497 99.7562 50.6937C99.3862 47.0397 96.1112 44.3667 92.4552 44.7357Z" fill="#FDFEFF"/>
<path d="M85.4622 51.9567C84.3012 50.6697 82.9312 51.6657 82.7772 51.7847L82.0652 50.8767C82.8662 50.2417 84.7902 49.4877 86.3192 51.1837L85.4622 51.9567Z" fill="#FDFEFF"/>
<path d="M67.1682 51.5297C66.9592 51.6417 66.7102 51.6757 66.4932 51.6037C66.3922 51.5837 64.8122 51.3207 59.4192 53.3397C59.0052 53.4947 58.5802 53.3337 58.4722 52.9787C58.3602 52.6237 58.6152 52.2017 59.0232 52.0567C65.2292 49.7317 66.9652 50.1787 67.2512 50.2917C67.6192 50.4377 67.7382 50.8467 67.5182 51.2047C67.4322 51.3437 67.3102 51.4537 67.1682 51.5297Z" fill="#FDFEFF"/>
<path d="M100.651 50.6407C100.53 50.7167 100.387 50.7607 100.237 50.7557C99.0092 50.7227 97.1652 51.5867 96.5572 51.9237C96.2172 52.1117 95.8012 52.0047 95.6272 51.6857C95.4542 51.3657 95.5852 50.9517 95.9302 50.7657C96.0342 50.7087 98.4902 49.3627 100.36 49.4147C100.741 49.4247 101.021 49.7337 100.986 50.1047C100.965 50.3287 100.835 50.5237 100.651 50.6407Z" fill="#FDFEFF"/>
</g>
</svg>
