<svg width="140" height="141" viewBox="0 0 140 141" fill="none" xmlns="http://www.w3.org/2000/svg">
<path d="M119.534 119.68C146.77 92.443 146.77 48.2833 119.534 21.0464C92.2967 -6.19043 48.137 -6.19043 20.9001 21.0464C-6.33671 48.2833 -6.33668 92.4429 20.9002 119.68C48.137 146.917 92.2967 146.917 119.534 119.68Z" fill="#FFC7AA"/>
<mask id="mask0_0_1" style="mask-type:luminance" maskUnits="userSpaceOnUse" x="0" y="0" width="140" height="141">
<path d="M119.534 119.68C146.77 92.443 146.77 48.2833 119.534 21.0464C92.2967 -6.19043 48.137 -6.19043 20.9001 21.0464C-6.33671 48.2833 -6.33668 92.4429 20.9002 119.68C48.137 146.917 92.2967 146.917 119.534 119.68Z" fill="white"/>
</mask>
<g mask="url(#mask0_0_1)">
<path d="M59.011 18.344C59.011 18.344 46.488 19.197 39.632 29.359C32.776 39.522 35.107 53.097 38.124 64.479C41.141 75.861 29.485 89.384 32.09 98.94C34.695 108.496 59.011 102.361 59.011 102.361V18.344Z" fill="#7A615A"/>
<path d="M94.146 65.547C94.146 65.547 93.053 70.513 97.196 81.072C101.339 91.631 92.756 100.818 92.756 100.818L77.994 96.019L80.072 68.96L94.146 65.547Z" fill="#7A615A"/>
<path d="M98.971 37.877C98.971 37.877 100.172 51.385 94.242 55.258C88.312 59.132 92.757 41.675 92.757 41.675L98.971 37.877Z" fill="#7A615A"/>
<path d="M122.731 143.191L13.15 139.482C13.15 139.482 14.887 119.19 20.397 107.825C21.002 106.587 21.645 105.445 22.346 104.456C31.571 91.296 56.336 86.784 56.336 86.784L83.827 89.385C83.827 89.385 97.112 91.391 105.857 99.733C107.546 101.346 109.169 103.832 110.685 106.779C116.99 119.055 122.731 143.191 122.731 143.191Z" fill="#333E67"/>
<path d="M81 92.409C75.609 114.354 54.42 94.244 53.619 86.785C56.962 76.29 55.843 65.069 55.843 65.069L81.206 74.045C81.148 74.785 81.088 75.528 81.028 76.274C80.749 79.716 80.484 83.235 80.58 86.954C80.626 88.722 80.753 90.535 81 92.409Z" fill="#E69680"/>
<path d="M80.58 86.953C67.271 84.041 58.579 70.364 58.579 70.364L81.028 76.273C80.75 79.715 80.485 83.235 80.58 86.953Z" fill="#161F29"/>
<path d="M86.687 55.224C86.687 55.224 88.602 48.979 93.684 50.351C98.767 51.723 99.114 68.588 89.461 68.151L86.687 55.224Z" fill="#E06C5C"/>
<path d="M94.222 54.099C94.216 54.656 94.189 55.249 94.141 55.875C94.09 56.573 94.012 57.305 93.91 58.07C93.794 58.945 93.644 59.861 93.466 60.802C93.362 61.369 93.246 61.943 93.119 62.524C91.16 71.56 87.38 75.704 83.054 77.816C75.927 81.298 58.266 73.785 55.514 67.096C53.524 62.262 53.556 64.263 53.027 51.239C52.495 38.216 57.802 31.053 57.802 31.053C64.995 22.811 77.852 24.047 86.207 29.495C94.564 34.939 94.294 45.08 94.222 54.099Z" fill="#E69680"/>
<path d="M82.962 66.078C82.332 66.185 81.615 66.218 80.803 66.143C76.603 65.751 73.433 62.426 73.3 62.284C73.097 62.068 73.107 61.728 73.323 61.525C73.539 61.322 73.878 61.332 74.082 61.548C74.112 61.58 77.113 64.719 80.902 65.073C84.654 65.423 85.968 63.068 85.98 63.044C86.121 62.782 86.447 62.685 86.708 62.826C86.97 62.966 87.067 63.292 86.927 63.553C86.873 63.654 85.79 65.6 82.962 66.078Z" fill="#302922"/>
<path d="M83.927 69.158C84.181 68.977 84.33 68.842 84.354 68.82C84.642 68.553 84.66 68.104 84.393 67.815C84.128 67.527 83.68 67.505 83.39 67.774C83.305 67.851 81.392 69.55 78.952 68.648C78.584 68.512 78.175 68.7 78.039 69.068C77.903 69.436 78.091 69.845 78.459 69.981C80.989 70.917 83.065 69.772 83.927 69.158Z" fill="#E06C5C"/>
<path d="M80.775 60.503C80.469 60.534 80.144 60.536 79.799 60.5C79.466 60.464 79.225 60.166 79.26 59.834C79.295 59.501 79.595 59.26 79.926 59.295C81.24 59.434 82.192 58.815 82.67 58.404C80.78 55.821 79.759 49.382 79.714 49.091C79.662 48.76 79.889 48.451 80.219 48.399C80.557 48.351 80.86 48.574 80.911 48.904C81.223 50.907 82.372 56.448 83.919 58.011C84.135 58.229 84.153 58.574 83.963 58.814C83.908 58.883 82.758 60.302 80.775 60.503Z" fill="#161F29"/>
<path d="M75.637 42.197C75.637 42.197 72.245 40.67 69.186 42.837C67.477 44.048 68.477 45.835 70.687 44.959C72.23 44.347 73.086 44.118 74.858 44.282C76.629 44.446 76.489 42.467 75.637 42.197Z" fill="#7A615A"/>
<path d="M85.563 42.711C85.563 42.711 89.035 41.375 91.968 43.711C93.607 45.016 92.508 46.744 90.351 45.746C88.845 45.049 88.002 44.773 86.225 44.837C84.448 44.9 84.697 42.932 85.563 42.711Z" fill="#7A615A"/>
<path d="M56.282 49.574C56.282 49.574 53.248 44.347 47.938 46.691C42.629 49.036 45.068 67.471 55.513 65.382L56.282 49.574Z" fill="#E69680"/>
<path d="M57.184 39.631C57.184 39.631 60.131 45.455 58.539 48.829C56.947 52.204 57.278 56.2 57.278 56.2C57.278 56.2 51.257 51.268 52.738 43.433C54.219 35.599 57.184 39.631 57.184 39.631Z" fill="#7A615A"/>
<path d="M54.1 58.198C54.17 58.465 54.01 58.737 53.743 58.807C53.706 58.817 53.671 58.822 53.635 58.824C53.406 58.833 53.193 58.679 53.133 58.449C53.125 58.419 52.656 56.675 51.397 55.094C50.373 56.014 49.559 56.865 49.548 56.875C49.455 56.975 49.331 57.025 49.206 57.029C49.077 57.034 48.947 56.988 48.842 56.893C48.644 56.703 48.638 56.387 48.827 56.186C48.864 56.147 49.678 55.297 50.727 54.352C49.93 53.578 48.902 52.929 47.596 52.681C47.326 52.629 47.15 52.368 47.202 52.098C47.254 51.825 47.515 51.648 47.785 51.701C52.601 52.623 54.041 57.971 54.1 58.198Z" fill="#161F29"/>
<path d="M72.688 61.061C68.183 61.517 64.147 58.223 63.691 53.718C63.235 49.214 66.529 45.178 71.034 44.722C75.54 44.266 79.575 47.56 80.031 52.064C80.487 56.57 77.193 60.605 72.688 61.061ZM71.156 45.928C67.316 46.317 64.508 49.757 64.896 53.596C65.285 57.436 68.725 60.244 72.565 59.856C76.405 59.467 79.213 56.027 78.824 52.187C78.437 48.347 74.996 45.539 71.156 45.928Z" fill="#FDFEFF"/>
<path d="M90.092 46.441C86.252 46.829 83.444 50.27 83.833 54.109C84.222 57.949 87.662 60.757 91.502 60.368C95.342 59.98 98.15 56.539 97.762 52.699C97.373 48.86 93.933 46.052 90.092 46.441ZM91.624 61.574C87.119 62.03 83.083 58.736 82.627 54.231C82.171 49.727 85.465 45.691 89.97 45.235C94.475 44.779 98.511 48.073 98.967 52.577C99.423 57.083 96.129 61.118 91.624 61.574Z" fill="#FDFEFF"/>
<path d="M82.747 54.026C81.527 52.674 80.088 53.721 79.927 53.845L79.179 52.892C80.02 52.225 82.041 51.433 83.648 53.214L82.747 54.026Z" fill="#FDFEFF"/>
<path d="M64.418 51.32C64.24 51.338 64.055 51.277 63.922 51.139C63.856 51.086 62.816 50.299 58.466 50.039C58.132 50.019 57.877 49.732 57.898 49.398C57.917 49.063 58.212 48.803 58.539 48.83C63.546 49.129 64.646 50.124 64.816 50.321C65.035 50.575 65.006 50.957 64.754 51.175C64.654 51.26 64.538 51.308 64.418 51.32Z" fill="#FDFEFF"/>
<path d="M98.425 53.241C98.303 53.253 98.175 53.229 98.062 53.162C97.126 52.623 95.372 52.561 94.775 52.583C94.441 52.596 94.16 52.334 94.147 52C94.135 51.666 94.394 51.38 94.731 51.372C94.833 51.369 97.242 51.29 98.668 52.113C98.959 52.28 99.058 52.651 98.89 52.94C98.787 53.116 98.613 53.222 98.425 53.241Z" fill="#FDFEFF"/>
<path d="M70.794 14.043C70.794 14.043 88.701 12.984 96.293 23.87C103.884 34.756 97.532 44.594 97.532 44.594C97.532 44.594 86.413 46.801 72.377 31.461C72.377 31.461 71.042 43.969 60.659 44.594C50.276 45.22 52.723 35.414 52.723 35.414C52.723 35.414 48.749 16.939 70.794 14.043Z" fill="#7A615A"/>
<path d="M73.394 52.158C73.449 53.588 72.806 54.774 71.96 54.806C71.113 54.838 70.383 53.705 70.328 52.275C70.273 50.845 70.915 49.659 71.762 49.627C72.609 49.595 73.339 50.728 73.394 52.158Z" fill="#161F29"/>
<path d="M88.525 52.833C88.58 54.263 87.937 55.449 87.091 55.481C86.244 55.513 85.514 54.38 85.459 52.95C85.404 51.52 86.047 50.334 86.893 50.302C87.74 50.27 88.47 51.403 88.525 52.833Z" fill="#161F29"/>
<path d="M110.684 106.778C102.467 108.467 88.223 110.416 64.859 110.963C33.279 111.702 23.43 109.245 20.397 107.824C21.002 106.586 21.645 105.444 22.346 104.455C31.571 91.295 56.336 86.783 56.336 86.783L83.827 89.384C83.827 89.384 97.112 91.39 105.857 99.732C107.545 101.345 109.167 103.831 110.684 106.778Z" fill="#E69680"/>
</g>
</svg>
