<svg width="124" height="119" viewBox="0 0 124 119" fill="none" xmlns="http://www.w3.org/2000/svg">
<path d="M61.81 118.59C95.944 118.59 123.615 92.2281 123.615 59.709C123.615 27.1899 95.944 0.828003 61.81 0.828003C27.676 0.828003 0.00500488 27.1899 0.00500488 59.709C0.00500488 92.2281 27.676 118.59 61.81 118.59Z" fill="#EFC5AA"/>
<mask id="mask0_0_1" style="mask-type:luminance" maskUnits="userSpaceOnUse" x="0" y="0" width="124" height="119">
<path d="M61.81 118.59C95.944 118.59 123.615 92.2281 123.615 59.709C123.615 27.1899 95.944 0.828003 61.81 0.828003C27.676 0.828003 0.00500488 27.1899 0.00500488 59.709C0.00500488 92.2281 27.676 118.59 61.81 118.59Z" fill="white"/>
</mask>
<g mask="url(#mask0_0_1)">
<path d="M38.007 45.049C36.465 51.918 32.617 52.347 31.666 58.778C30.715 65.208 33.496 67.34 28.764 71.648C21.739 78.043 19.171 87.734 20.505 91.506C21.84 95.278 109.535 114.696 109.535 114.696C109.535 114.696 118.841 101.697 111.683 91.061C106.414 83.232 102.307 80.527 102.638 72.954C102.97 65.381 104.312 64.476 96.423 56.685C88.534 48.895 88.866 44.16 85.426 39.341C85.426 39.341 69.182 28.686 55.579 32.509C41.977 36.332 38.007 45.049 38.007 45.049Z" fill="#312A45"/>
<path d="M86.63 95.244C86.63 95.244 97.175 97.648 102.715 101.696C108.256 105.745 109.534 114.695 109.534 114.695C109.534 114.695 85.667 128.312 54.768 123.741C23.869 119.17 12.226 95.969 12.226 95.969C12.226 95.969 20.033 88.057 25.786 85.926C31.54 83.795 42.566 83.938 42.566 83.938L86.63 95.244Z" fill="#4D7D80"/>
<path d="M85.902 99.37C86.306 98.002 86.545 96.622 86.631 95.245C80.276 93.114 73.833 91.166 67.206 89.319C59.422 87.15 50.953 85.369 42.569 83.94C42.228 84.698 41.92 85.475 41.679 86.29C38.451 97.203 45.735 108.978 57.947 112.59C70.158 116.201 82.674 110.283 85.902 99.37Z" fill="#DEA600"/>
<path d="M42.145 41.061L42.422 58.007C42.422 58.007 37.907 68.111 48.926 75.181C48.926 75.181 48.529 86.398 47.973 91.756C47.417 97.115 48.82 104.541 60.151 106.905C71.482 109.269 78.452 99.458 81.116 93.445L78.906 65.503C78.906 65.503 88.162 59.342 85.987 53.853C84.178 49.288 79.285 52.783 79.285 52.783C79.285 52.783 65.442 44.375 65.029 34.011C61.643 29.074 57.014 21.025 42.145 41.061Z" fill="#E06F6F"/>
<path d="M73.803 73.143C74.135 72.094 72.853 71.317 72.053 72.073C66.253 77.555 56.702 80.921 48.927 75.182C48.927 75.182 48.543 85.984 48.003 91.449C51.521 92.549 72.418 77.513 73.803 73.143Z" fill="#9E3838"/>
<path d="M82.122 67.186C81.183 68.528 79.335 68.855 77.993 67.916C76.651 66.977 76.324 65.128 77.263 63.787C78.202 62.445 80.05 62.118 81.392 63.057C82.734 63.995 83.061 65.844 82.122 67.186Z" fill="white"/>
<path d="M38.62 43.966C38.62 43.966 46.06 41.812 50.325 36.263C54.59 30.714 54.383 29.012 54.383 29.012C54.383 29.012 55.266 37.555 66.134 40.254C72.881 41.93 86.317 40.734 86.317 40.734C86.317 40.734 85.051 29.2 73.856 22.81C62.662 16.42 54.383 21.969 54.383 21.969C54.383 21.969 37.447 22.073 38.62 43.966Z" fill="#312A45"/>
<path d="M51.436 50.839C51.357 52.268 50.598 53.388 49.741 53.34C48.884 53.293 48.253 52.096 48.332 50.667C48.411 49.238 49.17 48.118 50.027 48.165C50.884 48.214 51.515 49.41 51.436 50.839Z" fill="#2A2A2A"/>
<path d="M65.679 51.491C65.6 52.92 64.841 54.04 63.984 53.992C63.127 53.945 62.496 52.748 62.574 51.319C62.653 49.89 63.412 48.77 64.269 48.817C65.127 48.866 65.758 50.063 65.679 51.491Z" fill="#2A2A2A"/>
<path d="M54.526 48.852C54.713 51.004 52.481 55.507 51.107 57.979C50.745 58.631 51.278 59.414 52.017 59.321L56.373 58.775" stroke="#612525" stroke-width="0.9662" stroke-miterlimit="10"/>
<path d="M50.991 62.203C50.991 62.203 56.056 66.629 60.929 61.564" stroke="#612525" stroke-width="0.9662" stroke-miterlimit="10"/>
<path d="M45.324 46.31C46.937 43.125 51.117 44.075 52.51 46.308" stroke="#312A45" stroke-width="2.1074" stroke-miterlimit="10" stroke-linecap="round" stroke-linejoin="round"/>
<path d="M58.974 45.765C60.587 42.58 64.767 43.53 66.16 45.763" stroke="#312A45" stroke-width="2.1074" stroke-miterlimit="10" stroke-linecap="round" stroke-linejoin="round"/>
<path d="M77.18 58.383C78.137 54.769 83.558 52.312 84.09 57.633" stroke="#9E3838" stroke-width="0.9662" stroke-miterlimit="10"/>
</g>
</svg>
