<svg width="125" height="118" viewBox="0 0 125 118" fill="none" xmlns="http://www.w3.org/2000/svg">
<path d="M62.51 117.778C96.644 117.778 124.315 91.4161 124.315 58.897C124.315 26.3779 96.644 0.0160065 62.51 0.0160065C28.376 0.0160065 0.705002 26.3779 0.705002 58.897C0.705002 91.4161 28.376 117.778 62.51 117.778Z" fill="#EFC5AA"/>
<mask id="mask0_0_1" style="mask-type:luminance" maskUnits="userSpaceOnUse" x="0" y="0" width="125" height="118">
<path d="M62.51 117.778C96.644 117.778 124.315 91.4161 124.315 58.897C124.315 26.3779 96.644 0.0160065 62.51 0.0160065C28.376 0.0160065 0.705002 26.3779 0.705002 58.897C0.705002 91.4161 28.376 117.778 62.51 117.778Z" fill="white"/>
</mask>
<g mask="url(#mask0_0_1)">
<path d="M87.969 35.385C87.969 35.385 93.957 52.936 82.425 63.421L74.921 34.306L87.969 35.385Z" fill="#312A45"/>
<path d="M107.122 107.851C107.122 107.851 90.519 120.496 68.138 120.775C68.138 120.775 68.138 120.775 68.128 120.775C67.136 120.785 66.125 120.775 65.104 120.736C56.225 120.389 48.385 117.645 42.049 114.322C42.039 114.312 41.172 115.551 41.162 115.541C30.443 109.926 23.766 104.771 23.766 104.771C23.766 104.771 28.643 94.599 35.25 91.575C39.516 89.61 52.585 89.524 52.585 89.524L87.053 94.474C87.053 94.474 95.278 95.437 99.833 98.056C104.387 100.686 107.122 107.851 107.122 107.851Z" fill="#4D7D80"/>
<path d="M41.162 33.687L43.941 52.916C43.941 52.916 34.83 74.917 53.206 75.071L49.437 93.379C48.993 95.535 49.906 97.742 51.748 98.947C53.484 100.083 56.187 101.244 60.309 101.785C67.006 102.663 74.952 98.936 78.986 96.708C80.609 95.811 81.638 94.129 81.674 92.274L82.424 52.914L72.2 27.558L41.162 33.687Z" fill="#E06F6F"/>
<path d="M53.206 75.072C59.64 74.866 67.464 73.116 71.891 66.322C76.467 67.695 74.046 76.554 68.967 78.647C67.572 79.222 66.372 80.152 65.386 81.295C59.925 87.622 50.827 86.632 50.827 86.632L53.206 75.072Z" fill="#9E3838"/>
<path d="M52.332 47.778C52.332 49.164 51.658 50.287 50.826 50.287C49.995 50.287 49.32 49.164 49.32 47.778C49.32 46.392 49.994 45.269 50.826 45.269C51.658 45.269 52.332 46.392 52.332 47.778Z" fill="#2A2A2A"/>
<path d="M66.139 47.648C66.139 49.034 65.465 50.157 64.633 50.157C63.801 50.157 63.127 49.034 63.127 47.648C63.127 46.262 63.801 45.139 64.633 45.139C65.465 45.139 66.139 46.262 66.139 47.648Z" fill="#2A2A2A"/>
<path d="M55.214 45.692C55.51 47.763 53.592 52.236 52.396 54.7C52.081 55.35 52.638 56.078 53.348 55.949L57.531 55.189" stroke="#612525" stroke-width="0.9662" stroke-miterlimit="10"/>
<path d="M51.276 61.587C51.276 61.587 58.611 63.672 64.633 57.727" stroke="#612525" stroke-width="0.9662" stroke-miterlimit="10"/>
<path d="M51.817 67.008C51.817 67.008 55.755 65.464 58.611 67.008" stroke="#612525" stroke-width="0.9662" stroke-miterlimit="10"/>
<path d="M57.53 42.875C58.843 39.787 64.556 37.084 67.49 41.948" stroke="#312A45" stroke-width="2.1074" stroke-miterlimit="10" stroke-linecap="round" stroke-linejoin="round"/>
<path d="M46.18 43.725C47.57 40.56 51.662 41.254 53.129 43.339" stroke="#312A45" stroke-width="2.1074" stroke-miterlimit="10" stroke-linecap="round" stroke-linejoin="round"/>
<path d="M87.273 53.431C85.789 56.784 82.415 58.542 79.737 57.357C77.059 56.172 76.092 52.493 77.577 49.139C79.061 45.786 82.435 44.028 85.113 45.213C87.79 46.399 88.757 50.078 87.273 53.431Z" fill="#E06F6F"/>
<path d="M78.891 52.012C79.817 48.512 85.068 46.133 85.583 51.286" stroke="#9E3838" stroke-width="0.9662" stroke-miterlimit="10"/>
<path d="M41.162 23.829C41.162 23.829 42.727 9.246 53.129 7.182C63.531 5.118 77.977 11.585 83.343 16.813C88.709 22.041 87.969 35.386 87.969 35.386L41.162 33.688V23.829Z" fill="#333E67"/>
<path d="M41.162 29.363C41.162 29.363 21.57 31.67 19.919 33.871C18.268 36.072 75.095 36.979 77.706 35.012C80.316 33.046 55.195 27.988 41.162 29.363Z" fill="#4D7D80"/>
<path d="M53.129 56.572C53.129 56.572 51.287 56.641 50.049 58.361C48.811 60.081 48.889 61.044 48.889 61.044L67.177 58.361C67.177 58.361 64.125 53.859 53.129 56.572Z" fill="#312A45"/>
<path d="M68.138 120.775C68.138 120.775 68.138 120.775 68.128 120.775C67.136 120.785 66.125 120.775 65.104 120.736C56.225 120.389 48.385 117.645 42.049 114.322C42.039 114.312 42.039 114.312 42.03 114.303C42.03 114.303 50.666 102.634 52.939 99.6L65.991 101.918L68.138 120.775Z" fill="#D1932A"/>
<path d="M81.828 84.226L65.423 101.918L70.995 110.848L91.141 95.602L81.828 84.226Z" fill="#312A45"/>
<path d="M51.276 84.226L53.381 99.861L44.314 104.037V90.623L51.276 84.226Z" fill="#312A45"/>
</g>
</svg>
