<svg width="140" height="141" viewBox="0 0 140 141" fill="none" xmlns="http://www.w3.org/2000/svg">
<path d="M138.173 86.1996C146.767 48.6514 123.294 11.246 85.7459 2.65247C48.1977 -5.9411 10.7923 17.5313 2.19876 55.0796C-6.39482 92.6278 17.0776 130.033 54.6259 138.627C92.1741 147.22 129.579 123.748 138.173 86.1996Z" fill="#FFC7AA"/>
<mask id="mask0_0_1" style="mask-type:luminance" maskUnits="userSpaceOnUse" x="0" y="0" width="140" height="141">
<path d="M138.173 86.1996C146.767 48.6514 123.294 11.246 85.7459 2.65247C48.1977 -5.9411 10.7923 17.5313 2.19876 55.0796C-6.39482 92.6278 17.0776 130.033 54.6259 138.627C92.1741 147.22 129.579 123.748 138.173 86.1996Z" fill="white"/>
</mask>
<g mask="url(#mask0_0_1)">
<path d="M57.465 87.087C57.465 87.087 34.147 91.336 25.466 103.721C18.829 113.19 14.702 140.381 14.702 140.381H116.649C116.649 140.381 112.309 107.124 104.08 99.272C95.851 91.42 83.348 89.537 83.348 89.537L57.465 87.087Z" fill="#312A45"/>
<path d="M52.973 88.129C52.973 88.129 52.304 100.529 57.413 105.434C62.522 110.339 72.928 103.11 72.928 103.11C72.928 103.11 77.497 107.37 82.532 106.079C87.567 104.788 85.682 93.757 82.558 89.462L52.973 88.129Z" fill="#4D7D80"/>
<path d="M79.161 89.537L58.84 88.283C51.046 88.283 40.024 88.534 37.766 73.983C37.215 70.433 39.409 58.415 41.529 54.665C46.161 46.475 41.243 46.595 45.325 33.837C50.059 19.041 67.286 23.851 67.286 23.851C67.286 23.851 95.858 31.889 97.787 40.143C100.758 52.856 93.594 49.901 97.787 59.321C99.889 64.043 101.075 77.377 95.217 84.27C90.953 89.286 84.371 89.537 79.161 89.537Z" fill="#9E3838"/>
<path d="M80.684 92.381C75.608 113.04 55.661 94.109 54.908 87.086C58.055 77.206 57.001 66.643 57.001 66.643L80.878 75.093C80.823 75.79 80.766 76.489 80.711 77.192C80.449 80.432 80.199 83.745 80.289 87.246C80.332 88.911 80.451 90.618 80.684 92.381Z" fill="#E69680"/>
<path d="M80.289 87.246C67.76 84.504 59.577 71.629 59.577 71.629L80.711 77.192C80.448 80.432 80.199 83.745 80.289 87.246Z" fill="#161F29"/>
<path d="M86.038 57.376C86.038 57.376 87.84 51.497 92.625 52.788C97.41 54.08 97.736 69.957 88.65 69.545L86.038 57.376Z" fill="#E06C5C"/>
<path d="M93.131 56.316C93.126 56.84 93.1 57.398 93.054 57.988C93.006 58.645 92.933 59.334 92.836 60.054C92.727 60.878 92.586 61.741 92.418 62.626C92.32 63.159 92.211 63.7 92.091 64.247C90.247 72.753 86.688 76.654 82.616 78.643C75.907 81.92 59.281 74.848 56.69 68.551C54.817 64 54.847 65.884 54.349 53.623C53.848 41.363 58.845 34.62 58.845 34.62C65.616 26.861 77.721 28.025 85.585 33.154C93.452 38.279 93.199 47.826 93.131 56.316Z" fill="#E69680"/>
<path d="M82.53 67.594C81.937 67.694 81.262 67.726 80.498 67.655C76.544 67.286 73.56 64.156 73.435 64.023C73.244 63.82 73.254 63.5 73.457 63.309C73.66 63.117 73.98 63.127 74.172 63.33C74.2 63.36 77.026 66.316 80.592 66.648C84.125 66.978 85.361 64.761 85.373 64.738C85.506 64.492 85.813 64.4 86.058 64.532C86.304 64.664 86.396 64.971 86.264 65.217C86.213 65.311 85.193 67.143 82.53 67.594Z" fill="#302922"/>
<path d="M83.439 70.493C83.678 70.323 83.818 70.196 83.841 70.175C84.112 69.924 84.129 69.501 83.878 69.23C83.628 68.959 83.207 68.938 82.934 69.191C82.854 69.264 81.053 70.863 78.756 70.014C78.409 69.886 78.024 70.063 77.896 70.41C77.768 70.757 77.945 71.142 78.292 71.269C80.673 72.149 82.628 71.071 83.439 70.493Z" fill="#E06C5C"/>
<path d="M80.472 62.345C80.184 62.374 79.877 62.376 79.553 62.342C79.24 62.309 79.013 62.028 79.046 61.715C79.079 61.401 79.361 61.175 79.673 61.208C80.91 61.339 81.806 60.756 82.256 60.369C80.477 57.937 79.516 51.875 79.473 51.602C79.424 51.291 79.638 50.999 79.949 50.951C80.268 50.906 80.552 51.115 80.601 51.427C80.895 53.313 81.976 58.529 83.433 60.001C83.636 60.206 83.654 60.531 83.474 60.757C83.421 60.821 82.339 62.156 80.472 62.345Z" fill="#161F29"/>
<path d="M75.635 45.112C75.635 45.112 72.442 43.674 69.562 45.715C67.953 46.855 68.895 48.537 70.975 47.713C72.428 47.137 73.234 46.921 74.901 47.075C76.568 47.229 76.437 45.367 75.635 45.112Z" fill="#9E3838"/>
<path d="M84.98 45.595C84.98 45.595 88.249 44.338 91.01 46.536C92.553 47.764 91.518 49.391 89.488 48.451C88.07 47.795 87.277 47.535 85.604 47.595C83.929 47.657 84.164 45.804 84.98 45.595Z" fill="#9E3838"/>
<path d="M57.414 52.057C57.414 52.057 54.558 47.136 49.559 49.343C44.561 51.55 46.857 68.905 56.69 66.939L57.414 52.057Z" fill="#E69680"/>
<path d="M58.263 42.697C58.263 42.697 61.037 48.18 59.538 51.356C58.04 54.533 58.35 58.296 58.35 58.296C58.35 58.296 52.682 53.653 54.076 46.277C55.472 38.9 58.263 42.697 58.263 42.697Z" fill="#9E3838"/>
<path d="M55.36 60.175C55.426 60.426 55.275 60.683 55.024 60.748C54.989 60.757 54.956 60.762 54.923 60.764C54.708 60.772 54.507 60.628 54.451 60.411C54.443 60.383 54.002 58.741 52.816 57.253C51.852 58.119 51.086 58.92 51.075 58.929C50.987 59.023 50.871 59.071 50.753 59.074C50.632 59.078 50.509 59.036 50.411 58.946C50.225 58.767 50.219 58.469 50.397 58.28C50.432 58.244 51.198 57.443 52.186 56.554C51.436 55.825 50.468 55.215 49.239 54.981C48.985 54.932 48.819 54.686 48.868 54.432C48.917 54.175 49.162 54.009 49.417 54.058C53.949 54.927 55.305 59.962 55.36 60.175Z" fill="#161F29"/>
<path d="M71.076 18.608C71.076 18.608 87.934 17.611 95.08 27.859C102.227 38.107 96.246 47.369 96.246 47.369C96.246 47.369 85.778 49.447 72.565 35.005C72.565 35.005 71.308 46.78 61.533 47.369C51.759 47.958 54.062 38.727 54.062 38.727C54.062 38.727 50.323 21.335 71.076 18.608Z" fill="#9E3838"/>
<path d="M72.928 54.629C72.928 55.976 72.281 57.069 71.484 57.069C70.686 57.069 70.04 55.977 70.04 54.629C70.04 53.282 70.687 52.19 71.484 52.19C72.282 52.19 72.928 53.282 72.928 54.629Z" fill="#161F29"/>
<path d="M87.482 55.354C87.482 56.701 86.835 57.793 86.038 57.793C85.241 57.793 84.594 56.701 84.594 55.354C84.594 54.007 85.241 52.914 86.038 52.914C86.835 52.914 87.482 54.007 87.482 55.354Z" fill="#161F29"/>
</g>
</svg>
