<svg width="125" height="119" viewBox="0 0 125 119" fill="none" xmlns="http://www.w3.org/2000/svg">
<path d="M62.51 118.749C96.644 118.749 124.315 92.3871 124.315 59.868C124.315 27.3489 96.644 0.987 62.51 0.987C28.376 0.987 0.705002 27.3489 0.705002 59.868C0.705002 92.3871 28.376 118.749 62.51 118.749Z" fill="#EFC5AA"/>
<mask id="mask0_0_1" style="mask-type:luminance" maskUnits="userSpaceOnUse" x="0" y="0" width="125" height="119">
<path d="M62.51 118.749C96.644 118.749 124.315 92.3871 124.315 59.868C124.315 27.3489 96.644 0.987 62.51 0.987C28.376 0.987 0.705002 27.3489 0.705002 59.868C0.705002 92.3871 28.376 118.749 62.51 118.749Z" fill="white"/>
</mask>
<g mask="url(#mask0_0_1)">
<path d="M86.171 49.337C86.171 49.337 86.025 56.35 94.634 58.685C103.243 61.02 103.535 68.608 101.492 72.985C101.492 72.985 105.286 73.86 106.307 80.281C107.328 86.702 95.801 103.336 73.475 96.77C51.149 90.204 48.815 97.062 39.476 90.35C30.137 83.638 37.433 74.883 41.373 74.737C41.373 74.737 38.455 71.518 40.06 66.269C41.665 61.02 44.927 60.54 47.541 57.982C50.155 55.424 52.171 51.098 52.171 51.098L86.171 49.337Z" fill="#312A45"/>
<path d="M81.098 94.679C81.098 94.679 89.198 95.621 93.682 98.206C98.166 100.79 100.865 107.848 100.865 107.848C100.865 107.848 83.011 121.445 59.477 120.538C35.943 119.631 19.841 101.538 19.841 101.538C19.841 101.538 22.861 93.517 29.364 90.537C33.57 88.609 43.26 88.693 43.26 88.693L81.098 94.679Z" fill="#4D7D80"/>
<path d="M65.365 45.859C65.365 45.859 65.065 49.157 67.064 51.855C69.063 54.553 69.962 54.453 70.262 57.351C70.562 60.249 69.719 61.648 70.74 64.446" stroke="#9E6C19" stroke-width="0.7558" stroke-miterlimit="10"/>
<path d="M88.1984 44.9912C90.8834 32.1323 82.4062 19.4835 69.264 16.7393C56.1218 13.9951 43.2913 22.1948 40.6062 35.0537C37.9212 47.9126 46.3985 60.5614 59.5407 63.3056C72.6829 66.0498 85.5134 57.8501 88.1984 44.9912Z" fill="#312A45"/>
<path d="M50.156 55.422C51.403 58.031 50.903 60.868 49.039 61.759C47.175 62.65 44.654 61.256 43.407 58.647C42.16 56.038 42.66 53.201 44.524 52.31C46.388 51.42 48.909 52.813 50.156 55.422Z" fill="#7C4E37"/>
<path d="M60.948 108.82C70.261 109.017 80.811 103.087 83.591 94.682C70.723 92.21 55.72 90.351 43.259 88.691C43.53 99.689 49.838 108.586 60.948 108.82Z" fill="#8F3935"/>
<path d="M59.005 26.123C59.005 26.123 61.154 38.3 74.453 43.527C76.155 44.196 77.248 45.873 77.207 47.702L76.09 97.79C76.09 97.79 69.872 105.542 58.925 103.257C47.978 100.972 49.385 92.809 49.385 92.809L52.728 74.664C52.728 74.664 46.082 69.94 47.971 61.208C47.971 61.208 46.589 50.745 46.146 47.919C45.065 41.017 58.261 33.238 59.005 26.123Z" fill="#9B6446"/>
<path d="M52.729 74.664C57.915 76.323 66.384 75.38 71.101 71.443C71.793 70.866 72.849 71.393 72.739 72.287C72.466 74.51 71.416 77.581 67.873 78.988C61.986 81.325 58.518 89.977 50.553 86.479L52.729 74.664Z" fill="#7C4E37"/>
<path d="M76.429 54.795C77.846 50.637 81.165 48.219 83.123 49.851C85.716 52.011 81.476 63.466 76.849 63.735C72.223 64.002 76.429 54.795 76.429 54.795Z" fill="#9B6446"/>
<path d="M63.513 44.254C66.606 43.575 69.709 44.325 71.267 45.16" stroke="#312A45" stroke-width="2.1074" stroke-miterlimit="10" stroke-linecap="round"/>
<path d="M56.136 43.948C56.136 43.948 51.5 42.109 48.8 44.442" stroke="#312A45" stroke-width="2.1074" stroke-miterlimit="10" stroke-linecap="round"/>
<path d="M81.429 63.887C81.091 65.504 79.506 66.542 77.889 66.204C76.272 65.866 75.234 64.281 75.572 62.664C75.91 61.046 77.495 60.009 79.112 60.347C80.729 60.684 81.766 62.269 81.429 63.887Z" fill="white"/>
<path d="M55.137 49.902C55.108 51.267 54.421 52.359 53.602 52.341C52.783 52.324 52.143 51.204 52.172 49.839C52.201 48.475 52.888 47.382 53.707 47.4C54.526 47.417 55.166 48.538 55.137 49.902Z" fill="#2A2A2A"/>
<path d="M68.734 50.063C68.705 51.427 68.018 52.52 67.199 52.502C66.38 52.485 65.74 51.364 65.769 50C65.798 48.635 66.485 47.543 67.304 47.561C68.123 47.578 68.763 48.698 68.734 50.063Z" fill="#2A2A2A"/>
<path d="M58.018 47.908C58.266 49.953 56.285 54.317 55.055 56.719C54.731 57.352 55.264 58.081 55.966 57.968L60.1 57.307" stroke="#612525" stroke-width="0.9662" stroke-miterlimit="10"/>
<path d="M57.158 61.876C57.158 61.876 61.303 63.149 64.798 59.842" stroke="#612525" stroke-width="0.9662" stroke-miterlimit="10"/>
<path d="M52.468 21.329C52.468 21.329 51.753 17.681 46.782 17.754C41.812 17.827 40.717 22.277 40.717 22.277C40.717 22.277 36.777 20.745 33.932 23.371C31.087 25.998 32.911 29.719 32.911 29.719C32.911 29.719 29.482 30.011 29.263 35.41C29.044 40.809 34.926 42.122 34.926 42.122C34.926 42.122 33.859 44.797 36.413 47.399C38.967 50.001 43.417 49.87 43.417 49.87L52.468 21.329Z" fill="#312A45"/>
</g>
</svg>
